<svg width="26" height="30" viewBox="0 0 26 30" fill="none" xmlns="http://www.w3.org/2000/svg">
<path d="M4.30506 4.95041C4.10363 5.10695 3.87148 5.39386 3.9094 5.87168L5.35338 24.0689C5.39242 24.5609 5.67757 24.7977 5.90991 24.9097C6.14224 25.0217 6.49807 25.0939 6.87382 24.8019L21.1745 13.6878C21.5502 13.3958 21.5957 13.0116 21.5678 12.7408C21.5398 12.47 21.4171 12.1069 20.9914 11.9154L5.2468 4.83229C4.83336 4.64631 4.50648 4.79387 4.30506 4.95041ZM2.0555 1.64185C3.34864 0.636856 5.09685 0.301162 6.76421 1.05127L22.5088 8.13439C25.9424 9.67906 26.4548 14.6409 23.424 16.9964L9.12337 28.1104C6.09258 30.4659 1.83609 28.4138 1.52119 24.4454L0.0772112 6.24823C-0.0757086 4.32114 0.76236 2.64684 2.0555 1.64185Z" fill="#5784F7"/>
</svg>
