<svg width="40" height="40" viewBox="0 0 40 40" fill="none" xmlns="http://www.w3.org/2000/svg">
<path d="M19.4663 39.5259C19.5413 40.158 20.4587 40.158 20.5337 39.5259L21.163 34.2226C21.9755 27.3746 27.3746 21.9755 34.2225 21.163L39.5258 20.5337C40.1581 20.4587 40.1581 19.5413 39.5258 19.4663L34.2225 18.837C27.3746 18.0245 21.9755 12.6254 21.163 5.77746L20.5337 0.474178C20.4587 -0.158058 19.5413 -0.158058 19.4663 0.474178L18.837 5.77746C18.0245 12.6254 12.6254 18.0245 5.77741 18.837L0.474123 19.4663C-0.158041 19.5413 -0.158041 20.4587 0.474123 20.5337L5.77741 21.163C12.6254 21.9755 18.0245 27.3746 18.837 34.2226L19.4663 39.5259Z" fill="#3ED1BE"/>
</svg>
