<svg width="32" height="32" viewBox="0 0 32 32" fill="none" xmlns="http://www.w3.org/2000/svg">
<path d="M15.573 31.6207C15.6331 32.1264 16.3669 32.1264 16.427 31.6207L16.9304 27.3781C17.5804 21.8997 21.8997 17.5804 27.378 16.9304L31.6207 16.427C32.1264 16.3669 32.1264 15.6331 31.6207 15.573L27.378 15.0696C21.8997 14.4196 17.5804 10.1003 16.9304 4.62197L16.427 0.379343C16.3669 -0.12645 15.6331 -0.12645 15.573 0.379343L15.0696 4.62197C14.4196 10.1003 10.1003 14.4196 4.62192 15.0696L0.379298 15.573C-0.126433 15.6331 -0.126433 16.3669 0.379298 16.427L4.62192 16.9304C10.1003 17.5804 14.4196 21.8997 15.0696 27.3781L15.573 31.6207Z" fill="#E2CAFC"/>
</svg>
