<svg width="37" height="35" viewBox="0 0 37 35" fill="none" xmlns="http://www.w3.org/2000/svg">
<g clip-path="url(#clip0_166_446)">
<path d="M21.9691 29.5927L5.83065 19.8524C5.48926 19.6464 5.04281 19.7547 4.83855 20.0932L4.09575 21.3239C3.89149 21.6623 4.00368 22.1078 4.34507 22.3139L20.4835 32.0541C20.8249 32.2602 21.2714 32.1518 21.4756 31.8134L22.2184 30.5827C22.4227 30.2442 22.3105 29.7987 21.9691 29.5927ZM31.8799 18.784C30.8518 18.1635 29.5187 18.487 28.9036 19.5062C28.7387 19.7793 28.6476 20.0706 28.6146 20.3707L24.7985 20.3447C23.9875 20.338 23.3362 19.672 23.3531 18.8637L23.5014 11.471C24.1208 11.3831 24.6987 11.0394 25.0469 10.4625C25.662 9.44327 25.327 8.11298 24.299 7.49251C23.2709 6.87204 21.9378 7.19552 21.3226 8.21471C20.9745 8.79161 20.9396 9.46318 21.1505 10.0522L14.6786 13.6283C13.9713 14.0199 13.0747 13.7516 12.6947 13.0395L10.8973 9.67753C11.1413 9.50999 11.3627 9.29211 11.5276 9.01904C12.1427 7.99985 11.8077 6.66956 10.7796 6.04909C9.75156 5.42862 8.41454 5.74976 7.79941 6.76895C7.18429 7.78814 7.5193 9.11843 8.54735 9.7389C8.64822 9.79978 8.75837 9.84527 8.86464 9.88842L7.19415 18.9963L22.0912 27.9873L29.3713 22.2651C29.459 22.339 29.5506 22.4153 29.6515 22.4762C30.6795 23.0966 32.0127 22.7732 32.6278 21.754C33.2429 20.7348 32.9079 19.4045 31.8799 18.784Z" fill="#FFB300"/>
</g>
<defs>
<clipPath id="clip0_166_446">
<rect width="29" height="23" fill="white" transform="translate(11.8848) rotate(31.1128)"/>
</clipPath>
</defs>
</svg>
