<svg width="855" height="664" viewBox="0 0 855 664" fill="none" xmlns="http://www.w3.org/2000/svg">
<path d="M368.456 1226.31C483.465 1211.97 711.196 1137.88 702.051 956.199C692.905 774.518 601.114 620.49 556.362 566.186C481.292 454.309 423.282 242.218 791.8 288.877C1160.32 335.535 1094.83 6.77505 1016.02 -163.437" stroke="white" stroke-opacity="0.26"/>
<path d="M237.818 1169.38C352.827 1155.04 878.062 1228.4 868.916 1046.71C859.771 865.032 767.98 711.004 723.227 656.701C648.157 544.823 590.147 332.733 958.666 379.391C1327.18 426.049 1032.52 -9.89389 953.712 -180.106" stroke="white" stroke-opacity="0.26"/>
<path d="M165.464 1116.48C280.473 1102.15 805.707 1175.5 796.562 993.82C787.416 812.138 695.625 658.11 650.873 603.807C575.803 491.929 517.793 279.839 886.311 326.497C1254.83 373.155 960.168 -62.7879 881.358 -233" stroke="white" stroke-opacity="0.26"/>
</svg>
