<svg width="48" height="48" viewBox="0 0 48 48" fill="none" xmlns="http://www.w3.org/2000/svg">
<g clip-path="url(#clip0_18_579)">
<path d="M48.0002 3.93761V38.6255C47.9697 38.6771 47.9274 38.7264 47.9098 38.7816C47.4648 40.2889 46.4703 41.1365 44.8994 41.2832C44.5049 41.3208 44.1068 41.3255 43.7147 41.3454V46.1268C44.7373 46.1268 45.733 46.1514 46.7263 46.1174C47.3016 46.0974 47.7266 46.2688 48.0002 46.7818V48.0003H0.658878C0.623654 47.971 0.589605 47.9381 0.552034 47.9123C0.0882598 47.6024 -0.0808122 47.2455 0.0365989 46.8194C0.157532 46.3792 0.522681 46.1338 1.07804 46.1279C1.45258 46.1232 1.82712 46.1279 2.20283 46.1279C2.89908 46.1279 3.59533 46.1279 4.31623 46.1279C4.31623 45.2839 4.31623 44.5056 4.31623 43.7261C4.31623 42.9466 4.31623 42.1425 4.31623 41.3184C3.99335 41.3184 3.73035 41.3231 3.46735 41.3184C1.43144 41.2762 0.00842024 39.9215 0.00724613 37.9775C0.000201462 26.8406 0.000201462 15.7037 0.00959435 4.568C0.0107685 2.13801 2.13356 0.00853546 4.56045 0.00618764C17.5226 -0.00202973 30.4848 -0.00320364 43.4482 0.00970937C44.7937 0.0108833 45.9068 0.603708 46.8214 1.58979C47.446 2.26244 47.709 3.10414 48.0002 3.93644V3.93761ZM37.6868 25.9672V26.4473C37.6868 27.4006 37.6868 28.3538 37.6868 29.307C37.6868 29.4162 37.6892 29.5253 37.6868 29.6345C37.6692 30.2438 37.297 30.6499 36.7557 30.6523C36.2133 30.6546 35.8223 30.2496 35.8188 29.6439C35.8106 28.207 35.8153 26.769 35.8153 25.3321C35.8153 24.3449 36.1335 24.0291 37.1397 24.0291C38.8891 24.0279 40.6397 24.0267 42.3891 24.0291C43.3578 24.0303 43.6865 24.3578 43.6865 25.3133C43.6865 29.8129 43.6865 34.3125 43.6865 38.8121C43.6865 38.9953 43.6865 39.1772 43.6865 39.4026C43.9084 39.4026 44.0763 39.4026 44.2442 39.4026C45.6778 39.405 46.1263 38.9612 46.1263 37.542C46.1263 28.1049 46.1263 18.6678 46.1263 9.23195C46.1263 9.0359 46.1263 8.84103 46.1263 8.6626H1.87643C1.87643 8.81051 1.87643 8.91969 1.87643 9.02886C1.87643 18.6068 1.87643 28.1836 1.87643 37.7615C1.87643 37.9024 1.87526 38.0444 1.89639 38.1817C1.99032 38.7851 2.39891 39.2864 2.94839 39.3603C3.38634 39.419 3.8372 39.3721 4.31623 39.3721C4.31623 38.541 4.31388 37.7474 4.31623 36.9527C4.31975 36.1579 4.66025 35.8175 5.45864 35.8163C7.27147 35.814 9.08312 35.8151 10.896 35.8163C11.8963 35.8163 12.1875 36.1016 12.1875 37.0865C12.1875 39.9297 12.1875 42.7741 12.1875 45.6173V46.1045H14.8151V45.5304C14.8151 39.2653 14.8151 33.0001 14.8151 26.7349C14.8151 25.7465 15.1345 25.4296 16.1384 25.4284C17.8725 25.4272 19.6067 25.4284 21.3408 25.4284C22.3764 25.4284 22.6864 25.7371 22.6864 26.7584C22.6864 33.0236 22.6864 39.2887 22.6864 45.5539V46.0927H25.314V45.5457C25.314 41.9054 25.314 38.2651 25.314 34.6248C25.314 33.6868 25.6158 33.3793 26.5351 33.3793C28.3479 33.3793 30.1596 33.3781 31.9724 33.3793C32.873 33.3793 33.1853 33.6904 33.1853 34.5872C33.1853 38.2428 33.1853 41.8995 33.1853 45.5551V46.0939H35.8129V45.5469C35.8129 42.4841 35.8129 39.4226 35.8129 36.3598C35.8129 36.2037 35.8059 36.0452 35.827 35.8914C35.8904 35.4477 36.292 35.0944 36.7287 35.0826C37.1772 35.0709 37.607 35.4383 37.6704 35.9008C37.6915 36.0546 37.6833 36.2131 37.6833 36.3692C37.6833 39.4472 37.6833 42.5252 37.6833 45.6032V46.0951H41.7786V25.9707H37.6833L37.6868 25.9672ZM1.91165 6.7186H46.1204C46.1204 6.00017 46.1545 5.31226 46.1075 4.63022C46.0805 4.23461 45.9831 3.81787 45.8105 3.46335C45.2598 2.33053 44.2794 1.87505 43.0619 1.87505C30.3498 1.87388 17.6377 1.87505 4.92442 1.87505C4.86219 1.87505 4.79997 1.87505 4.73656 1.87623C3.18909 1.94549 2.10773 2.88109 1.92692 4.41774C1.83886 5.16787 1.91165 5.93795 1.91165 6.71978V6.7186ZM20.7914 46.1056V27.3747H16.7125V46.1056H20.7914ZM27.2208 35.2704V46.0904H31.2914V35.2704H27.2208ZM6.2089 46.0939H10.2784V37.7134H6.2089V46.0939Z" fill="#14317A"/>
<path d="M40.0592 12.7509C41.1734 12.8072 42.2266 13.4505 42.8125 14.723C43.3819 15.9615 43.2281 17.1742 42.3581 18.2342C41.4658 19.3212 40.2929 19.711 38.9227 19.3741C38.5951 19.2931 38.4131 19.3611 38.1935 19.5818C36.2786 21.5106 34.3577 23.4334 32.4287 25.3469C32.2138 25.5606 32.1598 25.7132 32.2889 26.0196C32.8913 27.4506 32.4087 29.0635 31.1348 30.0191C29.9842 30.8831 28.2418 30.8549 27.1182 29.9545C25.8548 28.9426 25.4298 27.3038 26.1014 25.8822C26.2387 25.5899 26.2282 25.4361 25.9981 25.2084C24.0432 23.275 22.1 21.331 20.1639 19.3788C19.9455 19.1592 19.7811 19.1041 19.4841 19.2379C18.7268 19.5783 17.9343 19.5865 17.1605 19.2942C16.8412 19.1733 16.6557 19.2473 16.4302 19.4738C14.7818 21.1384 13.1228 22.7937 11.459 24.443C11.25 24.6496 11.1878 24.7963 11.3088 25.1121C11.8148 26.4375 11.6023 27.676 10.6172 28.7078C9.65913 29.7103 8.45449 30.0015 7.14418 29.5706C5.83622 29.1398 5.05426 28.1995 4.86288 26.8155C4.51065 24.274 7.03969 22.2947 9.43252 23.2503C9.75071 23.3771 9.92213 23.3243 10.1476 23.0965C11.7514 21.4754 13.3634 19.8624 14.9849 18.2588C15.235 18.0111 15.3078 17.8351 15.1481 17.4712C14.5927 16.201 14.7759 14.9872 15.6729 13.933C16.5453 12.907 17.6877 12.529 19.0004 12.8424C20.3717 13.1699 21.2159 14.0809 21.5294 15.4415C21.6844 16.1165 21.6327 16.8126 21.3192 17.4547C21.2136 17.6707 21.2382 17.8045 21.4108 17.9759C23.4268 19.9798 25.4321 21.9954 27.4551 23.9922C27.5702 24.1061 27.8496 24.153 28.0117 24.1026C28.8652 23.8361 29.6918 23.8314 30.5266 24.1742C30.6534 24.2258 30.8976 24.1847 30.9915 24.0908C32.9241 22.1809 34.8391 20.251 36.7717 18.341C37.0042 18.1109 36.9232 17.9665 36.7999 17.7435C35.5553 15.4919 37.1967 12.7379 40.0604 12.7485L40.0592 12.7509ZM39.7586 17.6144C40.5582 17.6085 41.2533 16.9065 41.2474 16.1106C41.2415 15.3112 40.5418 14.6186 39.7434 14.6232C38.9426 14.6279 38.2499 15.3276 38.2546 16.1258C38.2593 16.9229 38.9638 17.6202 39.7586 17.6144ZM29.1811 25.7848C28.3897 25.7719 27.6817 26.4645 27.6688 27.2651C27.6559 28.0563 28.351 28.7665 29.1482 28.7782C29.9454 28.7888 30.6475 28.1009 30.6581 27.2979C30.6687 26.4997 29.9842 25.7977 29.1811 25.7848ZM19.7013 16.1247C19.7036 15.3053 19.0403 14.6279 18.2313 14.6244C17.4177 14.6209 16.7531 15.2877 16.7496 16.1129C16.7461 16.9335 17.4094 17.612 18.2196 17.6167C19.0274 17.6214 19.6989 16.9441 19.7013 16.1258V16.1247ZM8.17505 24.9114C7.34026 24.9184 6.70506 25.5653 6.71328 26.4011C6.7215 27.2346 7.36726 27.8661 8.20675 27.8603C9.0345 27.8544 9.67439 27.2017 9.66852 26.3694C9.66265 25.5371 9.01454 24.9043 8.17505 24.9114Z" fill="#5784F7"/>
<path d="M7.50493 13.6879C6.78872 13.6879 6.07134 13.695 5.35513 13.6856C4.72229 13.6785 4.309 13.2888 4.32074 12.7312C4.33248 12.1924 4.7352 11.8202 5.35043 11.8167C6.78402 11.8085 8.21761 11.8085 9.6512 11.8167C10.284 11.8202 10.6985 12.2158 10.6856 12.7734C10.6739 13.3123 10.27 13.6785 9.6559 13.6856C8.93969 13.6938 8.22231 13.6879 7.5061 13.6879H7.50493Z" fill="#5784F7"/>
<path d="M7.52958 16.3136C8.23052 16.3136 8.93147 16.3077 9.63359 16.3159C10.2758 16.3229 10.6879 16.6986 10.6844 17.2562C10.6809 17.8126 10.2711 18.1824 9.62419 18.1859C8.20587 18.1918 6.78871 18.1918 5.37039 18.1859C4.72815 18.1836 4.31721 17.8068 4.31956 17.248C4.32191 16.6916 4.73285 16.3229 5.37978 16.3159C6.09599 16.3089 6.81337 16.3147 7.52958 16.3147V16.3136Z" fill="#5784F7"/>
<path d="M14.1667 12.7593C14.1631 13.2735 13.7675 13.6761 13.2591 13.6832C12.7507 13.6902 12.294 13.243 12.2998 12.7429C12.3057 12.2369 12.766 11.8014 13.2755 11.8178C13.7827 11.8343 14.1702 12.244 14.1667 12.7593Z" fill="#5784F7"/>
<path d="M36.7295 34.0023C36.2352 33.9871 35.8125 33.5469 35.8172 33.0515C35.8219 32.5279 36.2657 32.1123 36.7952 32.1346C37.3013 32.157 37.7016 32.5878 37.6828 33.0926C37.6641 33.5891 37.2155 34.0164 36.7295 34.0012V34.0023Z" fill="#5784F7"/>
<path d="M31.4324 5.24715C28.0263 5.24715 24.6213 5.24715 21.2152 5.24715C21.0591 5.24715 20.9018 5.25537 20.7468 5.24011C20.2489 5.1908 19.8756 4.77876 19.8838 4.29863C19.8908 3.83494 20.2513 3.43933 20.7268 3.38533C20.8818 3.36772 21.0391 3.37594 21.1953 3.37594C28.0063 3.37594 34.8173 3.37594 41.6283 3.37594C42.4925 3.37594 42.9257 3.68468 42.9328 4.30215C42.9386 4.92315 42.4995 5.24832 41.6483 5.24832C38.2422 5.24832 34.8373 5.24832 31.4312 5.24832L31.4324 5.24715Z" fill="#5784F7"/>
<path d="M6.0011 3.37988C6.50127 3.37988 6.92748 3.79779 6.93569 4.29905C6.94274 4.81792 6.5001 5.25696 5.98232 5.24523C5.48215 5.23349 5.06651 4.80266 5.07121 4.30258C5.07708 3.80132 5.49976 3.38106 6.0011 3.37988Z" fill="#5784F7"/>
<path d="M9.74159 5.24366C9.24025 5.23779 8.82109 4.81401 8.81992 4.31275C8.81992 3.79389 9.26843 3.36071 9.78621 3.3795C10.2864 3.39828 10.6961 3.8338 10.6844 4.33388C10.6727 4.83397 10.2418 5.24953 9.74159 5.24366Z" fill="#5784F7"/>
<path d="M14.4348 4.31085C14.4348 4.81094 14.0156 5.23707 13.5154 5.24411C12.9965 5.25116 12.5574 4.80859 12.5703 4.28972C12.582 3.78964 13.0129 3.37407 13.5131 3.37994C14.0144 3.38581 14.4336 3.8096 14.4348 4.31085Z" fill="#5784F7"/>
</g>
<defs>
<clipPath id="clip0_18_579">
<rect width="48" height="48" fill="white"/>
</clipPath>
</defs>
</svg>
