<svg width="53" height="53" viewBox="0 0 53 53" fill="none" xmlns="http://www.w3.org/2000/svg">
<g clip-path="url(#clip0_18_572)">
<path d="M18.1546 27.571C16.8806 28.869 15.6095 30.1712 14.3298 31.4635C13.6957 32.1041 13.0487 32.7333 12.4017 33.3625C11.4313 34.3064 10.2898 34.5872 9.02867 34.0722C7.76751 33.5572 7.15475 32.5471 7.12625 31.2138C7.09774 29.9144 7.12054 28.6136 7.12054 27.3312C6.36242 27.2268 5.63281 27.1901 4.93881 27.018C2.21842 26.3407 0.179187 23.931 0.0523588 21.1686C-0.0331435 19.2893 0.00960763 17.403 0.0124577 15.5209C0.0167328 12.3352 -0.0317185 9.14812 0.0666091 5.96666C0.154961 3.12661 2.69153 0.493968 5.53163 0.107395C5.93491 0.0523718 6.3439 0.00722457 6.75146 0.00722457C13.8082 0.000170316 20.865 -0.00406224 27.9218 0.00581372C31.0484 0.0100463 33.6604 1.98665 34.4243 4.94661C34.5896 5.58432 34.6309 6.26717 34.6352 6.93027C34.6551 10.6267 34.6451 14.3217 34.6451 18.0181C34.6451 18.2241 34.6451 18.4315 34.6451 18.6883H35.2821C38.926 18.6883 42.5698 18.6855 46.215 18.6883C49.5938 18.6911 52.2444 20.8441 52.8956 24.1271C52.9797 24.5546 52.9925 25.0018 52.9939 25.4392C53.0011 30.0146 53.0082 34.5914 52.9939 39.1668C52.9854 42.4569 50.9533 45.0317 47.7954 45.7555C47.1969 45.8923 46.5727 45.9121 45.8887 45.9939C45.8887 46.6316 45.8887 47.2933 45.8887 47.955C45.8887 48.6068 45.9086 49.2586 45.883 49.909C45.8303 51.2408 45.2232 52.2468 43.9578 52.7533C42.6909 53.2612 41.5537 52.9663 40.5904 52.0196C38.6466 50.1108 36.7029 48.2033 34.772 46.2817C34.514 46.0249 34.2575 45.9149 33.8899 45.9163C30.9743 45.9304 28.0586 45.9276 25.1444 45.9233C21.7885 45.9177 19.135 43.7831 18.4724 40.5339C18.3712 40.0387 18.3584 39.5195 18.357 39.0116C18.347 35.421 18.3527 31.8304 18.3527 28.2412V27.6768L18.1575 27.5696L18.1546 27.571ZM17.3366 2.55663C14.706 2.55663 12.0754 2.5524 9.44478 2.55945C8.36175 2.56227 7.27302 2.53547 6.1957 2.61871C4.19352 2.7739 2.61173 4.4768 2.6046 6.46892C2.58893 11.2376 2.59035 16.0063 2.6046 20.7749C2.6103 22.6782 4.00541 24.3007 5.91354 24.6096C6.59043 24.7197 7.29297 24.6971 7.98269 24.7042C9.3037 24.7183 9.72551 25.1288 9.72551 26.4466C9.72551 28.0126 9.71696 29.5786 9.73976 31.1447C9.74261 31.3352 9.87514 31.6201 10.0262 31.6836C10.173 31.7471 10.4252 31.5976 10.619 31.5143C10.7102 31.4748 10.7729 31.3718 10.8484 31.2971C12.8777 29.2993 14.9127 27.3072 16.9305 25.2995C17.3466 24.8862 17.7969 24.6957 18.3954 24.6985C21.5947 24.7183 24.7939 24.7183 27.9931 24.7027C30.276 24.6915 32.0544 22.935 32.0587 20.6832C32.0701 15.9851 32.0673 11.287 32.0544 6.58884C32.0544 6.17405 31.9832 5.74374 31.8578 5.3487C31.2963 3.58796 29.7829 2.5651 27.7351 2.55945C24.2694 2.54958 20.8038 2.55663 17.3381 2.55663H17.3366ZM20.9648 27.2423C20.9534 27.4299 20.942 27.5357 20.942 27.6401C20.942 31.5468 20.942 35.4534 20.9448 39.3615C20.9448 39.607 20.9562 39.8567 21.0061 40.0951C21.4279 42.1126 23.0439 43.3754 25.2299 43.3824C28.3579 43.3909 31.4873 43.3951 34.6152 43.3768C35.2109 43.3739 35.664 43.5588 36.0816 43.975C38.1108 45.9981 40.1586 48.0029 42.1993 50.0148C42.3004 50.1136 42.3917 50.2264 42.5071 50.3069C42.8591 50.5495 43.2239 50.383 43.2723 49.9598C43.288 49.8201 43.2809 49.679 43.2809 49.5379C43.2809 48.0241 43.278 46.5103 43.2809 44.9978C43.2837 43.8438 43.7369 43.3923 44.8812 43.3881C45.3614 43.3866 45.8417 43.4007 46.3205 43.3824C48.7416 43.2949 50.4046 41.6047 50.4075 39.2162C50.4132 34.6055 50.4103 29.9948 50.4075 25.3828C50.4075 25.1034 50.4004 24.817 50.3448 24.5433C49.9358 22.5272 48.3426 21.2391 46.1994 21.2292C42.4487 21.2137 38.698 21.225 34.9473 21.2264C34.8447 21.2264 34.7406 21.2476 34.6323 21.2603C34.6166 21.3647 34.6052 21.4507 34.591 21.5368C34.0281 24.9694 31.3775 27.2239 27.8734 27.2423C26.2018 27.2507 24.5317 27.2437 22.8601 27.2437C22.2416 27.2437 21.6232 27.2437 20.9634 27.2437L20.9648 27.2423Z" fill="#14317A"/>
<path d="M17.2131 6.53125C18.0239 6.75699 18.8818 6.88255 19.6356 7.22962C21.377 8.03239 21.9941 9.86509 21.045 11.52C20.6004 12.2932 19.942 12.9859 19.258 13.5742C18.4714 14.2486 18.031 14.9921 18.0681 16.0277C18.0895 16.64 17.7788 16.8939 17.0392 16.9603C16.3424 17.0237 15.9277 16.7952 15.8336 16.2196C15.5985 14.7819 15.9818 13.5446 17.119 12.5739C17.5622 12.1958 18.0453 11.853 18.4343 11.4255C19.3392 10.4337 18.9587 9.29228 17.6463 9.02846C16.6915 8.83658 15.8578 9.01999 15.2736 9.89754C14.8532 10.5282 14.4186 10.6453 13.8386 10.3702C13.2643 10.0979 13.0334 9.5279 13.2771 8.8521C13.7445 7.56258 14.8147 7.03492 16.0659 6.76968C16.4279 6.6935 16.8041 6.68221 17.1732 6.63989C17.186 6.6032 17.1988 6.56793 17.2116 6.53125H17.2131Z" fill="#5784F7"/>
<path d="M16.9106 20.5827C16.1682 20.5855 15.554 19.9802 15.5526 19.2452C15.5526 18.5172 16.1767 17.9006 16.912 17.9063C17.6474 17.9105 18.2758 18.5299 18.2744 19.248C18.2744 19.9746 17.6545 20.5798 16.9106 20.5827Z" fill="#5784F7"/>
<path d="M35.6715 34.1964C34.6455 34.1936 33.7691 33.3231 33.7705 32.3087C33.7719 31.2943 34.654 30.4224 35.6772 30.4238C36.7004 30.4252 37.5825 31.3014 37.5811 32.3144C37.5796 33.3274 36.6961 34.1979 35.6715 34.1964Z" fill="#5784F7"/>
<path d="M45.4883 32.3301C45.4812 33.3628 44.6176 34.2065 43.5802 34.1966C42.5528 34.1853 41.6806 33.305 41.6963 32.2934C41.712 31.2733 42.5998 30.4099 43.6187 30.424C44.659 30.4381 45.4955 31.2903 45.4883 32.3301Z" fill="#5784F7"/>
<path d="M25.8659 32.2975C25.8701 31.2619 26.7266 30.4154 27.764 30.4239C28.7915 30.4324 29.6593 31.3071 29.6493 32.3243C29.6394 33.3486 28.7644 34.205 27.7369 34.1965C26.6981 34.188 25.8616 33.3387 25.8659 32.2975Z" fill="#5784F7"/>
</g>
<defs>
<clipPath id="clip0_18_572">
<rect width="53" height="53" fill="white"/>
</clipPath>
</defs>
</svg>
