<svg width="48" height="48" viewBox="0 0 48 48" fill="none" xmlns="http://www.w3.org/2000/svg">
<g clip-path="url(#clip0_18_558)">
<path d="M18.5859 12.6422C18.5859 9.76596 18.5859 6.9689 18.5859 4.17184C18.5872 1.66108 20.211 0 22.6681 0C29.7578 0 36.8475 0 43.9384 0C46.3335 0 47.9768 1.6756 47.9781 4.11511C47.9794 7.07709 47.9212 10.0417 47.9987 13.0011C48.0517 15.0421 46.9536 16.7731 44.8854 17.3325C44.8854 17.5172 44.8854 17.7138 44.8854 17.9091C44.8854 27.3888 44.866 36.8671 44.9047 46.3468C44.9112 47.8904 43.7783 49.004 42.3275 49C29.0822 48.9683 15.8368 48.9815 2.59147 48.9815C0.93661 48.9815 0.0206877 48.0474 0.0206877 46.3613C0.0193958 35.9937 0.0361899 25.6261 1.80559e-05 15.2585C-0.00514935 13.7623 1.09938 12.6052 2.59405 12.6211C7.71753 12.6752 12.8423 12.6422 17.9658 12.6422H18.5859ZM43.3416 20.5927C43.2512 20.5637 43.2228 20.5465 43.193 20.5465C39.6805 20.5439 36.1667 20.5386 32.6541 20.5518C32.512 20.5518 32.3195 20.7062 32.2394 20.8421C31.9126 21.4041 31.4708 21.8118 30.861 22.0123C29.8663 22.3382 28.9155 22.0216 28.1843 21.0532C27.8872 20.6587 27.572 20.528 27.094 20.5294C18.7784 20.5439 10.4627 20.5399 2.14707 20.5399H1.56445C1.56445 20.7906 1.56445 20.97 1.56445 21.1495C1.56445 29.4945 1.56445 37.8395 1.56445 46.1845C1.56445 47.1819 1.78277 47.4075 2.75166 47.4075C15.8859 47.4075 29.0202 47.4075 42.1557 47.4075C43.1233 47.4075 43.3429 47.1806 43.3429 46.1832C43.3429 37.8382 43.3429 29.4931 43.3429 21.1481C43.3429 20.9687 43.3429 20.7893 43.3429 20.594L43.3416 20.5927ZM30.9644 15.8021H31.5884C35.6964 15.8021 39.8045 15.8047 43.9113 15.8021C45.4447 15.8007 46.4304 14.8046 46.4343 13.2517C46.4395 10.2079 46.4408 7.16417 46.4343 4.12039C46.4317 2.58992 45.4473 1.5806 43.9527 1.57928C36.832 1.57533 29.7126 1.57533 22.5919 1.57928C21.1269 1.57928 20.1361 2.5952 20.1322 4.09136C20.1258 7.15097 20.1258 10.2119 20.1322 13.2715C20.1348 14.7941 21.1257 15.7928 22.6255 15.8008C23.5918 15.806 24.5594 15.7836 25.5244 15.8153C25.744 15.8232 26.0218 15.9498 26.1626 16.1187C27.2426 17.4038 28.2954 18.7139 29.356 20.0161C29.6338 20.3578 29.9244 20.6666 30.4192 20.4713C30.892 20.2853 30.9696 19.8842 30.9657 19.4264C30.9579 18.2429 30.9631 17.0594 30.9631 15.8008L30.9644 15.8021ZM1.56703 18.9211H26.4119C26.3086 18.7838 26.2285 18.7007 26.1742 18.6018C25.6187 17.599 24.8139 17.2178 23.6706 17.3536C22.933 17.442 22.1385 17.4104 21.4215 17.2217C19.9294 16.8299 19.0341 15.7546 18.6363 14.2175H18.0988C12.978 14.2175 7.85576 14.2175 2.73487 14.2175C2.60568 14.2175 2.4765 14.2096 2.3486 14.2215C1.89516 14.2637 1.57995 14.55 1.57349 15.0104C1.55411 16.3061 1.56703 17.603 1.56703 18.9197V18.9211ZM32.5314 18.9303H43.3041V17.4038H32.5314V18.9303Z" fill="#14317A"/>
<path d="M27.0773 38.6736V37.1808C25.934 37.0555 25.0607 36.5139 24.8618 35.365C24.7145 34.5081 24.73 33.5891 24.8618 32.7271C25.0233 31.6738 25.872 31.0689 27.0657 30.9358V29.4404C25.9366 29.3176 25.0607 28.7787 24.8618 27.6297C24.7132 26.7728 24.7261 25.8539 24.8605 24.9918C25.0284 23.9088 25.9935 23.2225 27.0851 23.2212C31.2112 23.2173 35.3361 23.216 39.4623 23.2212C40.7838 23.2225 41.776 24.2241 41.7876 25.5476C41.7915 25.934 41.7566 26.3243 41.7941 26.7082C41.9207 28.0045 41.1972 29.2453 39.4881 29.452V30.9009C39.7607 30.9707 40.0436 31.0159 40.3072 31.1128C41.1934 31.4411 41.7747 32.2864 41.7876 33.2363C41.7928 33.6551 41.7889 34.0751 41.7889 34.4939C41.7889 36.1081 41.0978 36.9236 39.4894 37.1899V38.6503C39.7129 38.6995 39.9454 38.7344 40.1689 38.8029C41.1223 39.0962 41.7747 39.9712 41.7876 40.9729C41.7941 41.5209 41.7954 42.0689 41.7876 42.6181C41.7695 43.8744 40.7632 44.8825 39.4997 44.8851C35.3581 44.8915 31.2164 44.8915 27.0747 44.8851C25.7855 44.8825 24.7882 43.8718 24.7752 42.582C24.7701 42.1309 24.7752 41.6785 24.7752 41.2275C24.7765 39.7412 25.5723 38.8468 27.0786 38.6749L27.0773 38.6736ZM33.2343 27.8623C35.2328 27.8623 37.2313 27.8649 39.2298 27.8623C39.9674 27.8623 40.2413 27.5793 40.2464 26.8336C40.249 26.4949 40.2477 26.1563 40.2464 25.8177C40.2426 25.0371 39.9777 24.7669 39.2052 24.7657C37.5129 24.7631 35.8206 24.7657 34.1282 24.7657C31.8714 24.7657 29.6158 24.7644 27.3589 24.7657C26.5877 24.7657 26.3216 25.0384 26.319 25.819C26.3177 26.1421 26.319 26.4639 26.319 26.787C26.3216 27.6 26.5812 27.8636 27.3848 27.8649C29.3355 27.8662 31.2849 27.8649 33.2356 27.8649L33.2343 27.8623ZM33.3312 32.5022C31.3327 32.5022 29.3342 32.5009 27.3357 32.5022C26.5955 32.5022 26.3242 32.7827 26.319 33.5297C26.3164 33.8683 26.3177 34.2069 26.319 34.5456C26.3229 35.3262 26.589 35.5976 27.3589 35.5989C29.0668 35.6015 30.7759 35.5989 32.4837 35.5989C34.7238 35.5989 36.9638 35.6002 39.2039 35.5989C39.9739 35.5989 40.2413 35.3236 40.2451 34.5456C40.2464 34.2237 40.2464 33.9006 40.2451 33.5775C40.2426 32.7646 39.9842 32.5009 39.1794 32.4996C37.2287 32.4983 35.2793 32.4996 33.3286 32.4996L33.3312 32.5022ZM33.2343 43.3406C35.2328 43.3406 37.2313 43.3432 39.2298 43.3406C39.9674 43.3406 40.2413 43.0576 40.2464 42.3118C40.249 41.9732 40.2477 41.6346 40.2464 41.296C40.2426 40.5153 39.9777 40.2452 39.2052 40.2439C37.5129 40.2413 35.8206 40.2439 34.1282 40.2439C31.8714 40.2439 29.6158 40.2426 27.3589 40.2439C26.5877 40.2439 26.3229 40.5166 26.319 41.2973C26.3177 41.6204 26.319 41.9422 26.319 42.2653C26.3216 43.0783 26.5812 43.3419 27.3848 43.3432C29.3355 43.3445 31.2849 43.3432 33.2356 43.3432L33.2343 43.3406ZM28.6676 29.4288V30.9254H37.8901V29.4288H28.6676ZM28.6676 37.1679V38.6646H37.8901V37.1679H28.6676Z" fill="#5784F7"/>
<path d="M13.2092 21.6712C17.8986 21.6764 21.6811 25.4904 21.6773 30.2104C21.6734 34.9239 17.8547 38.703 13.1046 38.694C8.42805 38.6849 4.65456 34.8567 4.66102 30.129C4.66748 25.4451 8.48748 21.6648 13.2092 21.6699V21.6712ZM8.82853 35.6244C11.0854 37.24 13.4417 37.6367 15.9363 36.5433C18.3301 35.4939 19.6672 33.594 20.0767 31.0156C19.9837 30.9871 19.9384 30.9613 19.8932 30.9613C17.8327 30.9574 15.7722 30.9548 13.7104 30.9613C13.5967 30.9613 13.4534 31.0143 13.3733 31.0944C11.876 32.5781 10.3865 34.0696 8.82853 35.6244ZM7.69428 34.4082C9.13341 32.9684 10.5506 31.5506 11.9251 30.1755C10.5454 28.7926 9.13082 27.3735 7.71754 25.9557C5.80689 28.0779 5.62991 31.9733 7.69558 34.4082H7.69428ZM17.4258 24.7434C15.3498 22.7478 11.0092 22.7478 8.9603 24.6994C10.3852 26.1224 11.8101 27.5479 13.2182 28.9541C14.585 27.5867 15.9931 26.178 17.4258 24.7434ZM20.0599 29.3858C19.9087 28.0598 19.4372 26.9095 18.6673 25.9582C17.4956 27.1305 16.3574 28.2691 15.2413 29.3858H20.0599Z" fill="#5784F7"/>
<path d="M23.2018 40.2793V41.7656H6.23206V40.2793H23.2018Z" fill="#5784F7"/>
<path d="M9.32458 44.8535V43.3672H23.2004V44.8535H9.32458Z" fill="#5784F7"/>
<path d="M7.72913 43.375V44.8626H3.1521V43.375H7.72913Z" fill="#5784F7"/>
<path d="M4.62888 41.7669H3.151V40.2793H4.62888V41.7669Z" fill="#5784F7"/>
<path d="M37.1874 4.65883H39.2711C39.7336 6.05338 40.1871 7.44275 40.6637 8.82437C40.7245 9.00015 40.9131 9.13197 41.0423 9.28448C41.1559 9.13197 41.3161 8.99627 41.3743 8.82437C41.8484 7.44146 42.3031 6.05209 42.7656 4.65754H44.8493V12.3489H43.3728V8.18074C43.3353 8.17298 43.2991 8.16523 43.2617 8.15618C43.0666 8.72615 42.8689 9.29611 42.6765 9.86737C42.3535 10.8289 42.3548 10.8354 41.3562 10.8264C40.7981 10.8212 40.1044 10.9853 39.722 10.7165C39.359 10.4619 39.3228 9.74201 39.1445 9.22503C39.0205 8.86702 38.8991 8.50773 38.6988 8.16006V12.3502H37.1874V4.65625V4.65883Z" fill="#5784F7"/>
<path d="M30.9818 12.3569H29.4419V4.64359C29.7184 4.64359 30.0013 4.64359 30.2829 4.64359C31.2001 4.64359 32.1186 4.66427 33.0358 4.63842C34.0448 4.60869 34.8367 4.9667 35.3224 5.86365C35.8198 6.78258 35.6699 7.66273 35.0356 8.5067C35.9851 9.65568 35.4568 11.027 35.6286 12.3452H34.0603C34.0603 11.6732 34.0628 11.0024 34.0603 10.3316C34.0577 9.55616 33.789 9.28862 33.0139 9.28604C32.386 9.28345 31.7582 9.28733 31.1303 9.28992C31.0993 9.28992 31.0683 9.30155 30.9844 9.31706V12.3595L30.9818 12.3569ZM30.9947 6.19064V7.73769C31.7672 7.73769 32.5075 7.75191 33.2451 7.73252C33.7231 7.7196 34.0667 7.35901 34.0512 6.94155C34.037 6.53572 33.7102 6.20744 33.249 6.19581C32.51 6.17642 31.7711 6.19064 30.9947 6.19064Z" fill="#5784F7"/>
<path d="M27.8501 7.71086H26.3503C26.3193 7.59584 26.2909 7.48727 26.2598 7.38C26.0415 6.62004 25.3659 6.12245 24.6515 6.19612C23.8648 6.27625 23.2679 6.89921 23.2305 7.71345C23.2085 8.19553 23.2188 8.68019 23.2253 9.16357C23.2369 10.0773 23.8066 10.7391 24.6489 10.8282C25.3891 10.9071 26.0622 10.3849 26.2883 9.55388C26.3089 9.47634 26.3257 9.39879 26.3464 9.3122H27.8294C27.9483 10.8127 26.5686 12.3016 25.0171 12.3766C23.109 12.467 21.6764 11.1074 21.6854 9.18812C21.6893 8.43463 21.6479 7.65916 21.8017 6.93152C22.1117 5.47106 23.5056 4.54955 25.0649 4.64778C26.4317 4.73437 27.668 5.91308 27.8488 7.30762C27.8643 7.4317 27.8514 7.55965 27.8514 7.71086H27.8501Z" fill="#5784F7"/>
<path d="M3.12268 16.9945V15.5186H4.62381V16.9945H3.12268Z" fill="#5784F7"/>
<path d="M6.23962 15.4902H7.71233V16.9895H6.23962V15.4902Z" fill="#5784F7"/>
<path d="M9.33752 15.5H10.8206V16.985H9.33752V15.5Z" fill="#5784F7"/>
</g>
<defs>
<clipPath id="clip0_18_558">
<rect width="48.0006" height="48" fill="white"/>
</clipPath>
</defs>
</svg>
