<svg width="30" height="30" viewBox="0 0 30 30" fill="none" xmlns="http://www.w3.org/2000/svg">
<path d="M28.5 2H25V0.5C25 0.2235 24.7765 0 24.5 0H21C20.7235 0 20.5 0.2235 20.5 0.5V2H9.5V0.5C9.5 0.2235 9.2765 0 9 0H5.5C5.2235 0 5 0.2235 5 0.5V2H1.5C1.2235 2 1 2.2235 1 2.5V8V29.5C1 29.7765 1.2235 30 1.5 30H28.5C28.7765 30 29 29.7765 29 29.5V8V2.5C29 2.2235 28.7765 2 28.5 2ZM21.5 1H24V2.5V4H21.5V2.5V1ZM6 1H8.5V2.5V4H6V2.5V1ZM2 3H5V4.5C5 4.7765 5.2235 5 5.5 5H9C9.2765 5 9.5 4.7765 9.5 4.5V3H20.5V4.5C20.5 4.7765 20.7235 5 21 5H24.5C24.7765 5 25 4.7765 25 4.5V3H28V7.5H2V3ZM2 29V8.5H28V29H2Z" fill="white"/>
<path d="M19 11.5H15.5H14.5H11H10H5.5V16V17V20.5V21.5V26H10H11H14.5H15.5H19H20H24.5V21.5V20.5V17V16V11.5H20H19ZM15.5 12.5H19V16H15.5V12.5ZM19 20.5H15.5V17H19V20.5ZM11 17H14.5V20.5H11V17ZM11 12.5H14.5V16H11V12.5ZM6.5 12.5H10V16H6.5V12.5ZM6.5 17H10V20.5H6.5V17ZM10 25H6.5V21.5H10V25ZM14.5 25H11V21.5H14.5V25ZM19 25H15.5V21.5H19V25ZM23.5 25H20V21.5H23.5V25ZM23.5 20.5H20V17H23.5V20.5ZM23.5 12.5V16H20V12.5H23.5Z" fill="white"/>
</svg>
