<svg width="20" height="20" viewBox="0 0 20 20" fill="none" xmlns="http://www.w3.org/2000/svg">
<path d="M19 1.33333H16.6667V0.333333C16.6667 0.149 16.5177 0 16.3333 0H14C13.8157 0 13.6667 0.149 13.6667 0.333333V1.33333H6.33332V0.333333C6.33332 0.149 6.18432 0 5.99999 0H3.66666C3.48232 0 3.33332 0.149 3.33332 0.333333V1.33333H0.99999C0.815656 1.33333 0.666656 1.48233 0.666656 1.66667V5.33333V19.6667C0.666656 19.851 0.815656 20 0.99999 20H19C19.1843 20 19.3333 19.851 19.3333 19.6667V5.33333V1.66667C19.3333 1.48233 19.1843 1.33333 19 1.33333ZM14.3333 0.666667H16V1.66667V2.66667H14.3333V1.66667V0.666667ZM3.99999 0.666667H5.66666V1.66667V2.66667H3.99999V1.66667V0.666667ZM1.33332 2H3.33332V3C3.33332 3.18433 3.48232 3.33333 3.66666 3.33333H5.99999C6.18432 3.33333 6.33332 3.18433 6.33332 3V2H13.6667V3C13.6667 3.18433 13.8157 3.33333 14 3.33333H16.3333C16.5177 3.33333 16.6667 3.18433 16.6667 3V2H18.6667V5H1.33332V2ZM1.33332 19.3333V5.66667H18.6667V19.3333H1.33332Z" fill="white"/>
<path d="M12.6667 7.66666H10.3333H9.66666H7.33332H6.66666H3.66666V10.6667V11.3333V13.6667V14.3333V17.3333H6.66666H7.33332H9.66666H10.3333H12.6667H13.3333H16.3333V14.3333V13.6667V11.3333V10.6667V7.66666H13.3333H12.6667ZM10.3333 8.33332H12.6667V10.6667H10.3333V8.33332ZM12.6667 13.6667H10.3333V11.3333H12.6667V13.6667ZM7.33332 11.3333H9.66666V13.6667H7.33332V11.3333ZM7.33332 8.33332H9.66666V10.6667H7.33332V8.33332ZM4.33332 8.33332H6.66666V10.6667H4.33332V8.33332ZM4.33332 11.3333H6.66666V13.6667H4.33332V11.3333ZM6.66666 16.6667H4.33332V14.3333H6.66666V16.6667ZM9.66666 16.6667H7.33332V14.3333H9.66666V16.6667ZM12.6667 16.6667H10.3333V14.3333H12.6667V16.6667ZM15.6667 16.6667H13.3333V14.3333H15.6667V16.6667ZM15.6667 13.6667H13.3333V11.3333H15.6667V13.6667ZM15.6667 8.33332V10.6667H13.3333V8.33332H15.6667Z" fill="white"/>
</svg>
