<svg xmlns="http://www.w3.org/2000/svg" xmlns:xlink="http://www.w3.org/1999/xlink" width="500" zoomAndPan="magnify" viewBox="0 0 375 374.999991" height="500" preserveAspectRatio="xMidYMid meet" version="1.0"><defs><clipPath id="id1"><path d="M 1 6 L 374 6 L 374 369.890625 L 1 369.890625 Z M 1 6 " clip-rule="nonzero"/></clipPath></defs><path fill="#263151" d="M 99.269531 50.371094 C 98.65625 49.925781 97.992188 49.570312 97.28125 49.300781 C 96.570312 49.03125 95.835938 48.855469 95.082031 48.78125 C 94.324219 48.707031 93.570312 48.730469 92.824219 48.859375 C 92.074219 48.984375 91.351562 49.203125 90.660156 49.519531 C 89.332031 50.089844 87.964844 50.683594 86.5625 51.300781 C 80.917969 53.773438 75.085938 56.332031 69.730469 59.878906 C 63.570312 63.945312 58.246094 69.050781 53.507812 73.5625 C 52.980469 74.042969 52.523438 74.585938 52.140625 75.1875 C 51.757812 75.792969 51.460938 76.433594 51.253906 77.117188 C 51.042969 77.800781 50.925781 78.5 50.90625 79.214844 C 50.886719 79.929688 50.960938 80.632812 51.128906 81.328125 C 51.320312 82.074219 51.601562 82.785156 51.976562 83.457031 C 52.351562 84.128906 52.804688 84.746094 53.335938 85.300781 C 53.871094 85.859375 54.464844 86.335938 55.121094 86.738281 C 55.777344 87.140625 56.476562 87.453125 57.214844 87.675781 C 57.914062 87.882812 58.628906 87.992188 59.359375 88.007812 C 60.089844 88.023438 60.808594 87.941406 61.519531 87.765625 C 62.226562 87.589844 62.902344 87.320312 63.539062 86.964844 C 64.175781 86.605469 64.753906 86.171875 65.273438 85.660156 L 65.625 85.324219 C 70.453125 80.757812 75.015625 76.378906 80.347656 73.144531 C 84.78125 70.582031 89.363281 68.316406 94.089844 66.355469 C 95.511719 65.730469 96.929688 65.117188 98.335938 64.484375 C 98.96875 64.21875 99.558594 63.878906 100.101562 63.453125 C 100.640625 63.03125 101.117188 62.542969 101.527344 61.992188 C 101.9375 61.4375 102.265625 60.84375 102.515625 60.199219 C 102.761719 59.558594 102.921875 58.898438 102.988281 58.210938 C 103.039062 57.453125 102.996094 56.703125 102.851562 55.957031 C 102.710938 55.210938 102.476562 54.492188 102.152344 53.808594 C 101.828125 53.121094 101.417969 52.488281 100.929688 51.90625 C 100.441406 51.324219 99.890625 50.8125 99.269531 50.371094 Z M 99.269531 50.371094 " fill-opacity="1" fill-rule="nonzero"/><path fill="#263151" d="M 28.265625 73.570312 C 28.945312 73.671875 29.621094 73.683594 30.300781 73.597656 C 30.980469 73.515625 31.636719 73.339844 32.265625 73.078125 C 32.898438 72.8125 33.484375 72.46875 34.019531 72.046875 C 34.558594 71.621094 35.027344 71.132812 35.429688 70.582031 C 39.40625 65.503906 43.765625 60.789062 48.515625 56.433594 C 53.265625 52.074219 58.339844 48.136719 63.734375 44.617188 C 69.132812 41.097656 74.78125 38.039062 80.683594 35.453125 C 86.582031 32.863281 92.652344 30.773438 98.898438 29.183594 C 99.597656 29.023438 100.257812 28.769531 100.890625 28.429688 C 101.519531 28.089844 102.09375 27.671875 102.609375 27.175781 C 103.128906 26.679688 103.570312 26.125 103.9375 25.507812 C 104.304688 24.894531 104.585938 24.242188 104.777344 23.550781 C 104.976562 22.804688 105.078125 22.046875 105.082031 21.277344 C 105.082031 20.503906 104.988281 19.746094 104.796875 19 C 104.601562 18.25 104.316406 17.542969 103.941406 16.867188 C 103.5625 16.195312 103.105469 15.582031 102.570312 15.027344 C 102.0625 14.503906 101.492188 14.0625 100.867188 13.691406 C 100.238281 13.324219 99.574219 13.042969 98.871094 12.851562 C 98.167969 12.660156 97.453125 12.566406 96.722656 12.566406 C 95.996094 12.5625 95.28125 12.660156 94.578125 12.847656 C 87.535156 14.660156 80.683594 17.023438 74.023438 19.949219 C 67.367188 22.871094 60.984375 26.308594 54.882812 30.269531 C 48.78125 34.226562 43.039062 38.652344 37.65625 43.542969 C 32.273438 48.433594 27.316406 53.726562 22.792969 59.421875 C 22.316406 60.019531 21.925781 60.671875 21.621094 61.371094 C 21.316406 62.074219 21.109375 62.804688 20.996094 63.558594 C 20.886719 64.316406 20.878906 65.074219 20.96875 65.835938 C 21.0625 66.59375 21.25 67.328125 21.535156 68.039062 C 21.8125 68.75 22.171875 69.417969 22.617188 70.035156 C 23.066406 70.65625 23.582031 71.207031 24.171875 71.691406 C 24.761719 72.175781 25.40625 72.578125 26.097656 72.898438 C 26.792969 73.214844 27.515625 73.441406 28.265625 73.570312 Z M 28.265625 73.570312 " fill-opacity="1" fill-rule="nonzero"/><g clip-path="url(#id1)"><path fill="#263151" d="M 356.109375 150.011719 C 356.984375 145.902344 358.117188 141.746094 359.210938 137.703125 L 359.441406 136.851562 C 361.75 136.238281 363.886719 135.253906 365.851562 133.898438 C 367.816406 132.539062 369.496094 130.890625 370.886719 128.949219 C 374.378906 124.171875 374.828125 117.960938 372.113281 112.265625 C 371.882812 111.605469 371.578125 110.980469 371.191406 110.394531 C 370.675781 109.617188 370.101562 108.882812 369.472656 108.195312 C 367.730469 106.121094 365.625 104.527344 363.152344 103.421875 C 362.484375 103.128906 361.789062 102.925781 361.070312 102.8125 C 359.660156 102.378906 358.214844 102.132812 356.742188 102.074219 C 355.269531 102.019531 353.8125 102.152344 352.371094 102.476562 C 350.933594 102.804688 349.558594 103.308594 348.253906 103.992188 C 346.945312 104.679688 345.75 105.519531 344.664062 106.519531 C 343.664062 107.453125 342.777344 108.480469 342 109.609375 C 341.226562 110.734375 340.582031 111.933594 340.066406 113.199219 C 339.554688 114.464844 339.183594 115.773438 338.957031 117.125 C 338.726562 118.472656 338.648438 119.828125 338.714844 121.195312 C 338.800781 123.226562 339.230469 125.183594 340.003906 127.066406 C 340.78125 128.945312 341.859375 130.632812 343.234375 132.132812 L 343.011719 132.945312 C 342.375 135.3125 341.71875 137.726562 341.105469 140.167969 L 340.488281 140.046875 C 337.675781 139.515625 334.886719 139.617188 332.121094 140.351562 C 326.714844 128.273438 318.234375 116.589844 306.941406 105.59375 C 306.6875 105.320312 306.421875 105.066406 306.136719 104.832031 C 300.773438 99.714844 295.101562 94.976562 289.113281 90.613281 C 262.929688 71.484375 230.773438 60.417969 195.820312 58.472656 C 195.875 56.625 195.902344 54.757812 195.902344 52.875 C 196.984375 52.472656 198.035156 52 199.050781 51.453125 C 210.085938 45.515625 214.195312 30.652344 208.019531 18.992188 C 207.199219 17.46875 206.222656 16.046875 205.101562 14.730469 C 203.976562 13.410156 202.722656 12.226562 201.347656 11.175781 C 199.96875 10.128906 198.496094 9.234375 196.929688 8.5 C 195.363281 7.765625 193.734375 7.203125 192.046875 6.8125 C 190.546875 6.457031 189.023438 6.265625 187.480469 6.242188 C 185.9375 6.21875 184.410156 6.363281 182.898438 6.671875 C 181.386719 6.984375 179.929688 7.460938 178.523438 8.09375 C 177.113281 8.726562 175.792969 9.503906 174.554688 10.429688 L 174.328125 10.613281 C 173.203125 11.421875 172.148438 12.320312 171.171875 13.304688 C 170.195312 14.289062 169.308594 15.347656 168.507812 16.480469 C 167.707031 17.613281 167.003906 18.804688 166.402344 20.054688 C 165.800781 21.304688 165.304688 22.597656 164.917969 23.929688 C 164.527344 25.261719 164.253906 26.617188 164.09375 27.996094 C 163.929688 29.371094 163.882812 30.753906 163.949219 32.140625 C 164.015625 33.527344 164.199219 34.898438 164.496094 36.253906 C 164.789062 37.609375 165.195312 38.929688 165.710938 40.21875 C 166.300781 41.699219 167.039062 43.101562 167.929688 44.425781 C 168.816406 45.746094 169.835938 46.960938 170.984375 48.066406 C 172.128906 49.171875 173.382812 50.140625 174.738281 50.980469 C 176.089844 51.816406 177.519531 52.503906 179.019531 53.035156 C 179.050781 54.847656 179.03125 56.671875 178.96875 58.507812 C 144.148438 60.511719 112.09375 71.578125 86.03125 90.636719 C 80.050781 94.992188 74.386719 99.726562 69.03125 104.832031 C 68.714844 105.070312 68.414062 105.335938 68.132812 105.621094 C 56.839844 116.589844 48.398438 128.257812 43.035156 140.3125 C 42.125 140.082031 41.203125 139.917969 40.269531 139.820312 C 38.164062 139.59375 36.078125 139.707031 34.007812 140.167969 C 33.394531 137.742188 32.746094 135.335938 32.109375 132.976562 L 31.878906 132.140625 C 33.25 130.671875 34.324219 129.011719 35.097656 127.160156 C 35.871094 125.304688 36.300781 123.375 36.382812 121.371094 C 36.457031 119.996094 36.378906 118.628906 36.15625 117.273438 C 35.933594 115.914062 35.570312 114.59375 35.058594 113.316406 C 34.550781 112.039062 33.910156 110.828125 33.140625 109.691406 C 32.371094 108.550781 31.484375 107.507812 30.488281 106.558594 C 29.40625 105.542969 28.214844 104.683594 26.902344 103.988281 C 25.59375 103.292969 24.21875 102.777344 22.773438 102.449219 C 21.324219 102.121094 19.863281 101.984375 18.378906 102.046875 C 16.898438 102.109375 15.453125 102.363281 14.039062 102.8125 C 13.324219 102.925781 12.636719 103.125 11.976562 103.414062 C 9.46875 104.519531 7.335938 106.121094 5.574219 108.21875 C 4.957031 108.894531 4.398438 109.613281 3.890625 110.371094 C 3.503906 110.960938 3.195312 111.585938 2.964844 112.25 C 0.25 117.953125 0.683594 124.164062 4.1875 128.933594 C 5.582031 130.882812 7.261719 132.535156 9.230469 133.894531 C 11.203125 135.257812 13.34375 136.242188 15.65625 136.851562 L 15.886719 137.703125 C 16.988281 141.746094 18.113281 145.910156 18.988281 150.027344 C 18.683594 150.382812 18.386719 150.75 18.105469 151.113281 C 6.699219 165.820312 3.800781 185.363281 3.382812 199.179688 C 3.054688 209.65625 4.28125 219.945312 7.0625 230.050781 C 10.105469 241.078125 14.023438 253.308594 21.949219 258.867188 C 23.195312 259.75 24.523438 260.496094 25.925781 261.109375 C 27.324219 261.722656 28.773438 262.191406 30.269531 262.507812 C 31.765625 262.828125 33.28125 262.992188 34.808594 263.003906 C 36.339844 263.015625 37.855469 262.871094 39.355469 262.574219 C 43.394531 277.796875 51.402344 293.6875 62.71875 308.820312 C 66.898438 314.457031 71.449219 319.777344 76.371094 324.78125 C 81.292969 329.785156 86.535156 334.421875 92.101562 338.691406 C 97.671875 342.964844 103.507812 346.828125 109.613281 350.285156 C 115.71875 353.742188 122.03125 356.757812 128.558594 359.332031 C 146.171875 366.183594 165.917969 369.761719 187.265625 369.882812 L 187.878906 369.882812 C 223 369.683594 255.050781 359.578125 280.558594 340.65625 C 285.648438 336.886719 290.484375 332.820312 295.070312 328.453125 C 299.660156 324.089844 303.960938 319.457031 307.972656 314.558594 C 311.988281 309.660156 315.6875 304.535156 319.070312 299.179688 C 322.453125 293.824219 325.492188 288.28125 328.191406 282.550781 C 331.253906 276.121094 333.757812 269.476562 335.695312 262.617188 C 339.160156 263.285156 342.601562 263.191406 346.023438 262.335938 C 357.523438 259.070312 361.738281 247.875 365.128906 238.917969 L 365.410156 238.15625 C 369.167969 228.089844 371.257812 217.6875 371.679688 206.949219 C 372.550781 187.160156 368.378906 168.824219 359.921875 155.285156 C 358.769531 153.441406 357.5 151.683594 356.109375 150.011719 Z M 356.109375 150.011719 " fill-opacity="1" fill-rule="nonzero"/></g><path fill="#263151" d="M 288.519531 51.308594 C 287.144531 50.707031 285.777344 50.105469 284.414062 49.488281 C 283.886719 49.25 283.339844 49.066406 282.773438 48.9375 C 282.207031 48.808594 281.632812 48.738281 281.054688 48.722656 C 280.472656 48.707031 279.898438 48.75 279.328125 48.847656 C 278.753906 48.949219 278.199219 49.105469 277.65625 49.316406 C 277.117188 49.527344 276.601562 49.789062 276.113281 50.101562 C 275.625 50.414062 275.171875 50.773438 274.757812 51.175781 C 274.339844 51.582031 273.964844 52.023438 273.636719 52.5 C 273.308594 52.980469 273.03125 53.484375 272.800781 54.019531 C 272.574219 54.492188 272.398438 54.980469 272.269531 55.488281 C 272.140625 55.996094 272.066406 56.511719 272.042969 57.035156 C 272.019531 57.558594 272.046875 58.078125 272.128906 58.597656 C 272.210938 59.113281 272.34375 59.617188 272.53125 60.109375 C 272.714844 60.597656 272.945312 61.066406 273.222656 61.511719 C 273.503906 61.953125 273.824219 62.363281 274.183594 62.742188 C 274.546875 63.121094 274.941406 63.460938 275.371094 63.757812 C 275.804688 64.054688 276.257812 64.308594 276.742188 64.515625 L 281.007812 66.402344 C 285.71875 68.339844 290.28125 70.585938 294.695312 73.128906 C 300.019531 76.378906 304.582031 80.742188 309.445312 85.355469 L 309.769531 85.660156 C 310.542969 86.410156 311.425781 86.992188 312.421875 87.402344 C 313.421875 87.8125 314.457031 88.023438 315.535156 88.03125 C 316.71875 88.019531 317.851562 87.773438 318.933594 87.289062 C 320.011719 86.808594 320.953125 86.132812 321.757812 85.261719 C 322.144531 84.878906 322.492188 84.457031 322.792969 84.003906 C 323.097656 83.546875 323.351562 83.066406 323.554688 82.558594 C 323.761719 82.054688 323.914062 81.53125 324.015625 80.992188 C 324.113281 80.457031 324.160156 79.914062 324.148438 79.367188 C 324.140625 78.820312 324.074219 78.28125 323.957031 77.746094 C 323.835938 77.214844 323.664062 76.699219 323.441406 76.199219 C 323.214844 75.699219 322.945312 75.230469 322.625 74.785156 C 322.304688 74.339844 321.945312 73.933594 321.542969 73.5625 C 316.8125 69.050781 311.453125 63.9375 305.3125 59.863281 C 299.992188 56.339844 294.164062 53.78125 288.519531 51.308594 Z M 288.519531 51.308594 " fill-opacity="1" fill-rule="nonzero"/><path fill="#263151" d="M 276.179688 29.183594 C 282.421875 30.773438 288.492188 32.863281 294.394531 35.453125 C 300.292969 38.039062 305.941406 41.097656 311.339844 44.617188 C 316.738281 48.136719 321.8125 52.074219 326.558594 56.433594 C 331.308594 60.789062 335.671875 65.503906 339.644531 70.582031 C 340.046875 71.132812 340.519531 71.621094 341.054688 72.046875 C 341.59375 72.46875 342.175781 72.8125 342.808594 73.078125 C 343.441406 73.339844 344.097656 73.515625 344.773438 73.597656 C 345.453125 73.683594 346.132812 73.671875 346.808594 73.570312 C 347.5625 73.441406 348.285156 73.214844 348.976562 72.898438 C 349.671875 72.578125 350.3125 72.175781 350.902344 71.691406 C 351.492188 71.207031 352.011719 70.65625 352.457031 70.035156 C 352.902344 69.417969 353.265625 68.75 353.539062 68.039062 C 353.824219 67.328125 354.015625 66.59375 354.105469 65.835938 C 354.199219 65.074219 354.1875 64.316406 354.078125 63.558594 C 353.96875 62.804688 353.761719 62.074219 353.457031 61.371094 C 353.152344 60.671875 352.761719 60.019531 352.285156 59.421875 C 347.757812 53.726562 342.804688 48.433594 337.421875 43.542969 C 332.035156 38.652344 326.292969 34.226562 320.191406 30.269531 C 314.089844 26.308594 307.710938 22.871094 301.050781 19.949219 C 294.390625 17.023438 287.539062 14.660156 280.496094 12.847656 C 279.796875 12.660156 279.078125 12.566406 278.351562 12.566406 C 277.625 12.566406 276.910156 12.660156 276.207031 12.851562 C 275.503906 13.042969 274.839844 13.324219 274.210938 13.691406 C 273.582031 14.0625 273.015625 14.507812 272.503906 15.027344 C 271.96875 15.582031 271.511719 16.195312 271.136719 16.867188 C 270.761719 17.542969 270.476562 18.25 270.28125 19 C 270.089844 19.746094 269.992188 20.503906 269.996094 21.277344 C 270 22.046875 270.101562 22.804688 270.300781 23.550781 C 270.492188 24.242188 270.769531 24.894531 271.136719 25.507812 C 271.503906 26.125 271.949219 26.679688 272.464844 27.175781 C 272.984375 27.671875 273.554688 28.089844 274.1875 28.429688 C 274.816406 28.769531 275.480469 29.023438 276.179688 29.183594 Z M 276.179688 29.183594 " fill-opacity="1" fill-rule="nonzero"/><path fill="#ffffff" d="M 328.5625 229.792969 C 326.480469 216.777344 325.027344 203.875 325.292969 190.667969 C 325.535156 178.636719 328.335938 166.703125 328.296875 154.714844 C 328.238281 136.925781 316.539062 122.429688 302.035156 113.363281 C 301.84375 113.238281 301.664062 113.253906 301.496094 113.410156 L 297.261719 107.835938 C 297.570312 107.554688 297.488281 106.925781 296.984375 106.984375 C 289.851562 107.867188 284.648438 112.152344 279.859375 117.246094 C 272.929688 124.613281 266.550781 132.550781 260.351562 140.535156 C 248.226562 156.136719 237.117188 172.5 226.265625 189.003906 C 216.796875 203.402344 202.6875 219.683594 202.855469 237.890625 C 202.960938 250.175781 208.527344 262.132812 215.144531 273.007812 C 206.238281 273.640625 197.273438 274.980469 188.414062 275.609375 C 187.902344 275.609375 187.402344 275.566406 186.890625 275.527344 C 179.597656 274.964844 172.351562 273.929688 165.0625 273.242188 C 163.777344 273.128906 162.480469 273.023438 161.1875 272.9375 C 165.355469 265.992188 168.679688 258.660156 171.164062 250.941406 C 172.246094 247.53125 172.859375 244.039062 173.007812 240.464844 C 173.15625 236.886719 172.832031 233.355469 172.039062 229.867188 C 171.976562 229.601562 171.910156 229.335938 171.847656 229.070312 L 171.644531 228.261719 C 171.574219 227.980469 171.5 227.707031 171.421875 227.433594 C 169.035156 218.945312 164.289062 210.976562 159.003906 202.839844 C 146.324219 183.339844 133.578125 163.847656 119.523438 145.292969 C 113.082031 136.78125 106.382812 128.464844 99.292969 120.480469 C 93.734375 114.214844 87.886719 108.035156 79.222656 106.953125 C 78.722656 106.894531 78.636719 107.523438 78.949219 107.808594 L 74.714844 113.378906 C 74.546875 113.222656 74.371094 113.207031 74.179688 113.332031 C 61.488281 121.261719 50.476562 133.511719 48.324219 148.824219 C 46.921875 158.648438 49.464844 168.613281 50.300781 178.410156 C 51.203125 189.011719 51.203125 199.617188 50.300781 210.222656 C 49.378906 221.015625 46.695312 231.609375 46.078125 242.417969 C 45.554688 251.660156 47.601562 260.402344 50.679688 269.058594 C 52.835938 274.988281 55.378906 280.746094 58.316406 286.328125 C 61.25 291.914062 64.550781 297.273438 68.214844 302.40625 C 71.875 307.542969 75.867188 312.40625 80.191406 317 C 84.515625 321.59375 89.128906 325.875 94.03125 329.839844 C 96.964844 332.210938 100.007812 334.453125 103.15625 336.570312 C 104.554688 337.519531 106.695312 339.550781 108.664062 339.15625 C 108.746094 339.136719 108.828125 339.117188 108.90625 339.089844 C 110.703125 340.746094 113.363281 341.621094 115.570312 342.734375 C 121.476562 345.726562 127.441406 348.609375 133.554688 351.167969 C 144.777344 355.960938 156.441406 359.144531 168.539062 360.71875 C 175.140625 361.519531 181.761719 361.792969 188.40625 361.535156 C 191.371094 361.640625 194.339844 361.640625 197.3125 361.535156 C 211.5 360.976562 225.207031 358.101562 238.425781 352.910156 C 244.980469 350.375 251.355469 347.40625 257.667969 344.285156 C 260.707031 342.765625 265.417969 341.46875 267.851562 338.699219 C 269.042969 338.820312 270.453125 338.371094 272.351562 337.125 C 279.199219 332.597656 285.558594 327.472656 291.433594 321.742188 C 297.5625 315.816406 303.105469 309.386719 308.058594 302.445312 C 313.015625 295.507812 317.296875 288.175781 320.914062 280.453125 C 324.457031 272.839844 327.566406 264.816406 329.277344 256.582031 C 330.988281 247.648438 329.992188 238.734375 328.5625 229.792969 Z M 281.160156 330.078125 C 278.925781 332.078125 276.523438 333.851562 273.957031 335.402344 C 276.421875 333.726562 278.820312 331.949219 281.160156 330.078125 Z M 113.082031 340.992188 L 117.023438 342.992188 C 115.683594 342.367188 114.328125 341.699219 113.105469 340.992188 Z M 113.082031 340.992188 " fill-opacity="1" fill-rule="nonzero"/><path fill="#415584" d="M 49.828125 193.90625 C 49.570312 185.421875 49.316406 176.929688 49.066406 168.429688 C 48.839844 160.957031 47.941406 152.242188 41.597656 148.28125 L 43.28125 147.894531 C 34.152344 148.710938 26.328125 155.164062 21.703125 163.042969 C 17.078125 170.917969 15.222656 180.082031 13.953125 189.125 C 12.152344 201.867188 11.390625 215.09375 15.164062 227.394531 C 16.621094 231.808594 18.394531 236.089844 20.488281 240.242188 C 23.269531 246.054688 27.277344 252.5625 33.707031 253.105469 C 38.148438 253.476562 42.382812 250.625 44.808594 246.886719 C 47.234375 243.148438 48.164062 238.644531 48.785156 234.230469 C 50.640625 220.902344 50.230469 207.367188 49.828125 193.90625 Z M 49.828125 193.90625 " fill-opacity="1" fill-rule="nonzero"/><path fill="#415584" d="M 360.476562 189.125 C 359.199219 180.082031 357.34375 170.910156 352.71875 163.042969 C 348.09375 155.171875 340.238281 148.710938 331.148438 147.894531 L 332.824219 148.28125 C 326.480469 152.242188 325.582031 160.957031 325.355469 168.429688 C 325.105469 176.925781 324.851562 185.414062 324.59375 193.90625 C 324.191406 207.367188 323.789062 220.902344 325.679688 234.242188 C 326.304688 238.660156 327.203125 243.164062 329.660156 246.902344 C 332.113281 250.636719 336.328125 253.492188 340.761719 253.121094 C 347.1875 252.578125 351.195312 246.070312 353.980469 240.257812 C 356.074219 236.105469 357.847656 231.824219 359.304688 227.410156 C 363.03125 215.09375 362.269531 201.835938 360.476562 189.125 Z M 360.476562 189.125 " fill-opacity="1" fill-rule="nonzero"/><path fill="#ff6724" d="M 28.261719 117.640625 C 26.785156 112.859375 21.863281 110.3125 17.101562 111.09375 C 16.78125 111.128906 16.496094 111.246094 16.25 111.457031 C 16.003906 111.664062 15.835938 111.925781 15.75 112.238281 L 15.605469 112.238281 C 9.476562 111.6875 9.316406 119.316406 10.875 123.378906 C 12.675781 128.082031 17.484375 130.921875 22.402344 129.050781 C 26.792969 127.34375 29.683594 122.230469 28.261719 117.640625 Z M 28.261719 117.640625 " fill-opacity="1" fill-rule="nonzero"/><path fill="#ff6724" d="M 365.230469 117.640625 C 363.753906 112.859375 358.832031 110.3125 354.070312 111.09375 C 353.75 111.128906 353.464844 111.246094 353.21875 111.457031 C 352.972656 111.664062 352.804688 111.925781 352.71875 112.238281 L 352.574219 112.238281 C 346.445312 111.6875 346.285156 119.316406 347.84375 123.378906 C 349.644531 128.082031 354.453125 130.921875 359.363281 129.050781 C 363.761719 127.34375 366.652344 122.230469 365.230469 117.640625 Z M 365.230469 117.640625 " fill-opacity="1" fill-rule="nonzero"/><path fill="#ff6724" d="M 186.015625 13.839844 C 185.902344 12.507812 184.578125 11.3125 183.203125 12.316406 C 176.359375 17.148438 172.054688 25.171875 173.171875 33.6875 C 173.222656 34.171875 173.304688 34.652344 173.410156 35.128906 C 173.511719 35.601562 173.644531 36.070312 173.800781 36.53125 C 173.957031 36.992188 174.136719 37.441406 174.34375 37.882812 C 174.546875 38.324219 174.777344 38.753906 175.027344 39.171875 C 175.28125 39.585938 175.554688 39.988281 175.847656 40.375 C 176.144531 40.761719 176.460938 41.128906 176.796875 41.480469 C 177.132812 41.832031 177.484375 42.167969 177.855469 42.480469 C 178.230469 42.792969 178.617188 43.085938 179.019531 43.355469 C 179.425781 43.628906 179.839844 43.875 180.273438 44.101562 C 180.703125 44.328125 181.144531 44.527344 181.597656 44.707031 C 182.050781 44.882812 182.511719 45.035156 182.980469 45.164062 C 183.449219 45.289062 183.925781 45.390625 184.40625 45.464844 C 184.886719 45.542969 185.367188 45.589844 185.855469 45.613281 C 186.339844 45.636719 186.824219 45.632812 187.3125 45.601562 C 187.796875 45.570312 188.277344 45.515625 188.757812 45.433594 C 189.238281 45.347656 189.710938 45.242188 190.175781 45.105469 C 207.257812 40.546875 204.886719 11.105469 186.015625 13.839844 Z M 186.015625 13.839844 " fill-opacity="1" fill-rule="nonzero"/><path fill="#b3b3b3" d="M 111.011719 284.691406 C 101.886719 297.011719 92.933594 309.503906 88.199219 324.269531 C 87.4375 326.667969 91.195312 327.695312 91.953125 325.3125 C 96.578125 310.851562 105.421875 298.671875 114.367188 286.648438 C 115.875 284.644531 112.488281 282.695312 111.011719 284.691406 Z M 111.011719 284.691406 " fill-opacity="1" fill-rule="nonzero"/><path fill="#b3b3b3" d="M 51.023438 189.695312 C 53.714844 184.839844 56.464844 180.019531 59.273438 175.234375 C 60.949219 172.402344 61.777344 170.097656 65.238281 169.253906 C 68.097656 168.558594 71.414062 168.613281 74.363281 168.308594 C 76.828125 168.050781 76.859375 164.152344 74.363281 164.410156 C 69.722656 164.890625 62.195312 163.953125 59.0625 168.042969 C 54.582031 173.941406 51.25 181.269531 47.652344 187.730469 C 46.445312 189.925781 49.804688 191.886719 51.023438 189.695312 Z M 51.023438 189.695312 " fill-opacity="1" fill-rule="nonzero"/><path fill="#b3b3b3" d="M 63.777344 272.40625 C 67.390625 269.972656 70.941406 267.246094 74.933594 265.464844 C 79.496094 263.417969 84.152344 263.617188 89.0625 264.066406 C 91.558594 264.292969 91.542969 260.394531 89.0625 260.167969 C 78.273438 259.179688 71.945312 262.320312 63.496094 267.914062 C 57.984375 257.75 54.5 246.933594 53.039062 235.460938 C 52.734375 233.011719 48.832031 232.980469 49.144531 235.460938 C 49.933594 241.835938 51.332031 248.074219 53.34375 254.171875 C 55.359375 260.273438 57.945312 266.117188 61.105469 271.707031 C 61.238281 271.929688 61.410156 272.117188 61.613281 272.269531 C 61.820312 272.425781 62.050781 272.535156 62.300781 272.601562 C 62.546875 272.667969 62.800781 272.683594 63.058594 272.648438 C 63.3125 272.617188 63.550781 272.535156 63.777344 272.40625 Z M 63.777344 272.40625 " fill-opacity="1" fill-rule="nonzero"/><path fill="#b3b3b3" d="M 263.726562 284.691406 C 262.253906 282.695312 258.867188 284.636719 260.367188 286.65625 C 269.308594 298.695312 278.15625 310.875 282.78125 325.320312 C 283.539062 327.695312 287.304688 326.683594 286.535156 324.277344 C 281.84375 309.503906 272.886719 297.011719 263.726562 284.691406 Z M 263.726562 284.691406 " fill-opacity="1" fill-rule="nonzero"/><path fill="#b3b3b3" d="M 327.074219 187.722656 C 323.492188 181.253906 320.167969 173.933594 315.664062 168.035156 C 312.5625 163.953125 304.964844 164.875 300.363281 164.402344 C 297.875 164.144531 297.890625 168.042969 300.363281 168.300781 C 303.070312 168.582031 305.898438 168.636719 308.570312 169.152344 C 312.660156 169.914062 313.46875 171.871094 315.414062 175.242188 C 318.226562 180.023438 320.976562 184.84375 323.664062 189.703125 C 324.929688 191.886719 328.296875 189.925781 327.074219 187.722656 Z M 327.074219 187.722656 " fill-opacity="1" fill-rule="nonzero"/><path fill="#b3b3b3" d="M 321.695312 235.460938 C 320.238281 246.933594 316.753906 257.75 311.246094 267.914062 C 302.789062 262.320312 296.460938 259.179688 285.675781 260.167969 C 283.199219 260.394531 283.175781 264.292969 285.675781 264.066406 C 290.574219 263.617188 295.214844 263.402344 299.800781 265.464844 C 303.792969 267.261719 307.351562 269.972656 310.964844 272.40625 C 311.1875 272.535156 311.425781 272.617188 311.683594 272.652344 C 311.9375 272.6875 312.191406 272.671875 312.441406 272.605469 C 312.6875 272.539062 312.917969 272.429688 313.121094 272.273438 C 313.328125 272.117188 313.496094 271.929688 313.625 271.707031 C 316.789062 266.117188 319.378906 260.273438 321.390625 254.171875 C 323.40625 248.074219 324.804688 241.835938 325.589844 235.460938 C 325.910156 232.980469 322.007812 233.042969 321.695312 235.460938 Z M 321.695312 235.460938 " fill-opacity="1" fill-rule="nonzero"/><path fill="#b3b3b3" d="M 211.875 334.269531 C 211.796875 334.027344 211.675781 333.808594 211.515625 333.609375 C 211.355469 333.414062 211.164062 333.25 210.941406 333.125 C 210.71875 333 210.480469 332.917969 210.230469 332.878906 C 209.976562 332.84375 209.726562 332.851562 209.480469 332.90625 C 202.398438 333.882812 195.300781 334.027344 188.183594 333.339844 C 187.9375 333.261719 187.683594 333.234375 187.425781 333.265625 L 187.300781 333.265625 C 187.042969 333.234375 186.789062 333.261719 186.542969 333.339844 C 179.425781 334.027344 172.328125 333.882812 165.246094 332.90625 C 165 332.851562 164.746094 332.839844 164.496094 332.878906 C 164.242188 332.914062 164.007812 332.996094 163.785156 333.121094 C 163.5625 333.25 163.371094 333.410156 163.210938 333.609375 C 163.050781 333.808594 162.929688 334.027344 162.851562 334.269531 L 154.5625 353.984375 C 153.585938 356.265625 157.359375 357.300781 158.320312 355.019531 L 165.921875 336.878906 C 173.058594 337.785156 180.207031 337.878906 187.363281 337.164062 C 194.53125 337.871094 201.6875 337.769531 208.832031 336.859375 C 211.367188 342.910156 213.902344 348.957031 216.4375 354.996094 C 217.398438 357.277344 221.160156 356.273438 220.1875 353.960938 Z M 211.875 334.269531 " fill-opacity="1" fill-rule="nonzero"/><path fill="#b3b3b3" d="M 321.347656 275.945312 C 319.574219 277.253906 316.25 280.839844 314.136719 281.273438 C 310.894531 281.929688 308.402344 278.9375 305.960938 277.164062 C 305.84375 277.097656 305.71875 277.082031 305.589844 277.117188 C 305.460938 277.152344 305.363281 277.226562 305.292969 277.339844 C 299.109375 287.613281 292.492188 297.554688 282.390625 304.433594 C 282.273438 304.5 282.199219 304.597656 282.164062 304.730469 C 282.128906 304.859375 282.148438 304.980469 282.214844 305.097656 C 285.582031 309.601562 288.019531 314.5625 289.53125 319.976562 C 289.59375 320.164062 289.722656 320.277344 289.917969 320.3125 C 290.113281 320.34375 290.269531 320.285156 290.390625 320.128906 L 290.667969 320.335938 C 290.578125 320.4375 290.542969 320.558594 290.554688 320.695312 C 290.566406 320.832031 290.625 320.941406 290.730469 321.03125 C 290.835938 321.117188 290.957031 321.152344 291.09375 321.140625 C 291.226562 321.128906 291.339844 321.070312 291.425781 320.964844 C 298.148438 314.496094 304.054688 307.347656 309.140625 299.523438 C 313.777344 292.347656 319.414062 284.652344 322.070312 276.5 C 322.152344 276.121094 321.6875 275.664062 321.347656 275.945312 Z M 321.347656 275.945312 " fill-opacity="1" fill-rule="nonzero"/><path fill="#b3b3b3" d="M 312.074219 157.597656 C 313.40625 158.839844 315.710938 159.335938 317.300781 160.277344 C 319.863281 161.835938 322.179688 163.707031 324.242188 165.886719 C 324.304688 165.949219 324.378906 165.992188 324.460938 166.015625 C 324.542969 166.035156 324.628906 166.039062 324.710938 166.015625 C 324.796875 165.992188 324.867188 165.953125 324.929688 165.890625 C 324.992188 165.832031 325.035156 165.757812 325.058594 165.675781 C 326.046875 159.523438 328.238281 153.054688 325.71875 147.058594 C 322.410156 139.171875 317.109375 131.835938 311.960938 125.054688 C 311.875 124.929688 311.757812 124.851562 311.605469 124.832031 C 311.453125 124.808594 311.320312 124.84375 311.199219 124.941406 L 309.792969 123.273438 C 309.792969 123.066406 309.792969 122.855469 309.753906 122.648438 C 309.710938 122.023438 308.738281 122.023438 308.78125 122.648438 C 309.445312 133.183594 309.542969 143.914062 310.789062 154.386719 C 311.03125 156.207031 310.890625 156.496094 312.074219 157.597656 Z M 312.074219 157.597656 " fill-opacity="1" fill-rule="nonzero"/><path fill="#b3b3b3" d="M 92.753906 304.433594 C 82.683594 297.585938 76.019531 287.613281 69.851562 277.324219 C 69.785156 277.207031 69.683594 277.132812 69.554688 277.097656 C 69.425781 277.066406 69.300781 277.082031 69.183594 277.148438 C 66.742188 278.921875 64.25 281.914062 61.007812 281.257812 C 58.894531 280.839844 55.570312 277.253906 53.796875 275.929688 C 53.457031 275.679688 52.960938 276.097656 53.082031 276.484375 C 55.769531 284.652344 61.375 292.332031 66.011719 299.511719 C 71.101562 307.332031 77.007812 314.476562 83.726562 320.949219 C 83.8125 321.054688 83.925781 321.113281 84.058594 321.128906 C 84.195312 321.140625 84.316406 321.101562 84.421875 321.015625 C 84.527344 320.929688 84.585938 320.816406 84.597656 320.679688 C 84.609375 320.542969 84.574219 320.425781 84.484375 320.320312 L 84.757812 320.113281 C 84.882812 320.269531 85.039062 320.328125 85.234375 320.296875 C 85.429688 320.261719 85.558594 320.148438 85.617188 319.960938 C 87.132812 314.546875 89.570312 309.585938 92.933594 305.082031 C 92.996094 304.964844 93.007812 304.847656 92.972656 304.722656 C 92.9375 304.597656 92.863281 304.5 92.753906 304.433594 Z M 92.753906 304.433594 " fill-opacity="1" fill-rule="nonzero"/><path fill="#b3b3b3" d="M 50.902344 165.886719 C 52.734375 163.957031 54.761719 162.253906 56.984375 160.789062 C 58.566406 159.785156 60.96875 159.265625 62.386719 158.0625 C 64.25 156.542969 64.027344 156.960938 64.324219 154.386719 C 65.542969 143.90625 65.671875 133.175781 66.332031 122.648438 C 66.378906 122.023438 65.402344 122.023438 65.359375 122.648438 C 65.359375 122.855469 65.359375 123.066406 65.359375 123.273438 L 63.90625 124.960938 C 63.785156 124.867188 63.652344 124.832031 63.5 124.855469 C 63.351562 124.875 63.230469 124.949219 63.144531 125.078125 C 58.035156 131.8125 52.726562 139.179688 49.425781 147.035156 C 46.90625 153.03125 49.097656 159.503906 50.085938 165.652344 C 50.128906 165.835938 50.242188 165.953125 50.425781 166.007812 C 50.605469 166.058594 50.765625 166.019531 50.902344 165.886719 Z M 50.902344 165.886719 " fill-opacity="1" fill-rule="nonzero"/><path fill="#415584" d="M 187.941406 64.941406 L 187.941406 64.820312 L 187.378906 64.871094 L 186.777344 64.835938 L 186.777344 64.957031 C 177.347656 66.042969 111.234375 75.039062 73.921875 114.308594 L 77.855469 220.597656 C 77.855469 220.597656 78.683594 271.859375 89.0625 281.820312 C 99.445312 291.785156 154.042969 306.175781 186.640625 306.496094 L 188.085938 306.496094 C 220.683594 306.175781 275.386719 291.671875 285.660156 281.820312 C 295.9375 271.972656 296.871094 220.597656 296.871094 220.597656 L 300.804688 114.308594 C 263.492188 75.039062 197.378906 66.042969 187.941406 64.941406 Z M 187.941406 64.941406 " fill-opacity="1" fill-rule="nonzero"/><path fill="#263151" d="M 283.0625 153.269531 C 283.023438 150.941406 282.683594 148.65625 282.042969 146.417969 C 280.414062 141.507812 276.046875 137.902344 271.273438 135.9375 C 266.496094 133.972656 261.277344 133.417969 256.136719 132.894531 C 254.582031 132.609375 253.042969 132.679688 251.523438 133.097656 C 248.851562 134.058594 247.460938 136.90625 246.320312 139.523438 C 241.148438 151.296875 235.558594 163.070312 227.398438 173.011719 C 219.238281 182.953125 208.171875 191.019531 195.515625 193.257812 C 192.703125 193.753906 182.023438 193.753906 179.210938 193.257812 C 166.554688 191.019531 155.488281 182.953125 147.328125 173.011719 C 139.167969 163.070312 133.578125 151.296875 128.40625 139.523438 C 127.265625 136.925781 125.875 134.058594 123.203125 133.097656 C 121.679688 132.679688 120.144531 132.609375 118.589844 132.894531 C 113.445312 133.425781 108.230469 133.980469 103.453125 135.9375 C 98.675781 137.894531 94.328125 141.507812 92.683594 146.417969 C 92.042969 148.65625 91.703125 150.941406 91.664062 153.269531 C 89.894531 184.109375 90.488281 214.902344 93.445312 245.652344 C 94.144531 252.960938 95.035156 260.441406 98.328125 267.003906 C 101.621094 273.5625 107.847656 279.128906 115.171875 279.621094 C 119.949219 280.679688 162.730469 291.640625 178.113281 292.027344 C 181.242188 292.113281 193.484375 292.113281 196.609375 292.027344 C 211.996094 291.640625 254.777344 280.679688 259.554688 279.621094 C 266.875 279.128906 273.097656 273.53125 276.398438 267.003906 C 279.699219 260.472656 280.582031 252.960938 281.28125 245.652344 C 284.238281 214.902344 284.832031 184.109375 283.0625 153.269531 Z M 283.0625 153.269531 " fill-opacity="1" fill-rule="nonzero"/><path fill="#263151" d="M 352.140625 240.589844 C 351.84375 240.773438 351.5625 240.972656 351.289062 241.183594 C 348.65625 241.976562 347.527344 241.148438 347.894531 238.703125 C 347.78125 237.558594 347.746094 236.414062 347.789062 235.265625 C 347.925781 233.953125 348.046875 232.644531 348.132812 231.328125 L 348.132812 231.253906 C 348.960938 218.582031 347.324219 205.847656 344.292969 193.347656 C 344.222656 193.113281 344.066406 192.996094 343.824219 192.996094 C 343.578125 192.996094 343.421875 193.113281 343.355469 193.347656 C 342.222656 199.652344 340.867188 205.898438 339.195312 212.082031 C 339.128906 212.332031 339.066406 212.628906 338.996094 212.949219 C 338.023438 214.25 336.824219 214.667969 335.195312 212.390625 C 334.703125 211.578125 334.414062 210.699219 334.328125 209.75 C 334.253906 208.761719 334.191406 207.773438 334.136719 206.789062 C 334.136719 205.917969 334.089844 205.046875 334 204.179688 C 333.964844 203.503906 333.917969 202.855469 333.855469 202.253906 C 332.890625 192.90625 332.109375 183.5625 330.816406 174.273438 C 330.351562 167.078125 330.914062 159.960938 332.503906 152.925781 C 332.648438 152.316406 331.742188 152.058594 331.558594 152.667969 C 331.226562 154.074219 330.945312 155.492188 330.707031 156.898438 L 330.167969 158.550781 C 330.039062 158.496094 329.914062 158.5 329.789062 158.5625 C 329.664062 158.625 329.589844 158.726562 329.558594 158.863281 C 329.210938 160.261719 328.929688 161.703125 328.691406 163.164062 C 328.539062 163.128906 328.394531 163.15625 328.265625 163.246094 C 328.136719 163.339844 328.058594 163.460938 328.039062 163.621094 C 325.523438 190.117188 325.636719 216.605469 328.382812 243.082031 C 329.140625 249.855469 331.226562 254.039062 338.578125 253.886719 C 340.761719 253.84375 341.996094 253.886719 343.296875 252.105469 C 343.546875 251.746094 343.75 251.363281 343.902344 250.949219 C 344.019531 251.105469 344.160156 251.230469 344.328125 251.324219 C 345.644531 251.992188 347.804688 249.351562 348.527344 248.628906 C 350.609375 246.558594 352.785156 244.0625 352.871094 241.019531 C 352.867188 240.929688 352.847656 240.851562 352.800781 240.777344 C 352.757812 240.703125 352.699219 240.644531 352.625 240.597656 C 352.550781 240.554688 352.46875 240.53125 352.382812 240.53125 C 352.296875 240.53125 352.214844 240.550781 352.140625 240.589844 Z M 352.140625 240.589844 " fill-opacity="1" fill-rule="nonzero"/><path fill="#263151" d="M 47.601562 163.605469 C 47.578125 163.449219 47.5 163.324219 47.371094 163.234375 C 47.242188 163.140625 47.101562 163.109375 46.945312 163.140625 C 46.710938 161.679688 46.429688 160.242188 46.085938 158.847656 C 46.054688 158.710938 45.976562 158.609375 45.851562 158.546875 C 45.726562 158.484375 45.597656 158.480469 45.46875 158.535156 L 44.9375 156.882812 C 44.703125 155.476562 44.421875 154.058594 44.078125 152.652344 C 43.933594 152.042969 42.992188 152.300781 43.144531 152.910156 C 44.722656 159.933594 45.285156 167.039062 44.824219 174.222656 C 43.5 183.507812 42.71875 192.863281 41.78125 202.207031 C 41.441406 205.488281 41.066406 208.769531 40.632812 212.035156 C 40.578125 212.148438 40.511719 212.257812 40.4375 212.363281 C 38.914062 214.578125 37.707031 214.242188 36.738281 213.015625 C 34.945312 206.523438 33.507812 199.949219 32.3125 193.320312 C 32.242188 193.085938 32.082031 192.972656 31.84375 192.972656 C 31.601562 192.972656 31.441406 193.085938 31.371094 193.320312 C 28.328125 205.816406 26.707031 218.550781 27.566406 231.222656 L 27.566406 231.269531 C 27.660156 232.585938 27.773438 233.894531 27.917969 235.203125 C 27.960938 236.351562 27.921875 237.5 27.804688 238.644531 C 28.167969 241.082031 27.039062 241.910156 24.417969 241.125 C 24.144531 240.910156 23.855469 240.714844 23.558594 240.53125 C 23.394531 240.417969 23.226562 240.410156 23.050781 240.507812 C 22.875 240.601562 22.792969 240.75 22.800781 240.949219 C 22.867188 243.820312 24.792969 246.101562 26.707031 248.105469 C 27.414062 248.863281 29.925781 251.960938 31.339844 251.246094 C 31.503906 251.152344 31.648438 251.03125 31.765625 250.882812 C 31.917969 251.308594 32.125 251.703125 32.390625 252.070312 C 33.691406 253.828125 34.929688 253.804688 37.105469 253.851562 C 44.429688 254.003906 46.582031 249.808594 47.304688 243.042969 C 50.035156 216.574219 50.132812 190.09375 47.601562 163.605469 Z M 47.601562 163.605469 " fill-opacity="1" fill-rule="nonzero"/><path fill="#263151" d="M 123.144531 120.394531 C 122.769531 118.113281 122.574219 112.023438 120.253906 110.753906 C 118.109375 109.550781 110.230469 113.574219 108.125 114.308594 C 103.6875 115.828125 96.714844 117.167969 93.011719 120.0625 C 90.496094 122.023438 91.003906 125.070312 91.277344 128.144531 C 91.171875 128.984375 91.207031 129.820312 91.382812 130.648438 C 91.449219 130.886719 91.605469 131.007812 91.855469 131.003906 C 96.3125 131.445312 102 127.070312 106.304688 125.945312 C 111.964844 124.421875 117.613281 123.464844 122.9375 120.945312 C 123.140625 120.8125 123.210938 120.628906 123.144531 120.394531 Z M 123.144531 120.394531 " fill-opacity="1" fill-rule="nonzero"/><path fill="#263151" d="M 91.511719 115.660156 C 94.15625 114.246094 96.894531 113.054688 99.734375 112.09375 L 104.109375 110.683594 C 109.1875 109.160156 114.398438 107.882812 119.128906 106.375 C 119.257812 106.339844 119.359375 106.265625 119.425781 106.148438 C 119.492188 106.027344 119.507812 105.90625 119.46875 105.773438 C 118.746094 103.859375 117.859375 102.019531 116.816406 100.257812 C 116.746094 100.144531 116.648438 100.074219 116.519531 100.039062 C 116.390625 100.003906 116.269531 100.019531 116.15625 100.082031 C 109.011719 103.339844 101.855469 106.589844 94.792969 110.023438 C 92.640625 111.070312 89.550781 112.128906 91.042969 114.808594 C 90.472656 115.121094 90.949219 115.964844 91.511719 115.660156 Z M 91.511719 115.660156 " fill-opacity="1" fill-rule="nonzero"/><path fill="#263151" d="M 283.964844 120.496094 C 282.582031 119.101562 279.667969 118.585938 277.882812 117.890625 C 274.683594 116.636719 271.457031 115.449219 268.207031 114.320312 C 265.964844 113.5625 258.320312 109.582031 256.128906 110.746094 C 253.757812 111.984375 253.542969 118.25 253.179688 120.410156 C 253.121094 120.648438 253.199219 120.832031 253.40625 120.957031 C 258.730469 123.476562 264.390625 124.46875 270.039062 125.960938 C 274.359375 127.09375 279.972656 131.46875 284.492188 131.019531 C 284.738281 131.023438 284.894531 130.902344 284.960938 130.664062 C 285.132812 129.851562 285.171875 129.03125 285.078125 128.203125 C 285.320312 125.503906 285.769531 122.320312 283.964844 120.496094 Z M 283.964844 120.496094 " fill-opacity="1" fill-rule="nonzero"/><path fill="#263151" d="M 285.320312 114.824219 C 286.839844 112.152344 283.714844 111.070312 281.570312 110.035156 C 274.496094 106.621094 267.355469 103.355469 260.214844 100.097656 C 260.097656 100.035156 259.972656 100.019531 259.84375 100.054688 C 259.71875 100.085938 259.617188 100.160156 259.546875 100.273438 C 258.503906 102.035156 257.617188 103.875 256.890625 105.789062 C 256.859375 105.917969 256.875 106.042969 256.941406 106.160156 C 257.007812 106.273438 257.105469 106.351562 257.234375 106.390625 C 261.972656 107.914062 267.179688 109.167969 272.261719 110.699219 L 276.625 112.105469 C 279.464844 113.070312 282.207031 114.261719 284.847656 115.675781 C 285.378906 115.964844 285.867188 115.121094 285.320312 114.824219 Z M 285.320312 114.824219 " fill-opacity="1" fill-rule="nonzero"/><path fill="#ffffff" d="M 33.964844 149 C 11.613281 162.789062 5.503906 190.097656 11.910156 214.378906 C 11.949219 214.554688 12.019531 214.714844 12.121094 214.867188 C 12.222656 215.015625 12.34375 215.140625 12.492188 215.242188 C 12.640625 215.347656 12.800781 215.421875 12.976562 215.464844 C 13.148438 215.507812 13.328125 215.519531 13.503906 215.496094 C 13.414062 217.355469 13.367188 219.210938 13.382812 221.078125 C 13.382812 223.132812 16.578125 223.140625 16.570312 221.078125 C 16.496094 214.230469 17.164062 207.457031 18.574219 200.757812 C 19.984375 194.058594 22.105469 187.59375 24.9375 181.363281 C 27.316406 176.1875 30.578125 171.46875 32.992188 166.335938 C 35.402344 161.207031 36.207031 155.957031 36.328125 150.351562 C 36.324219 150.21875 36.300781 150.082031 36.261719 149.953125 C 36.222656 149.820312 36.167969 149.699219 36.097656 149.582031 C 36.027344 149.464844 35.945312 149.359375 35.847656 149.261719 C 35.75 149.167969 35.640625 149.085938 35.523438 149.019531 C 35.402344 148.949219 35.277344 148.898438 35.148438 148.863281 C 35.015625 148.828125 34.882812 148.808594 34.746094 148.804688 C 34.609375 148.804688 34.476562 148.820312 34.34375 148.851562 C 34.210938 148.886719 34.082031 148.933594 33.964844 149 Z M 33.964844 149 " fill-opacity="1" fill-rule="nonzero"/><path fill="#ffffff" d="M 341.4375 149 C 341.316406 148.929688 341.191406 148.878906 341.054688 148.84375 C 340.921875 148.808594 340.78125 148.789062 340.644531 148.789062 C 340.503906 148.789062 340.367188 148.808594 340.230469 148.84375 C 340.097656 148.882812 339.96875 148.933594 339.847656 149.003906 C 339.726562 149.074219 339.617188 149.15625 339.519531 149.253906 C 339.417969 149.351562 339.335938 149.460938 339.265625 149.582031 C 339.195312 149.703125 339.140625 149.832031 339.101562 149.964844 C 339.066406 150.101562 339.046875 150.238281 339.042969 150.375 C 339.164062 155.957031 340.007812 161.246094 342.390625 166.359375 C 344.769531 171.472656 348.054688 176.207031 350.445312 181.382812 C 353.269531 187.617188 355.390625 194.085938 356.800781 200.785156 C 358.210938 207.480469 358.882812 214.253906 358.808594 221.097656 C 358.808594 223.160156 361.980469 223.15625 361.996094 221.097656 C 361.996094 219.238281 361.953125 217.378906 361.867188 215.519531 C 362.046875 215.542969 362.222656 215.53125 362.398438 215.488281 C 362.574219 215.445312 362.734375 215.371094 362.882812 215.269531 C 363.027344 215.164062 363.152344 215.039062 363.253906 214.890625 C 363.355469 214.738281 363.425781 214.578125 363.464844 214.402344 C 369.898438 190.121094 363.800781 162.789062 341.4375 149 Z M 341.4375 149 " fill-opacity="1" fill-rule="nonzero"/><path fill="#ffffff" d="M 126.792969 87.433594 C 124.953125 83.199219 123.652344 77.773438 118.070312 79.722656 C 111.355469 82.003906 104.761719 86.230469 98.753906 89.9375 C 88.488281 96.277344 72.980469 104.398438 73.109375 118.144531 C 73.109375 118.355469 73.148438 118.5625 73.234375 118.757812 C 73.320312 118.957031 73.441406 119.125 73.601562 119.269531 C 73.757812 119.414062 73.9375 119.523438 74.140625 119.589844 C 74.34375 119.660156 74.554688 119.683594 74.765625 119.664062 C 74.523438 119.960938 74.28125 120.25 74.003906 120.546875 C 72.71875 122.132812 74.964844 124.398438 76.289062 122.832031 C 82.546875 115.011719 89.898438 108.417969 98.34375 103.042969 C 107.050781 97.5625 116.808594 93.757812 126.222656 89.617188 C 127.066406 89.234375 127.105469 88.148438 126.792969 87.433594 Z M 126.792969 87.433594 " fill-opacity="1" fill-rule="nonzero"/><path fill="#ffffff" d="M 302.554688 118.113281 C 302.683594 104.328125 287.175781 96.246094 276.90625 89.90625 C 270.898438 86.199219 264.304688 82.011719 257.589844 79.691406 C 252.023438 77.765625 250.746094 83.167969 248.867188 87.402344 C 248.554688 88.117188 248.59375 89.203125 249.445312 89.585938 C 258.84375 93.757812 268.609375 97.507812 277.347656 103.019531 C 285.792969 108.394531 293.144531 114.992188 299.40625 122.808594 C 300.699219 124.40625 302.941406 122.140625 301.6875 120.523438 L 300.925781 119.640625 C 301.136719 119.65625 301.34375 119.628906 301.542969 119.558594 C 301.742188 119.488281 301.917969 119.378906 302.074219 119.234375 C 302.226562 119.089844 302.347656 118.917969 302.429688 118.722656 C 302.515625 118.527344 302.554688 118.324219 302.554688 118.113281 Z M 302.554688 118.113281 " fill-opacity="1" fill-rule="nonzero"/><path fill="#ffffff" d="M 249.902344 77.574219 C 233.042969 73.253906 215.972656 70.089844 198.6875 68.085938 C 198.457031 67.5 198.074219 67.042969 197.539062 66.714844 C 196.6875 66.332031 195.800781 66.21875 194.878906 66.363281 C 192.390625 66.53125 189.902344 66.738281 187.425781 66.949219 C 184.9375 66.738281 182.449219 66.53125 179.964844 66.363281 C 179.042969 66.214844 178.160156 66.332031 177.308594 66.714844 C 176.769531 67.042969 176.386719 67.5 176.152344 68.085938 C 158.871094 70.089844 141.800781 73.253906 124.945312 77.574219 L 122.480469 78.253906 C 125.628906 90.492188 132.910156 101.207031 137.691406 112.90625 C 141.640625 122.609375 143.835938 132.921875 146.949219 142.925781 C 150.058594 152.925781 154.242188 162.882812 161.398438 170.507812 C 163.914062 173.164062 166.714844 175.46875 169.804688 177.421875 C 172.894531 179.378906 176.175781 180.921875 179.652344 182.054688 C 182.03125 182.832031 184.457031 183.398438 186.9375 183.75 C 187.070312 183.789062 187.207031 183.789062 187.339844 183.75 C 190.089844 183.382812 192.789062 182.789062 195.441406 181.960938 C 198.863281 180.832031 202.101562 179.300781 205.144531 177.367188 C 208.191406 175.4375 210.957031 173.160156 213.441406 170.546875 C 220.613281 162.933594 224.796875 152.964844 227.890625 142.964844 C 230.988281 132.960938 233.214844 122.648438 237.148438 112.945312 C 241.917969 101.246094 249.1875 90.53125 252.359375 78.289062 Z M 249.902344 77.574219 " fill-opacity="1" fill-rule="nonzero"/><path fill="#263151" d="M 92.53125 53.636719 C 85.6875 56.726562 78.53125 59.507812 72.242188 63.667969 C 66.550781 67.476562 61.59375 72.164062 56.644531 76.851562 C 53.007812 80.324219 58.519531 85.824219 62.148438 82.363281 C 67.117188 77.636719 72.105469 72.832031 78.019531 69.25 C 83.9375 65.664062 90.289062 63.160156 96.488281 60.367188 C 101.027344 58.304688 97.074219 51.582031 92.53125 53.636719 Z M 92.53125 53.636719 " fill-opacity="1" fill-rule="nonzero"/><path fill="#263151" d="M 31.863281 67.757812 C 36 62.492188 40.535156 57.601562 45.472656 53.082031 C 50.410156 48.5625 55.679688 44.476562 61.285156 40.820312 C 66.890625 37.167969 72.757812 33.996094 78.882812 31.300781 C 85.007812 28.609375 91.3125 26.433594 97.796875 24.777344 C 102.648438 23.535156 100.59375 16.007812 95.726562 17.257812 C 88.917969 18.992188 82.292969 21.269531 75.851562 24.085938 C 69.414062 26.902344 63.246094 30.222656 57.347656 34.046875 C 51.453125 37.875 45.902344 42.152344 40.703125 46.882812 C 35.503906 51.613281 30.722656 56.734375 26.359375 62.246094 C 23.261719 66.144531 28.753906 71.683594 31.863281 67.757812 Z M 31.863281 67.757812 " fill-opacity="1" fill-rule="nonzero"/><path fill="#263151" d="M 367.222656 126.265625 C 369.960938 122.519531 369.816406 117.839844 367.882812 113.980469 C 367.773438 113.59375 367.613281 113.230469 367.394531 112.890625 C 366.988281 112.289062 366.539062 111.722656 366.050781 111.1875 C 364.753906 109.617188 363.175781 108.417969 361.320312 107.585938 C 360.917969 107.410156 360.5 107.300781 360.066406 107.257812 C 359.011719 106.902344 357.933594 106.6875 356.824219 106.625 C 355.714844 106.558594 354.617188 106.640625 353.53125 106.871094 C 352.445312 107.105469 351.40625 107.476562 350.421875 107.988281 C 349.4375 108.5 348.535156 109.136719 347.722656 109.890625 C 341.835938 115.21875 341.539062 125.503906 348.070312 130.382812 C 348.171875 130.449219 348.269531 130.503906 348.359375 130.570312 C 346.984375 135.730469 345.507812 140.898438 344.359375 146.121094 C 342.867188 145.363281 341.296875 144.828125 339.652344 144.515625 C 337.929688 144.171875 336.207031 144.15625 334.480469 144.46875 C 332.753906 144.78125 331.144531 145.398438 329.652344 146.320312 C 324.207031 132.125 314.707031 119.480469 303.625 108.742188 C 303.464844 108.558594 303.289062 108.390625 303.09375 108.242188 C 297.828125 103.210938 292.25 98.554688 286.363281 94.273438 C 258.699219 74.019531 225.109375 63.921875 191.058594 62.816406 C 191.359375 58.453125 191.417969 54.082031 191.234375 49.710938 C 191.234375 49.632812 191.234375 49.566406 191.234375 49.488281 C 193.222656 49.089844 195.113281 48.410156 196.898438 47.449219 C 206.125 42.488281 208.773438 30.121094 204.003906 21.117188 C 198.945312 11.632812 186.238281 7.324219 177.246094 14.042969 C 177.203125 14.042969 177.171875 14.113281 177.132812 14.144531 C 176.199219 14.800781 175.324219 15.535156 174.511719 16.339844 C 173.699219 17.144531 172.957031 18.011719 172.289062 18.941406 C 171.621094 19.871094 171.035156 20.847656 170.53125 21.875 C 170.027344 22.902344 169.613281 23.964844 169.285156 25.0625 C 168.960938 26.160156 168.726562 27.277344 168.585938 28.414062 C 168.449219 29.550781 168.40625 30.6875 168.457031 31.832031 C 168.507812 32.976562 168.65625 34.105469 168.894531 35.226562 C 169.136719 36.34375 169.46875 37.4375 169.894531 38.5 C 170.46875 39.917969 171.207031 41.242188 172.117188 42.472656 C 173.023438 43.703125 174.070312 44.800781 175.253906 45.769531 C 176.441406 46.734375 177.726562 47.535156 179.117188 48.175781 C 180.503906 48.816406 181.949219 49.277344 183.453125 49.550781 C 183.449219 49.613281 183.449219 49.671875 183.453125 49.734375 C 183.640625 54.109375 183.578125 58.484375 183.269531 62.855469 C 149.464844 64.074219 116.167969 74.171875 88.667969 94.273438 C 82.804688 98.554688 77.242188 103.203125 71.992188 108.21875 C 71.78125 108.375 71.59375 108.550781 71.425781 108.75 C 60.378906 119.480469 50.902344 132.085938 45.457031 146.273438 C 43.699219 145.210938 41.800781 144.574219 39.757812 144.371094 C 36.570312 144.070312 33.558594 144.667969 30.722656 146.167969 C 29.566406 140.9375 28.09375 135.769531 26.714844 130.601562 C 26.808594 130.535156 26.90625 130.480469 27.003906 130.410156 C 33.589844 125.488281 33.171875 115.34375 27.355469 109.921875 C 26.542969 109.160156 25.644531 108.519531 24.660156 108 C 23.671875 107.484375 22.636719 107.109375 21.546875 106.878906 C 20.457031 106.644531 19.359375 106.5625 18.246094 106.632812 C 17.136719 106.703125 16.054688 106.921875 15.003906 107.289062 C 14.570312 107.332031 14.15625 107.441406 13.757812 107.617188 C 11.886719 108.453125 10.304688 109.664062 9.003906 111.246094 C 8.523438 111.773438 8.082031 112.332031 7.679688 112.921875 C 7.464844 113.261719 7.300781 113.625 7.191406 114.011719 C 5.261719 117.867188 5.117188 122.550781 7.855469 126.292969 C 10.59375 130.039062 14.890625 132.648438 19.261719 132.847656 C 20.90625 138.988281 22.707031 145.140625 23.886719 151.394531 C 23.105469 152.1875 22.367188 153.015625 21.671875 153.886719 C 11.9375 166.4375 8.371094 183.796875 7.898438 199.316406 C 7.59375 209.335938 8.769531 219.175781 11.421875 228.839844 C 13.648438 236.90625 17.382812 250.152344 24.535156 255.144531 C 30.054688 259.019531 36.703125 259.332031 42.640625 256.847656 C 46.445312 274.660156 55.570312 291.730469 66.332031 306.09375 C 70.386719 311.5625 74.800781 316.726562 79.578125 321.578125 C 84.351562 326.433594 89.441406 330.933594 94.84375 335.074219 C 100.242188 339.21875 105.90625 342.96875 111.832031 346.320312 C 117.757812 349.671875 123.882812 352.597656 130.214844 355.09375 C 148.386719 362.1875 167.824219 365.226562 187.257812 365.332031 C 187.363281 365.332031 187.453125 365.332031 187.554688 365.332031 C 187.652344 365.332031 187.742188 365.332031 187.851562 365.332031 C 220.027344 365.148438 251.804688 356.320312 277.84375 337.003906 C 282.777344 333.34375 287.472656 329.394531 291.917969 325.160156 C 296.367188 320.921875 300.542969 316.425781 304.4375 311.675781 C 308.332031 306.921875 311.921875 301.949219 315.203125 296.757812 C 318.488281 291.5625 321.441406 286.183594 324.0625 280.625 C 327.714844 273.070312 330.503906 265.203125 332.425781 257.03125 C 336.503906 258.636719 341.460938 258.941406 344.800781 257.992188 C 354.382812 255.273438 357.972656 245.050781 361.191406 236.582031 C 364.761719 226.957031 366.753906 217.015625 367.160156 206.761719 C 367.921875 190.242188 364.976562 171.9375 356.085938 157.714844 C 354.6875 155.4375 353.078125 153.320312 351.257812 151.367188 C 352.4375 145.125 354.238281 138.980469 355.875 132.839844 C 360.179688 132.621094 364.429688 130.09375 367.222656 126.265625 Z M 357.570312 114.40625 C 360.132812 115.59375 362.5 118.136719 361.183594 121.253906 C 360.066406 123.90625 356.214844 125.953125 353.539062 124.652344 C 347.722656 121.828125 352.757812 113.25 357.570312 114.40625 Z M 178.039062 37.433594 C 174.996094 32.667969 176 25.027344 180.320312 21.246094 C 180.621094 21.121094 180.898438 20.960938 181.15625 20.765625 C 192.875 12.003906 205.546875 31.90625 194.300781 39.890625 C 189.292969 43.46875 181.453125 42.761719 178.039062 37.433594 Z M 14.046875 121.628906 C 12.441406 118.476562 14.804688 115.652344 17.511719 114.398438 C 22.328125 113.265625 27.324219 121.84375 21.535156 124.648438 C 18.957031 125.90625 15.316406 124.109375 14.046875 121.628906 Z M 22.191406 236.398438 C 20.449219 232.058594 19.050781 227.613281 17.988281 223.0625 C 16.929688 218.507812 16.21875 213.902344 15.863281 209.242188 C 15.507812 204.578125 15.507812 199.917969 15.867188 195.257812 C 16.222656 190.597656 16.929688 185.988281 17.992188 181.4375 C 19.558594 174.71875 21.832031 168.066406 25.429688 162.144531 C 26.757812 159.832031 28.375 157.746094 30.28125 155.886719 C 30.621094 155.578125 30.980469 155.292969 31.363281 155.042969 C 29.839844 160.820312 29.226562 176.109375 30.929688 176.351562 C 33.019531 176.628906 38.160156 159.074219 40.183594 152.476562 C 40.9375 152.484375 41.640625 152.679688 42.285156 153.070312 C 42.933594 153.457031 43.4375 153.984375 43.796875 154.644531 C 43.917969 155.871094 44.039062 157.105469 44.15625 158.328125 C 44.085938 158.9375 44.144531 159.53125 44.328125 160.109375 C 46.109375 178.550781 46.636719 197.023438 45.910156 215.535156 C 45.683594 220.628906 45.324219 225.71875 44.808594 230.796875 C 44.480469 233.925781 44.101562 237.050781 43.613281 240.164062 C 43.3125 242.136719 43.355469 246.027344 42.253906 247.707031 C 41.363281 249.046875 39.152344 249.992188 36.929688 250.449219 C 34.570312 241.398438 31.1875 219.144531 29.242188 219.136719 C 27.292969 219.128906 26.488281 239.601562 28.28125 247.777344 C 25.339844 244.6875 23.597656 239.824219 22.191406 236.398438 Z M 242.054688 347.878906 C 224.707031 354.53125 206.359375 357.429688 187.835938 357.539062 C 187.726562 357.539062 187.636719 357.539062 187.539062 357.539062 C 187.4375 357.539062 187.347656 357.539062 187.242188 357.539062 C 156.332031 357.363281 126.15625 348.839844 101.179688 330.265625 C 96.492188 326.75 92.039062 322.957031 87.824219 318.886719 C 83.605469 314.820312 79.65625 310.507812 75.972656 305.949219 C 72.289062 301.390625 68.902344 296.621094 65.808594 291.640625 C 62.714844 286.664062 59.941406 281.511719 57.488281 276.1875 C 53.691406 268.171875 51.003906 259.800781 49.425781 251.074219 C 52.15625 245.539062 51.914062 236.832031 52.46875 231.824219 C 55.289062 205.582031 54.132812 178.886719 51.402344 152.667969 C 55.128906 140.984375 62.050781 130.289062 70.417969 120.882812 C 70.042969 152.886719 75.585938 220.445312 77.464844 220.535156 C 79.488281 220.636719 77.65625 147.46875 78.324219 112.792969 C 84.527344 106.972656 91.171875 101.714844 98.257812 97.019531 C 105.34375 92.320312 112.777344 88.253906 120.550781 84.8125 C 128.460938 107.648438 149 155.597656 150.859375 155.15625 C 152.714844 154.714844 135.738281 104.921875 127.730469 81.816406 C 137.285156 78.175781 147.085938 75.410156 157.132812 73.515625 C 167.179688 71.621094 177.316406 70.628906 187.539062 70.535156 C 197.761719 70.636719 207.894531 71.636719 217.941406 73.539062 C 227.988281 75.441406 237.785156 78.214844 247.339844 81.859375 C 239.332031 104.992188 222.195312 154.652344 224.082031 155.171875 C 225.96875 155.6875 246.609375 107.675781 254.503906 84.859375 C 262.277344 88.300781 269.707031 92.371094 276.792969 97.070312 C 283.878906 101.765625 290.523438 107.019531 296.726562 112.835938 C 297.398438 147.539062 295.207031 220.453125 297.070312 220.574219 C 299.101562 220.710938 305.011719 152.933594 304.636719 120.929688 C 313.003906 130.335938 319.925781 141.03125 323.652344 152.71875 C 321.214844 176.101562 320.128906 199.773438 321.816406 223.246094 C 322.175781 228.222656 322.683594 233.1875 323.339844 238.132812 C 323.878906 242.074219 323.96875 247.160156 325.621094 251.003906 C 318.515625 294.273438 281.84375 332.597656 242.054688 347.878906 Z M 357.082031 181.4375 C 358.144531 185.988281 358.855469 190.597656 359.210938 195.257812 C 359.566406 199.917969 359.566406 204.582031 359.210938 209.242188 C 358.855469 213.902344 358.144531 218.511719 357.082031 223.0625 C 356.019531 227.613281 354.621094 232.058594 352.878906 236.398438 C 351.492188 239.792969 349.714844 244.640625 346.839844 247.730469 C 348.632812 239.570312 347.523438 218.960938 345.441406 219.160156 C 343.644531 219.332031 340.542969 241.398438 338.183594 250.449219 C 335.902344 250.023438 333.710938 249.046875 332.824219 247.707031 C 330.539062 244.238281 330.816406 235.859375 330.382812 231.855469 C 329.804688 226.425781 329.40625 220.984375 329.164062 215.535156 C 328.4375 197.011719 328.960938 178.523438 330.730469 160.074219 C 330.917969 159.496094 330.976562 158.902344 330.90625 158.300781 C 331.019531 157.066406 331.140625 155.839844 331.261719 154.609375 C 331.628906 153.945312 332.132812 153.421875 332.785156 153.035156 C 333.433594 152.648438 334.136719 152.457031 334.890625 152.453125 C 336.914062 159.054688 342.054688 176.605469 344.148438 176.332031 C 345.851562 176.109375 345.21875 160.820312 343.714844 155.019531 C 344.097656 155.273438 344.457031 155.554688 344.792969 155.863281 C 346.699219 157.722656 348.316406 159.808594 349.644531 162.121094 C 353.234375 168.066406 355.515625 174.71875 357.082031 181.4375 Z M 357.082031 181.4375 " fill-opacity="1" fill-rule="nonzero"/><path fill="#263151" d="M 282.542969 53.636719 C 277.980469 51.589844 274.046875 58.304688 278.613281 60.367188 C 284.808594 63.160156 291.257812 65.695312 297.078125 69.25 C 302.894531 72.804688 307.960938 77.621094 312.925781 82.363281 C 316.554688 85.824219 322.054688 80.324219 318.433594 76.851562 C 313.503906 72.164062 308.546875 67.4375 302.835938 63.667969 C 296.546875 59.507812 289.386719 56.726562 282.542969 53.636719 Z M 282.542969 53.636719 " fill-opacity="1" fill-rule="nonzero"/><path fill="#263151" d="M 277.28125 24.777344 C 283.761719 26.4375 290.0625 28.613281 296.1875 31.304688 C 302.308594 33.996094 308.171875 37.171875 313.777344 40.824219 C 319.382812 44.480469 324.652344 48.566406 329.585938 53.085938 C 334.519531 57.605469 339.054688 62.496094 343.1875 67.757812 C 346.292969 71.691406 351.773438 66.144531 348.695312 62.246094 C 344.332031 56.734375 339.550781 51.613281 334.355469 46.882812 C 329.15625 42.152344 323.609375 37.875 317.714844 34.050781 C 311.820312 30.226562 305.652344 26.90625 299.214844 24.089844 C 292.78125 21.269531 286.15625 18.992188 279.347656 17.257812 C 274.511719 16.015625 272.445312 23.527344 277.28125 24.777344 Z M 277.28125 24.777344 " fill-opacity="1" fill-rule="nonzero"/><path fill="#9dfff2" d="M 144.300781 216.082031 C 144.300781 217.136719 144.265625 218.1875 144.199219 219.234375 C 144.128906 220.285156 144.027344 221.324219 143.890625 222.355469 C 143.757812 223.390625 143.585938 224.410156 143.382812 225.417969 C 143.179688 226.425781 142.945312 227.417969 142.679688 228.390625 C 142.410156 229.363281 142.113281 230.3125 141.785156 231.242188 C 141.457031 232.171875 141.097656 233.074219 140.710938 233.949219 C 140.320312 234.824219 139.90625 235.667969 139.460938 236.484375 C 139.019531 237.296875 138.550781 238.078125 138.058594 238.820312 C 137.5625 239.566406 137.046875 240.273438 136.507812 240.941406 C 135.96875 241.609375 135.40625 242.234375 134.828125 242.820312 C 134.246094 243.40625 133.648438 243.949219 133.03125 244.445312 C 132.417969 244.941406 131.785156 245.390625 131.140625 245.792969 C 130.496094 246.195312 129.839844 246.550781 129.171875 246.855469 C 128.503906 247.160156 127.828125 247.417969 127.144531 247.621094 C 126.457031 247.828125 125.769531 247.984375 125.074219 248.085938 C 124.378906 248.1875 123.683594 248.242188 122.984375 248.242188 C 122.285156 248.242188 121.589844 248.1875 120.894531 248.085938 C 120.199219 247.984375 119.511719 247.828125 118.824219 247.621094 C 118.140625 247.417969 117.464844 247.160156 116.796875 246.855469 C 116.128906 246.550781 115.472656 246.195312 114.824219 245.792969 C 114.179688 245.390625 113.550781 244.941406 112.933594 244.445312 C 112.320312 243.949219 111.722656 243.40625 111.140625 242.820312 C 110.558594 242.234375 110 241.609375 109.460938 240.941406 C 108.921875 240.273438 108.402344 239.566406 107.910156 238.820312 C 107.417969 238.078125 106.949219 237.296875 106.503906 236.484375 C 106.0625 235.667969 105.648438 234.824219 105.257812 233.949219 C 104.871094 233.074219 104.511719 232.171875 104.183594 231.242188 C 103.855469 230.3125 103.554688 229.363281 103.289062 228.390625 C 103.023438 227.417969 102.785156 226.425781 102.585938 225.417969 C 102.382812 224.410156 102.210938 223.390625 102.074219 222.355469 C 101.941406 221.324219 101.835938 220.285156 101.769531 219.234375 C 101.699219 218.1875 101.667969 217.136719 101.667969 216.082031 C 101.667969 215.03125 101.699219 213.980469 101.769531 212.933594 C 101.835938 211.882812 101.941406 210.84375 102.074219 209.808594 C 102.210938 208.777344 102.382812 207.757812 102.585938 206.75 C 102.785156 205.742188 103.023438 204.75 103.289062 203.777344 C 103.554688 202.804688 103.855469 201.855469 104.183594 200.925781 C 104.511719 199.996094 104.871094 199.09375 105.257812 198.21875 C 105.648438 197.34375 106.0625 196.496094 106.503906 195.683594 C 106.949219 194.867188 107.417969 194.089844 107.910156 193.34375 C 108.402344 192.601562 108.921875 191.894531 109.460938 191.226562 C 110 190.558594 110.558594 189.929688 111.140625 189.347656 C 111.722656 188.761719 112.320312 188.21875 112.933594 187.722656 C 113.550781 187.226562 114.179688 186.777344 114.824219 186.375 C 115.472656 185.972656 116.128906 185.617188 116.796875 185.3125 C 117.464844 185.003906 118.140625 184.75 118.824219 184.542969 C 119.511719 184.339844 120.199219 184.183594 120.894531 184.082031 C 121.589844 183.976562 122.285156 183.925781 122.984375 183.925781 C 123.683594 183.925781 124.378906 183.976562 125.074219 184.082031 C 125.769531 184.183594 126.457031 184.339844 127.144531 184.542969 C 127.828125 184.75 128.503906 185.003906 129.171875 185.3125 C 129.839844 185.617188 130.496094 185.972656 131.140625 186.375 C 131.785156 186.777344 132.417969 187.226562 133.03125 187.722656 C 133.648438 188.21875 134.246094 188.761719 134.828125 189.347656 C 135.40625 189.929688 135.96875 190.558594 136.507812 191.226562 C 137.046875 191.894531 137.5625 192.601562 138.058594 193.34375 C 138.550781 194.089844 139.019531 194.867188 139.460938 195.683594 C 139.90625 196.496094 140.320312 197.34375 140.710938 198.21875 C 141.097656 199.09375 141.457031 199.996094 141.785156 200.925781 C 142.113281 201.855469 142.410156 202.804688 142.679688 203.777344 C 142.945312 204.75 143.179688 205.742188 143.382812 206.75 C 143.585938 207.757812 143.757812 208.777344 143.890625 209.808594 C 144.027344 210.84375 144.128906 211.882812 144.199219 212.933594 C 144.265625 213.980469 144.300781 215.03125 144.300781 216.082031 Z M 144.300781 216.082031 " fill-opacity="1" fill-rule="nonzero"/><path fill="#9dfff2" d="M 273.410156 216.082031 C 273.410156 217.136719 273.375 218.1875 273.308594 219.234375 C 273.238281 220.285156 273.136719 221.324219 273 222.355469 C 272.863281 223.390625 272.695312 224.410156 272.492188 225.417969 C 272.289062 226.425781 272.054688 227.417969 271.785156 228.390625 C 271.519531 229.363281 271.222656 230.3125 270.890625 231.242188 C 270.5625 232.171875 270.203125 233.074219 269.816406 233.949219 C 269.429688 234.824219 269.015625 235.667969 268.570312 236.484375 C 268.128906 237.296875 267.660156 238.078125 267.164062 238.820312 C 266.671875 239.566406 266.15625 240.273438 265.617188 240.941406 C 265.074219 241.609375 264.515625 242.234375 263.933594 242.820312 C 263.355469 243.40625 262.757812 243.949219 262.140625 244.445312 C 261.523438 244.941406 260.894531 245.390625 260.25 245.792969 C 259.605469 246.195312 258.949219 246.550781 258.28125 246.855469 C 257.613281 247.160156 256.9375 247.417969 256.25 247.621094 C 255.566406 247.828125 254.875 247.984375 254.179688 248.085938 C 253.488281 248.1875 252.789062 248.242188 252.09375 248.242188 C 251.394531 248.242188 250.699219 248.1875 250.003906 248.085938 C 249.308594 247.984375 248.617188 247.828125 247.933594 247.621094 C 247.25 247.417969 246.570312 247.160156 245.902344 246.855469 C 245.234375 246.550781 244.578125 246.195312 243.933594 245.792969 C 243.289062 245.390625 242.660156 244.941406 242.042969 244.445312 C 241.425781 243.949219 240.828125 243.40625 240.25 242.820312 C 239.667969 242.234375 239.109375 241.609375 238.566406 240.941406 C 238.027344 240.273438 237.511719 239.566406 237.019531 238.820312 C 236.523438 238.078125 236.054688 237.296875 235.613281 236.484375 C 235.171875 235.667969 234.753906 234.824219 234.367188 233.949219 C 233.980469 233.074219 233.621094 232.171875 233.292969 231.242188 C 232.960938 230.3125 232.664062 229.363281 232.398438 228.390625 C 232.128906 227.417969 231.894531 226.425781 231.691406 225.417969 C 231.488281 224.410156 231.320312 223.390625 231.183594 222.355469 C 231.046875 221.324219 230.945312 220.285156 230.875 219.234375 C 230.808594 218.1875 230.773438 217.136719 230.773438 216.082031 C 230.773438 215.03125 230.808594 213.980469 230.875 212.933594 C 230.945312 211.882812 231.046875 210.84375 231.183594 209.808594 C 231.320312 208.777344 231.488281 207.757812 231.691406 206.75 C 231.894531 205.742188 232.128906 204.75 232.398438 203.777344 C 232.664062 202.804688 232.960938 201.855469 233.292969 200.925781 C 233.621094 199.996094 233.980469 199.09375 234.367188 198.21875 C 234.753906 197.34375 235.171875 196.496094 235.613281 195.683594 C 236.054688 194.867188 236.523438 194.089844 237.019531 193.34375 C 237.511719 192.601562 238.027344 191.894531 238.566406 191.226562 C 239.109375 190.558594 239.667969 189.929688 240.25 189.347656 C 240.828125 188.761719 241.425781 188.21875 242.042969 187.722656 C 242.660156 187.226562 243.289062 186.777344 243.933594 186.375 C 244.578125 185.972656 245.234375 185.617188 245.902344 185.3125 C 246.570312 185.003906 247.25 184.75 247.933594 184.542969 C 248.617188 184.339844 249.308594 184.183594 250.003906 184.082031 C 250.699219 183.976562 251.394531 183.925781 252.09375 183.925781 C 252.789062 183.925781 253.488281 183.976562 254.179688 184.082031 C 254.875 184.183594 255.566406 184.339844 256.25 184.542969 C 256.9375 184.75 257.613281 185.003906 258.28125 185.3125 C 258.949219 185.617188 259.605469 185.972656 260.25 186.375 C 260.894531 186.777344 261.523438 187.226562 262.140625 187.722656 C 262.757812 188.21875 263.355469 188.761719 263.933594 189.347656 C 264.515625 189.929688 265.074219 190.558594 265.617188 191.226562 C 266.15625 191.894531 266.671875 192.601562 267.164062 193.34375 C 267.660156 194.089844 268.128906 194.867188 268.570312 195.683594 C 269.015625 196.496094 269.429688 197.34375 269.816406 198.21875 C 270.203125 199.09375 270.5625 199.996094 270.890625 200.925781 C 271.222656 201.855469 271.519531 202.804688 271.785156 203.777344 C 272.054688 204.75 272.289062 205.742188 272.492188 206.75 C 272.695312 207.757812 272.863281 208.777344 273 209.808594 C 273.136719 210.84375 273.238281 211.882812 273.308594 212.933594 C 273.375 213.980469 273.410156 215.03125 273.410156 216.082031 Z M 273.410156 216.082031 " fill-opacity="1" fill-rule="nonzero"/><path fill="#b3b3b3" d="M 215.230469 84.289062 C 211.496094 82.4375 206.917969 82.003906 202.902344 81.503906 C 195.933594 80.644531 188.945312 80.449219 181.941406 80.917969 C 172.660156 81.582031 163.464844 82.851562 154.347656 84.722656 C 153.039062 84.972656 151.304688 85.355469 149.472656 85.757812 C 148.941406 85.878906 148.429688 86.054688 147.9375 86.285156 C 147.445312 86.519531 146.984375 86.800781 146.554688 87.136719 C 146.125 87.46875 145.734375 87.847656 145.386719 88.265625 C 145.039062 88.683594 144.742188 89.136719 144.492188 89.621094 C 144.242188 90.105469 144.050781 90.613281 143.914062 91.140625 C 143.777344 91.667969 143.699219 92.203125 143.679688 92.75 C 143.65625 93.292969 143.699219 93.832031 143.796875 94.371094 C 143.894531 94.90625 144.050781 95.425781 144.265625 95.925781 C 144.628906 96.777344 145.023438 97.621094 145.328125 98.453125 C 150.8125 111.855469 154.339844 125.609375 157.390625 139.996094 C 159.769531 151.230469 164.484375 163.816406 175.476562 168.375 C 175.710938 168.476562 175.949219 168.492188 176.191406 168.421875 C 176.4375 168.351562 176.628906 168.214844 176.773438 168.003906 C 176.917969 167.792969 176.980469 167.5625 176.960938 167.308594 C 176.9375 167.058594 176.839844 166.839844 176.664062 166.65625 C 173.019531 162.902344 167.535156 155.292969 163.808594 139.574219 C 162.226562 133.351562 160.769531 127.09375 159.4375 120.808594 C 159.164062 119.511719 156.789062 109.519531 156.394531 107.167969 C 156.171875 104.722656 156.394531 102.722656 157.542969 101.914062 C 158.09375 101.5625 158.6875 101.308594 159.324219 101.15625 C 159.816406 101.046875 160.3125 100.925781 160.804688 100.828125 C 173.734375 97.644531 182.265625 97.601562 197.058594 97.707031 C 201.121094 97.753906 205.425781 98.382812 208.878906 95.835938 C 211.410156 93.976562 214.414062 89.898438 216.074219 87.460938 C 216.257812 87.203125 216.378906 86.917969 216.4375 86.605469 C 216.496094 86.292969 216.484375 85.984375 216.402344 85.675781 C 216.320312 85.367188 216.175781 85.09375 215.972656 84.851562 C 215.765625 84.605469 215.519531 84.417969 215.230469 84.289062 Z M 215.230469 84.289062 " fill-opacity="1" fill-rule="nonzero"/><path fill="#b3b3b3" d="M 202.632812 107.234375 C 195.367188 105.992188 188.0625 105.738281 180.722656 106.476562 C 177.242188 106.78125 167.621094 107.488281 165.207031 110.441406 C 163.792969 112.175781 166.210938 121.371094 168.328125 125.070312 C 168.847656 126.058594 169.605469 126.796875 170.609375 127.292969 C 172.53125 127.292969 171.140625 120.441406 179.523438 116.910156 C 183.25 115.433594 197.457031 114.976562 205.257812 115.714844 C 207.480469 115.921875 214.453125 116.347656 213.265625 111.847656 C 212.550781 109.152344 204.777344 107.609375 202.632812 107.234375 Z M 202.632812 107.234375 " fill-opacity="1" fill-rule="nonzero"/></svg>