<svg width="490" height="490" viewBox="0 0 490 490" fill="none" xmlns="http://www.w3.org/2000/svg">
<path d="M425 400L345 480V400H425Z" fill="white"/>
<path d="M425 10V400H345V480H65V10H425Z" fill="white"/>
<path d="M435 10C435 4.477 430.523 0 425 0H65C59.477 0 55 4.477 55 10V480C55 485.523 59.477 490 65 490H344.987C344.99 490 344.994 490 344.997 490C347.6 490 350.158 488.983 352.071 487.071L432.071 407.071C433.983 405.158 434.975 402.601 434.976 400H435V10ZM345 390C339.477 390 335 394.477 335 400V470H75V20H415V390H345ZM355 455.858V410H400.858L355 455.858Z" fill="#4151F3"/>
<path d="M190 50H110V70H190V50Z" fill="#4151F3"/>
<path d="M240 80H110V100H240V80Z" fill="#4151F3"/>
<path d="M370 125H120C114.477 125 110 129.477 110 135V420C110 425.523 114.477 430 120 430H300V410H205V320H360V360.005H380V135C380 129.477 375.523 125 370 125ZM360 180H205V145H360V180ZM205 200H360V240H205V200ZM185 145V180H130V145H185ZM130 410V200H185V410H130ZM205 300V260H360V300H205Z" fill="#4151F3"/>
<path d="M170 215H145V235H170V215Z" fill="#4151F3"/>
<path d="M170 275H145V295H170V275Z" fill="#4151F3"/>
<path d="M170 335H145V355H170V335Z" fill="#4151F3"/>
<path d="M170 375H145V395H170V375Z" fill="#4151F3"/>
</svg>
