<svg xmlns="http://www.w3.org/2000/svg" xmlns:xlink="http://www.w3.org/1999/xlink" width="500" zoomAndPan="magnify" viewBox="0 0 375 374.999991" height="500" preserveAspectRatio="xMidYMid meet" version="1.0"><defs><clipPath id="id1"><path d="M 105.3125 28.429688 L 342.3125 28.429688 L 342.3125 333.679688 L 105.3125 333.679688 Z M 105.3125 28.429688 " clip-rule="nonzero"/></clipPath><clipPath id="id2"><path d="M 37.835938 108.316406 L 217.085938 108.316406 L 217.085938 339.316406 L 37.835938 339.316406 Z M 37.835938 108.316406 " clip-rule="nonzero"/></clipPath><clipPath id="id3"><path d="M 32.960938 302.007812 L 300.710938 302.007812 L 300.710938 346.257812 L 32.960938 346.257812 Z M 32.960938 302.007812 " clip-rule="nonzero"/></clipPath></defs><g clip-path="url(#id1)"><path fill="#007dff" d="M 202.789062 28.429688 L 342.3125 28.429688 L 244.835938 333.675781 L 105.3125 333.675781 L 202.789062 28.429688 " fill-opacity="1" fill-rule="nonzero"/></g><g clip-path="url(#id2)"><path fill="#e8e8e8" d="M 111.5625 108.316406 L 217.085938 108.316406 L 143.363281 339.316406 L 37.839844 339.316406 L 111.5625 108.316406 " fill-opacity="1" fill-rule="nonzero"/></g><g clip-path="url(#id3)"><path fill="#103d7b" d="M 94.953125 302.007812 L 300.6875 302.007812 L 238.71875 346.257812 L 32.984375 346.257812 L 94.953125 302.007812 " fill-opacity="1" fill-rule="nonzero"/></g></svg>