<svg xmlns="http://www.w3.org/2000/svg" xmlns:xlink="http://www.w3.org/1999/xlink" width="500" zoomAndPan="magnify" viewBox="0 0 375 374.999991" height="500" preserveAspectRatio="xMidYMid meet" version="1.0"><defs><g/><clipPath id="id1"><path d="M 27.695312 150.707031 L 70.445312 150.707031 L 70.445312 205.457031 L 27.695312 205.457031 Z M 27.695312 150.707031 " clip-rule="nonzero"/></clipPath><clipPath id="id2"><path d="M 15.578125 165.054688 L 47.828125 165.054688 L 47.828125 206.304688 L 15.578125 206.304688 Z M 15.578125 165.054688 " clip-rule="nonzero"/></clipPath><clipPath id="id3"><path d="M 14.699219 199.839844 L 62.699219 199.839844 L 62.699219 208.089844 L 14.699219 208.089844 Z M 14.699219 199.839844 " clip-rule="nonzero"/></clipPath></defs><g clip-path="url(#id1)"><path fill="#007dff" d="M 45.277344 150.707031 L 70.445312 150.707031 L 52.859375 205.457031 L 27.695312 205.457031 L 45.277344 150.707031 " fill-opacity="1" fill-rule="nonzero"/></g><g clip-path="url(#id2)"><path fill="#e8e8e8" d="M 28.839844 165.054688 L 47.828125 165.054688 L 34.5625 206.300781 L 15.578125 206.300781 L 28.839844 165.054688 " fill-opacity="1" fill-rule="nonzero"/></g><g clip-path="url(#id3)"><path fill="#103d7b" d="M 25.828125 199.839844 L 62.671875 199.839844 L 51.574219 208.089844 L 14.730469 208.089844 L 25.828125 199.839844 " fill-opacity="1" fill-rule="nonzero"/></g><g fill="#e8e8e8" fill-opacity="1"><g transform="translate(68.542046, 208.30358)"><g><path d="M 2.257812 0 L 14.003906 0 L 22.640625 -54.464844 L 10.894531 -54.464844 Z M 2.257812 0 "/></g></g></g><g fill="#e8e8e8" fill-opacity="1"><g transform="translate(91.960101, 208.30358)"><g><path d="M 0.933594 0 L 11.75 0 L 15.5625 -24.121094 C 17.660156 -26.375 21.320312 -29.019531 25.285156 -29.019531 C 29.175781 -29.019531 31.589844 -27.074219 30.8125 -22.019531 L 27.308594 0 L 38.125 0 L 41.78125 -22.953125 C 43.105469 -31.433594 38.589844 -38.4375 29.332031 -38.4375 C 24.507812 -38.4375 19.527344 -36.179688 15.640625 -32.523438 L 16.417969 -37.347656 L 6.847656 -37.347656 Z M 0.933594 0 "/></g></g></g><g fill="#e8e8e8" fill-opacity="1"><g transform="translate(137.784804, 208.30358)"><g><path d="M 12.527344 0 L 23.964844 0 L 45.75 -37.347656 L 33.613281 -37.347656 L 19.605469 -11.4375 L 14.082031 -37.347656 L 3.035156 -37.347656 Z M 12.527344 0 "/></g></g></g><g fill="#e8e8e8" fill-opacity="1"><g transform="translate(181.664494, 208.30358)"><g><path d="M 19.839844 1.089844 C 29.878906 1.089844 41.003906 -4.980469 42.949219 -17.738281 C 45.125 -31.121094 35.632812 -38.4375 25.132812 -38.4375 C 14.628906 -38.4375 3.96875 -32.367188 1.945312 -19.605469 C -0.15625 -6.222656 8.871094 1.089844 19.839844 1.089844 Z M 20.695312 -8.636719 C 14.472656 -8.636719 11.980469 -13.148438 12.761719 -18.519531 C 13.773438 -24.585938 18.128906 -28.710938 24.351562 -28.710938 C 30.5 -28.710938 32.988281 -24.199219 32.132812 -18.828125 C 31.121094 -12.761719 26.84375 -8.636719 20.695312 -8.636719 Z M 20.695312 -8.636719 "/></g></g></g><g fill="#e8e8e8" fill-opacity="1"><g transform="translate(227.800408, 208.30358)"><g><path d="M 24.273438 1.089844 C 36.414062 1.089844 43.570312 -8.167969 45.125 -17.972656 C 46.839844 -28.554688 41.003906 -38.4375 29.644531 -38.4375 C 24.429688 -38.4375 20.152344 -36.335938 16.960938 -33.222656 L 20.386719 -54.464844 L 9.570312 -54.464844 L 0.933594 0 L 10.503906 0 L 11.671875 -5.914062 C 13.382812 -2.410156 17.507812 1.089844 24.273438 1.089844 Z M 22.019531 -8.015625 C 17.738281 -8.015625 14.9375 -10.738281 13.925781 -14.082031 L 15.40625 -22.796875 C 17.582031 -26.21875 21.628906 -29.332031 26.609375 -29.332031 C 32.445312 -29.332031 35.089844 -24.351562 34.234375 -18.75 C 33.300781 -12.527344 28.710938 -8.015625 22.019531 -8.015625 Z M 22.019531 -8.015625 "/></g></g></g><g fill="#e8e8e8" fill-opacity="1"><g transform="translate(276.036943, 208.30358)"><g><path d="M 19.839844 1.089844 C 29.878906 1.089844 41.003906 -4.980469 42.949219 -17.738281 C 45.125 -31.121094 35.632812 -38.4375 25.132812 -38.4375 C 14.628906 -38.4375 3.96875 -32.367188 1.945312 -19.605469 C -0.15625 -6.222656 8.871094 1.089844 19.839844 1.089844 Z M 20.695312 -8.636719 C 14.472656 -8.636719 11.980469 -13.148438 12.761719 -18.519531 C 13.773438 -24.585938 18.128906 -28.710938 24.351562 -28.710938 C 30.5 -28.710938 32.988281 -24.199219 32.132812 -18.828125 C 31.121094 -12.761719 26.84375 -8.636719 20.695312 -8.636719 Z M 20.695312 -8.636719 "/></g></g></g><g fill="#e8e8e8" fill-opacity="1"><g transform="translate(322.172858, 208.30358)"><g><path d="M 17.429688 1.089844 C 21.242188 1.089844 24.820312 0.46875 27.230469 -0.542969 L 28.554688 -9.414062 C 26.296875 -8.558594 24.042969 -8.015625 21.394531 -8.015625 C 17.429688 -8.015625 15.871094 -9.335938 16.496094 -13.304688 L 18.90625 -28.242188 L 30.734375 -28.242188 L 32.132812 -37.347656 L 20.386719 -37.347656 L 22.484375 -50.808594 L 11.28125 -48.160156 L 9.570312 -37.347656 L 3.269531 -37.347656 L 1.789062 -28.242188 L 8.089844 -28.242188 L 5.523438 -11.828125 C 4.046875 -2.488281 10.347656 1.089844 17.429688 1.089844 Z M 17.429688 1.089844 "/></g></g></g></svg>