<svg id="Layer_1" data-name="Layer 1" xmlns="http://www.w3.org/2000/svg" viewBox="0 0 1022.74 537.04"><defs><style>.cls-1{fill:#434d53;}.cls-2{fill:#27323a;}.cls-3{fill:#50c668;}.cls-4{fill:#50c664;}.cls-5{fill:#51c56e;}.cls-6{fill:#55c18e;}.cls-7{fill:#50c661;}.cls-8{fill:#51c572;}.cls-9{fill:#50c662;}.cls-10{fill:#54c289;}.cls-11{fill:#53c37e;}.cls-12{fill:#52c476;}.cls-13{fill:#53c381;}.cls-14{fill:#52c477;}.cls-15{fill:#52c47a;}.cls-16{fill:#53c380;}.cls-17{fill:#53c385;}.cls-18{fill:#53c384;}.cls-19{fill:#51c56c;}.cls-20{fill:#54c288;}.cls-21{fill:#52c475;}.cls-22{fill:#53c37f;}.cls-23{fill:#52c47c;}.cls-24{fill:#50c666;}.cls-25{fill:#51c574;}.cls-26{fill:#54c287;}.cls-27{fill:#54c28b;}.cls-28{fill:#51c56a;}.cls-29{fill:#50c665;}.cls-30{fill:#55c28e;}.cls-31{fill:#55c38a;}.cls-32{fill:#56c38d;}.cls-33{fill:#73cca3;}.cls-34{fill:#71cca1;}.cls-35{fill:#aae0c7;}.cls-36{fill:#c1e9d2;}.cls-37{fill:#99dabb;}.cls-38{fill:#7ad38e;}.cls-39{fill:#c8ecd0;}.cls-40{fill:#7fd2a1;}.cls-41{fill:#d3eee2;}.cls-42{fill:#eaf7ef;}.cls-43{fill:#fefefe;}.cls-44{fill:#fdfdfd;}.cls-45{fill:#52c479;}</style></defs><path class="cls-1" d="M1041.37,730.86h-1c-1.72-1.92-1.63-4.3-1.63-6.62q0-61.43,0-122.85c0-2.34,0-4.7,1.65-6.62l1,.11Z" transform="translate(-18.63 -242.87)"/><path class="cls-2" d="M400,642.87c20.1-22.22,47.21-17.75,61.27-6.71,13.12,10.3,18.55,24.42,19.17,40.6s-3.38,31-15,43.06c-15,15.46-44.66,20.12-65.44-2.73v5.33c0,17.83-.06,35.66.06,53.48,0,2.91-.49,4.15-3.78,4-6.15-.29-12.32-.21-18.47,0-2.72.08-3.72-.55-3.71-3.52q.14-72,0-144c0-2.8.68-3.76,3.58-3.66,6.32.21,12.65.17,19,0,2.57-.06,3.58.64,3.4,3.34C399.86,635.39,400,638.74,400,642.87Z" transform="translate(-18.63 -242.87)"/><path class="cls-2" d="M160.24,641.26c16.43-19.18,50.1-18.16,63.47.94,6.1,8.71,8.17,18.52,8.29,28.79.21,18.65,0,37.31.12,56,0,3.18-.68,4.4-4.12,4.22a173.73,173.73,0,0,0-18,0c-3.5.18-4-1.2-4-4.26.13-16.15.08-32.31.05-48.47,0-2.49-.06-5-.3-7.48-1.41-14.24-9.48-21.8-23-21.59s-22,8.51-22.38,22.86c-.44,16.48-.14,33-.17,49.47a33.62,33.62,0,0,0,0,4.49c.54,3.82-.71,5.28-4.81,5a143.39,143.39,0,0,0-17,0c-3.32.17-4.14-.89-4.13-4.14.13-27.31.08-54.63.08-81.95,0-15.49.08-31-.07-46.47,0-3.18.68-4.37,4.1-4.19,6,.31,12,.26,18,0,3.15-.14,3.9.95,3.87,4C160.16,612.35,160.24,626.3,160.24,641.26Z" transform="translate(-18.63 -242.87)"/><path class="cls-2" d="M96.1,637.06c-1.66,0-3.34-.12-5,0-5.1.45-9,.41-11-6.21-2.19-7-12.54-10.41-21.47-8.79-7.5,1.35-11.59,5.63-12.46,12.86-.75,6.25,2.12,10.57,7.18,13.69,5.72,3.53,12.18,5.23,18.51,7.19a172.25,172.25,0,0,1,18.76,6.58c12.33,5.41,20.49,14.15,21.39,28.14S107.79,716,96.15,724.08c-17.06,11.84-46.57,11.06-63.09-1.48-8.4-6.38-13.06-14.85-14.36-25.3-.33-2.67.44-3.46,3.13-3.39,7.15.17,14.31.13,21.46,0,2.19,0,2.94.46,3.52,2.82,3.51,14.27,22.63,19.72,33.63,9.75a14.48,14.48,0,0,0-.68-22.28c-4.91-4-10.89-5.58-16.76-7.34a225.55,225.55,0,0,1-21.72-7.22c-14.07-5.8-22.33-15.73-22.22-31.59.1-15.62,7.22-27,21.48-32.95,17.22-7.18,34.7-7,51.49,1.8,10.59,5.57,16.22,14.86,18.3,26.53.51,2.92-.32,3.85-3.25,3.67C103.43,636.89,99.76,637.06,96.1,637.06Z" transform="translate(-18.63 -242.87)"/><path class="cls-2" d="M942.71,699c-4.83,14.95-14.08,25.47-28.34,30.44-19.08,6.64-37.6,4.85-53.46-8.55-15.55-13.14-19.71-31.05-16.57-50.24,6.22-38,45.74-55.79,78.66-36,18,10.79,24,31.84,22,50.1-.32,2.93-1.75,3.21-4.23,3.2-22.12-.09-44.24.09-66.35-.17-4.49-.05-4.82,1.54-3.87,5.06,2.6,9.72,8.6,16.19,18.54,18s18.58-.3,24.34-9.46c.93-1.49,1.82-2.44,3.85-2.41C925.57,699,933.86,699,942.71,699Z" transform="translate(-18.63 -242.87)"/><path class="cls-2" d="M598.08,680.11c-.08,31-22.41,52.79-54.1,52.68-30.13-.11-51.16-22-51.07-53.23C493,648.7,515,626.93,546,627.1,576.49,627.26,598.15,649.31,598.08,680.11Z" transform="translate(-18.63 -242.87)"/><path class="cls-2" d="M250,680c0-31,21.83-52.92,52.69-52.89s52.64,22.11,52.56,53.1c-.08,30.73-22.48,52.65-53.75,52.6C271.17,732.73,250,711,250,680Z" transform="translate(-18.63 -242.87)"/><path class="cls-2" d="M643,641.1c11.76-12.6,25.58-15.94,41-12.77,17.81,3.66,29.68,18,30.32,37.73.68,20.62.2,41.29.32,61.93,0,2.38-.69,3.21-3.12,3.15-6.48-.14-13-.21-19.46,0-3.11.11-3.43-1.24-3.42-3.8.09-17.15.05-34.3,0-51.45a46,46,0,0,0-.18-6c-1.82-13.84-10.44-21.17-24-20.52-12.88.6-21.13,9.07-21.37,22.81-.31,17.81-.22,35.64,0,53.45,0,4.12-.57,6-5.28,5.54a151.76,151.76,0,0,0-17.46-.06c-2.58.07-3.42-.72-3.41-3.37q.12-48,0-95.91c0-2.4.72-3.17,3.11-3.12,6.32.14,12.66.25,19,0,3.41-.15,4.35,1,4,4.21C642.81,635.22,643,637.57,643,641.1Z" transform="translate(-18.63 -242.87)"/><path class="cls-3" d="M414.35,298a119.43,119.43,0,0,1,27.44-25.17c2.71-1,3.13,1,3.55,2.78a25.39,25.39,0,0,1,.32,6q0,27.24,0,54.48c0,3.32-.17,6.66.58,9.94-8.81,20.12-13.32,41.05-12.05,63.11,1,16.65,5.41,32.39,11.89,47.65.78,1.73.57,3.61.57,5.39,0,19.93.1,39.86-.07,59.79,0,2.27.62,5.14-2.72,6A128.49,128.49,0,0,1,414,501c1-64.65.18-129.31.45-194C414.47,304,414.05,301,414.35,298Z" transform="translate(-18.63 -242.87)"/><path class="cls-2" d="M816.76,663.31c-1.16,0-2.33,0-3.49,0-5.63.27-9.76-.17-13.7-6.22-8.54-13.12-30.29-10-37,4.72-5.3,11.6-5.21,23.64-.35,35.38,3.58,8.66,10.53,13.12,19.89,13.37,9,.23,16.37-2.84,20.23-11.6.85-1.94,2-2.32,3.79-2.3,7.15.06,14.31.17,21.46,0,3.33-.09,3.45,1.06,2.62,3.79-5.41,17.89-21.5,30.46-41.52,32.27-24,2.18-44.11-9.55-52.37-30.6-9-23-2.42-50.74,15-64.76,20.53-16.55,66.67-15.73,78.64,21.22,1.39,4.27.48,5.22-3.67,4.82C823.11,663.06,819.92,663.31,816.76,663.31Z" transform="translate(-18.63 -242.87)"/><path class="cls-4" d="M414.35,298c1.76,1.86,1.75,4.17,1.75,6.53q0,94.79,0,189.56c0,2.49.22,5-2.08,6.83a131.49,131.49,0,0,1-21.65-33.1,70.56,70.56,0,0,1-.89-13.38q0-51.57,0-103.13c0-6.46-.26-12.94.71-19.37A126.71,126.71,0,0,1,414.35,298Z" transform="translate(-18.63 -242.87)"/><path class="cls-2" d="M964.15,662.62c0-21.15.12-42.29-.11-63.43,0-4.09,1.22-5,5-4.77a138.89,138.89,0,0,0,16.45,0c3.67-.22,4.78.7,4.74,4.57-.21,21.64-.1,43.28-.1,64.93,0,20.64-.16,41.28.12,61.92.07,4.61-1.32,5.64-5.58,5.35a138.89,138.89,0,0,0-16.45,0c-3.29.16-4.15-.88-4.13-4.13C964.22,705.57,964.15,684.09,964.15,662.62Z" transform="translate(-18.63 -242.87)"/><path class="cls-2" d="M1040.39,594.78q0,68,0,136.09c-6.82.07-13.65-.09-20.44.32-3.84.22-4.64-1-4.62-4.69.16-29.48.09-59,.09-88.44,0-13.16.1-26.32-.07-39.48-.05-3.24.77-4.32,4.14-4.15C1026.43,594.78,1033.42,594.69,1040.39,594.78Z" transform="translate(-18.63 -242.87)"/><path class="cls-5" d="M446.26,346c-2.9-1.23-2.19-3.81-2.19-6,0-20.63,0-41.27-.06-61.91,0-1.93,1.1-4.59-2.22-5.21A110.09,110.09,0,0,1,472,255.81c1.64,1.52,1.56,3.57,1.61,5.53.35,14.54-.55,29.09.55,43.62a5.59,5.59,0,0,1-1.13,3.72A158.69,158.69,0,0,0,446.26,346Z" transform="translate(-18.63 -242.87)"/><path class="cls-5" d="M443.88,528c1.91-1.55,1.13-3.7,1.14-5.59q.08-28.65,0-57.31a26.8,26.8,0,0,1,1.08-8.32,150.84,150.84,0,0,0,29.84,40.27c1.15,3,.64,6.22.65,9.33,0,10.74.18,21.48-.11,32.21-.05,2.15,1.08,5.88-3.53,5.33A109.71,109.71,0,0,1,443.88,528Z" transform="translate(-18.63 -242.87)"/><path class="cls-6" d="M636.45,408.74A83.35,83.35,0,0,0,637,360.9c.94-3.7.08-7.47.44-11.19.19-2-.29-4.39,2.3-5.43,10.61,12.51,16.33,27.27,18.76,43.21,4,26-2.38,49.71-17.88,70.94a17.93,17.93,0,0,1-1.71,1.78c-3.08-2.19-2.65-5.55-2.66-8.63C636.24,437.3,636,423,636.45,408.74Z" transform="translate(-18.63 -242.87)"/><path class="cls-7" d="M392.2,332c1.42,1.36.89,3.13.89,4.73q0,63.18,0,126.34c0,1.62.49,3.36-.73,4.81-14.8-29.77-18.65-61.18-13.64-93.79A131.88,131.88,0,0,1,392.2,332Z" transform="translate(-18.63 -242.87)"/><path class="cls-8" d="M473,308.68c-2-17.59-.49-35.25-1-52.87a83.47,83.47,0,0,1,23.92-7.9c2.32.14,2.46,2.06,2.51,3.59.38,11.72.32,23.45.06,35.18a8.56,8.56,0,0,1-1.33,3.7A215.55,215.55,0,0,0,473,308.68Z" transform="translate(-18.63 -242.87)"/><path class="cls-9" d="M484.89,388.91c.61,4.89.49,9.89,2.25,14.61.85,12.21.52,24.45.26,36.67-.06,3.11.77,7.17-3.55,8.82-19.91-31.39-16.38-76.94,8.29-106.85,5.06-6.13,10.59-11.74,17.53-16-14.75,14.63-22.85,32.28-24.8,52.81A25.92,25.92,0,0,0,484.89,388.91Z" transform="translate(-18.63 -242.87)"/><path class="cls-8" d="M473,543.93c3-.58,2-3,2-4.8.07-12.09,0-24.19,0-36.28,0-2-.19-4,.93-5.79a180.93,180.93,0,0,0,26.18,18.47,9.64,9.64,0,0,1,1.47,5.17c.07,8.74.18,17.49-.06,26.23-.08,2.93-.12,6.46-4.91,5.09A88.37,88.37,0,0,1,473,543.93Z" transform="translate(-18.63 -242.87)"/><path class="cls-10" d="M636.45,408.74c2.11,1.4,1.34,3.58,1.35,5.46q.09,18.62,0,37.23a27.39,27.39,0,0,0,1.13,8.78,77.65,77.65,0,0,1-24.12,21.51c-2-.92-2.38-2.72-2.39-4.58-.08-11.13-.48-22.26.17-33.38C623.48,434.09,631.19,422.25,636.45,408.74Z" transform="translate(-18.63 -242.87)"/><path class="cls-11" d="M578.66,273.11c-11.57-.37-23.15-.89-34.69.69-1.23-9.08-.54-18.19-.32-27.29a3.53,3.53,0,0,1,1.29-2.61c10.8.44,21.43,1.73,31.55,5.87a9.22,9.22,0,0,0,2.44.34,4.28,4.28,0,0,1,2.3,3.63,98.69,98.69,0,0,1,0,16.4C581.06,271.52,580.86,273.29,578.66,273.11Z" transform="translate(-18.63 -242.87)"/><path class="cls-12" d="M497.14,290.38c-.05-12.45-.08-24.9-.18-37.35,0-1.74.66-3.7-1.06-5.12,7.74-3,16-3.17,24.06-3.91a4.23,4.23,0,0,1,1.29,2.61c.27,10.83.91,21.66-.25,32.48C512.85,282.43,504.93,286.29,497.14,290.38Z" transform="translate(-18.63 -242.87)"/><path class="cls-13" d="M558.66,346.81A31.46,31.46,0,0,1,581.88,350c1.72,1.91,1.62,4.27,1.63,6.58q0,27.33,0,54.64c0,2.3.17,4.69-1.61,6.58a30.68,30.68,0,0,1-23.24,3.29,3.3,3.3,0,0,1,1.43-1.13c8.27-1.41,8.28-1.41,8.28-10.3v-51.4c0-8.9,0-8.9-8.29-10.29A3.14,3.14,0,0,1,558.66,346.81Z" transform="translate(-18.63 -242.87)"/><path class="cls-14" d="M498.62,552c3.49.19,3.39-2.15,3.39-4.63,0-10.62.06-21.24.11-31.86A202.09,202.09,0,0,0,528,526a5.9,5.9,0,0,1,1.51,4.07q.27,10.83,0,21.68a5.77,5.77,0,0,1-1.5,4.07l-5-.08c-1.69-.83-3.62.08-5.3-.74A55.49,55.49,0,0,1,498.62,552Z" transform="translate(-18.63 -242.87)"/><path class="cls-15" d="M521,279.09c-1.47-2.44-1-5.14-1-7.76,0-9.11,0-18.22,0-27.33a72.51,72.51,0,0,1,25-.1v24.17c0,2,.21,4-1,5.73Z" transform="translate(-18.63 -242.87)"/><path class="cls-16" d="M591.87,544.66a132.7,132.7,0,0,1-39,10.12c-1.86-2.08-1.41-4.65-1.47-7.1-.16-5.9.62-11.89-1.48-17.63a139.92,139.92,0,0,0,34.57-1.2c2.07-.31,4.14-.69,6.21-1a1.7,1.7,0,0,1,2.08,1.58C593.52,534.54,594.57,539.73,591.87,544.66Z" transform="translate(-18.63 -242.87)"/><path class="cls-17" d="M578.66,273.11c2.23-2,1.25-4.65,1.15-6.95-.22-5.35,1.14-10.8-.88-16.05,13.41,4,26.23,9.19,37.54,17.67,1.68,1.26,3.57,2.25,5.37,3.37.95,5,1.31,10-1,14.79-10-4.05-19.9-8.52-30.66-10.44C586.33,274.82,582.51,273.91,578.66,273.11Z" transform="translate(-18.63 -242.87)"/><path class="cls-5" d="M517.94,448.07l20,10a4.51,4.51,0,0,1,1.38,3.1c.36,8.42.43,16.84-.05,25.25-.12,2-.48,4.44-3.45,4.59a59.28,59.28,0,0,1-19-8.7,10,10,0,0,1-1.46-5.71c0-7.49-.1-15,0-22.47C515.47,451.83,515.28,449.32,517.94,448.07Z" transform="translate(-18.63 -242.87)"/><path class="cls-18" d="M612.59,443.76c1.85,1.3,1.23,3.27,1.24,5,0,9.07,0,18.14,0,27.21,0,2-.24,4,.95,5.75a66.32,66.32,0,0,1-18.94,9c-2-1.17-2.39-3.16-2.44-5.18-.26-8.82-.2-17.64,0-26.47a6.21,6.21,0,0,1,1.49-4.14A173.92,173.92,0,0,0,612.59,443.76Z" transform="translate(-18.63 -242.87)"/><path class="cls-19" d="M538.91,356.93a22.7,22.7,0,0,1,10-7c2.43-1,2.83.9,3.26,2.47a20.87,20.87,0,0,1,.37,5.47q0,26.72,0,53.43c0,2.6.48,5.39-1.61,7.58a26.36,26.36,0,0,1-12-7.93c-1.16-9.24-.45-18.51-.47-27.76C538.41,374.44,537.74,365.66,538.91,356.93Z" transform="translate(-18.63 -242.87)"/><path class="cls-20" d="M581.89,417.78q0-33.9,0-67.8a26,26,0,0,1,12,9.13,6.19,6.19,0,0,1,.82,3.8q-.48,21,0,42.07a6.19,6.19,0,0,1-.82,3.8A24.47,24.47,0,0,1,581.89,417.78Z" transform="translate(-18.63 -242.87)"/><path class="cls-21" d="M535.82,491c2.11-1.61,2.14-3.91,2.13-6.25q0-13.35,0-26.69l20,3.74a7.21,7.21,0,0,1,1.57,4.63c.13,8,.24,15.94,0,23.91-.17,4.7-1,5.17-5.82,4.68A51.75,51.75,0,0,1,535.82,491Z" transform="translate(-18.63 -242.87)"/><path class="cls-22" d="M594.88,454.92c0,9.48,0,19,0,28.45a22.44,22.44,0,0,0,1,7.34,76.4,76.4,0,0,1-24.9,5c3.4-3.28,3.59-7.42,3.44-11.81-.19-5.65-.07-11.31,0-17,0-2.17,0-4.35,1.46-6.18Z" transform="translate(-18.63 -242.87)"/><path class="cls-23" d="M550,530.05a4.61,4.61,0,0,1,3,4.9c-.24,6.6-.08,13.22-.09,19.83-8.27,1.53-16.61,1.46-25,1.05V526Z" transform="translate(-18.63 -242.87)"/><path class="cls-24" d="M483.85,449a19.45,19.45,0,0,0,2.16-9.9c0-8.77.05-17.54,0-26.31a28.49,28.49,0,0,1,1.17-9.28A98.61,98.61,0,0,0,502,432.87a5.91,5.91,0,0,1,.89,3.32c-.63,9.15,0,18.31-.42,27.46-.08,2,.66,4.93-2.78,5.42C493.12,463.41,488.1,456.51,483.85,449Z" transform="translate(-18.63 -242.87)"/><path class="cls-25" d="M550.93,418.89q0-32.06,0-64.1c0-1.75,1.07-4.21-2-4.85a18,18,0,0,1,9.73-3.13l1.25.21c1.76,1.88,1.62,4.27,1.62,6.58q.06,30.33,0,60.68c0,2.3.14,4.69-1.62,6.58l-1.25.21A14.76,14.76,0,0,1,550.93,418.89Z" transform="translate(-18.63 -242.87)"/><path class="cls-15" d="M575.84,460.75c0,9.31-.23,18.63.18,27.93.19,4.17-.93,6.43-5,7-5.81.4-11.61.79-17.35-.7,3.58.38,4.44-1.39,4.37-4.73-.19-9.5-.07-19-.07-28.49Z" transform="translate(-18.63 -242.87)"/><path class="cls-26" d="M591.87,544.66c-.62-5.59,1.38-11.37-1.12-16.84a153.65,153.65,0,0,0,42.86-18c5.55.21,3.26,4,3.15,6.86A141.82,141.82,0,0,1,591.87,544.66Z" transform="translate(-18.63 -242.87)"/><path class="cls-27" d="M620.85,285.94c.26-4.93-.74-9.95,1-14.79,13,7.85,23.39,18.55,32.94,30.13a138.31,138.31,0,0,1,22,36.66c.42,1.05-.08,1.2-1,1C662.74,315.82,644.09,298.49,620.85,285.94Z" transform="translate(-18.63 -242.87)"/><path class="cls-28" d="M499.7,469.07c2-1.46,1.18-3.63,1.26-5.51.47-10.23-1-20.52,1.05-30.69,4.86,5.54,10.56,10.19,15.93,15.2-1.66,2.78-.89,5.85-.94,8.79-.13,8.47-.12,16.95-.16,25.43A61,61,0,0,1,499.7,469.07Z" transform="translate(-18.63 -242.87)"/><path class="cls-29" d="M538.91,356.93c1.26.95,1,2.34,1,3.64v46.74c0,1.31.23,2.7-1.05,3.65C523.38,396.65,523.39,371.18,538.91,356.93Z" transform="translate(-18.63 -242.87)"/><path class="cls-30" d="M593.83,408.78a267.58,267.58,0,0,1,0-49.67C606.57,372.72,606.57,395.22,593.83,408.78Z" transform="translate(-18.63 -242.87)"/><path class="cls-31" d="M639.76,344.28c-1.86,3.7-.58,7.65-.91,11.48-.16,1.9.33,4-1.83,5.14-7.37-21.21-20.48-37.42-41-47.13-.16-.85-.07-1.41,1-.89C614.29,319.16,628.88,329.18,639.76,344.28Z" transform="translate(-18.63 -242.87)"/><path class="cls-32" d="M636.76,516.68c-2.17-1.77.94-6-3.15-6.86,12.63-9,24.09-19.27,33.35-31.82.85-.16,1.41-.07.89,1A139,139,0,0,1,636.76,516.68Z" transform="translate(-18.63 -242.87)"/><path class="cls-33" d="M675.83,338.92l1-1a21.16,21.16,0,0,1,3.06,7c.44,1,0,1.16-.89.88C677.92,343.49,676.88,341.21,675.83,338.92Z" transform="translate(-18.63 -242.87)"/><path class="cls-24" d="M484.89,388.91a12.18,12.18,0,0,1,0-9.93Q484.87,383.95,484.89,388.91Z" transform="translate(-18.63 -242.87)"/><path class="cls-34" d="M667.85,479l-.89-1c.72-1.42,1.27-3,3.36-3.88A7.58,7.58,0,0,1,667.85,479Z" transform="translate(-18.63 -242.87)"/><path class="cls-35" d="M679,345.78l.89-.88c1.28,1.44,1.56,3.26,1.95,5.05a.64.64,0,0,1-1,0C680.17,348.57,679.57,347.17,679,345.78Z" transform="translate(-18.63 -242.87)"/><path class="cls-36" d="M588.89,309.88c.94.27,2.94-.21,2.4,1.26s-2.14-.48-3.33-.23C587.64,310,587.88,309.59,588.89,309.88Z" transform="translate(-18.63 -242.87)"/><path class="cls-37" d="M673.44,468.48a3,3,0,0,1-1.41,3.17c-.12.09-.74-.31-.74-.32C671.73,470.23,671.89,468.89,673.44,468.48Z" transform="translate(-18.63 -242.87)"/><path class="cls-38" d="M513.7,323.69c-.72.56-1.77,1.74-2.08,1.57-1.54-.85-.06-1.33.49-1.81a3,3,0,0,1,1.2-.38Z" transform="translate(-18.63 -242.87)"/><path class="cls-39" d="M516.52,322.26c-1.36.05-1.53-.46-1.28-.82a3.21,3.21,0,0,1,1.41-1.12c.5-.18.86.19.56.77S516.57,322.18,516.52,322.26Z" transform="translate(-18.63 -242.87)"/><path class="cls-40" d="M597,312.88l-1,.89-2.68-1.07C594.85,311.14,595.91,312,597,312.88Z" transform="translate(-18.63 -242.87)"/><path class="cls-41" d="M680.77,350h1c.82.68,1.54,1.8.3,2.2C681.13,352.47,680.86,351,680.77,350Z" transform="translate(-18.63 -242.87)"/><path class="cls-42" d="M588.89,309.88l-.93,1c-.8-.1-2-.23-1.51-1.26S588.13,309,588.89,309.88Z" transform="translate(-18.63 -242.87)"/><path class="cls-23" d="M517.62,555c1.79.08,3.7-.73,5.3.74C521.1,555.85,519.27,556.07,517.62,555Z" transform="translate(-18.63 -242.87)"/><path class="cls-43" d="M454.1,683.19c0,6.55-3.27,15.34-11.59,21.64a25.88,25.88,0,0,1-36.33-5.22c-8.86-11.79-8.18-30.3,1.52-41.15a26.2,26.2,0,0,1,29.15-6.7C447.59,655.92,454.08,666.37,454.1,683.19Z" transform="translate(-18.63 -242.87)"/><path class="cls-44" d="M894,670.45c-6.82,0-13.64-.09-20.46,0-2.53,0-3.6-.37-3.05-3.3,1.94-10.52,11.23-18.28,22.79-18.76,12-.51,22,6.46,24.59,16.89.9,3.66.75,5.52-3.92,5.23C907.37,670.14,900.69,670.45,894,670.45Z" transform="translate(-18.63 -242.87)"/><path class="cls-43" d="M519,681.39c.35-12.85,3.31-22.88,14.11-28.77a25.73,25.73,0,0,1,36.53,14.6,40.81,40.81,0,0,1,.19,24.55c-3.57,11.94-14.19,19-27,18.33-11.41-.63-20.45-8.81-22.79-20.79C519.39,686.22,518.71,683.11,519,681.39Z" transform="translate(-18.63 -242.87)"/><path class="cls-43" d="M328.59,679.58c-.46,19-11.1,30.67-27,30.56-11.23-.07-20.11-6.54-23.53-17.36a42.06,42.06,0,0,1-.29-24.64c3.43-12,14-19.23,26.39-18.4s22.1,10.11,23.89,22.94C328.41,675.31,328.47,678,328.59,679.58Z" transform="translate(-18.63 -242.87)"/><path class="cls-45" d="M559.91,420.86V347c10-.22,10-.22,10,9.79v57.24c0,6.91,0,6.91-7,6.88C561.89,420.92,560.9,420.88,559.91,420.86Z" transform="translate(-18.63 -242.87)"/></svg>