<svg xmlns="http://www.w3.org/2000/svg" xmlns:xlink="http://www.w3.org/1999/xlink" width="500" zoomAndPan="magnify" viewBox="0 0 375 112.499997" height="150" preserveAspectRatio="xMidYMid meet" version="1.0"><defs><g/><clipPath id="id1"><path d="M 20.617188 17.578125 L 64.671875 17.578125 L 64.671875 75.074219 L 20.617188 75.074219 Z M 20.617188 17.578125 " clip-rule="nonzero"/></clipPath><clipPath id="id2"><path d="M 7.960938 32.5625 L 41.5625 32.5625 L 41.5625 75.867188 L 7.960938 75.867188 Z M 7.960938 32.5625 " clip-rule="nonzero"/></clipPath><clipPath id="id3"><path d="M 7.046875 68.886719 L 57.074219 68.886719 L 57.074219 77.101562 L 7.046875 77.101562 Z M 7.046875 68.886719 " clip-rule="nonzero"/></clipPath></defs><g clip-path="url(#id1)"><path fill="#007dff" d="M 38.738281 17.578125 L 64.667969 17.578125 L 46.550781 75.074219 L 20.617188 75.074219 L 38.738281 17.578125 " fill-opacity="1" fill-rule="nonzero"/></g><g clip-path="url(#id2)"><path fill="#38b6ff" d="M 21.78125 32.5625 L 41.5625 32.5625 L 27.742188 75.867188 L 7.960938 75.867188 L 21.78125 32.5625 " fill-opacity="1" fill-rule="nonzero"/></g><g clip-path="url(#id3)"><path fill="#103d7b" d="M 18.632812 68.886719 L 57.070312 68.886719 L 45.492188 77.101562 L 7.054688 77.101562 L 18.632812 68.886719 " fill-opacity="1" fill-rule="nonzero"/></g><g fill="#2b2b2b" fill-opacity="1"><g transform="translate(63.281806, 77.806088)"><g><path d="M 2.355469 0 L 14.625 0 L 23.644531 -56.878906 L 11.375 -56.878906 Z M 2.355469 0 "/></g></g></g><g fill="#2b2b2b" fill-opacity="1"><g transform="translate(87.737547, 77.806088)"><g><path d="M 0.976562 0 L 12.269531 0 L 16.25 -25.1875 C 18.445312 -27.546875 22.261719 -30.308594 26.40625 -30.308594 C 30.46875 -30.308594 32.988281 -28.277344 32.175781 -22.996094 L 28.519531 0 L 39.8125 0 L 43.632812 -23.96875 C 45.015625 -32.828125 40.300781 -40.140625 30.632812 -40.140625 C 25.59375 -40.140625 20.394531 -37.78125 16.332031 -33.964844 L 17.144531 -39 L 7.148438 -39 Z M 0.976562 0 "/></g></g></g><g fill="#2b2b2b" fill-opacity="1"><g transform="translate(135.592808, 77.806088)"><g><path d="M 13.082031 0 L 25.027344 0 L 47.777344 -39 L 35.101562 -39 L 20.476562 -11.945312 L 14.707031 -39 L 3.167969 -39 Z M 13.082031 0 "/></g></g></g><g fill="#2b2b2b" fill-opacity="1"><g transform="translate(181.416856, 77.806088)"><g><path d="M 20.71875 1.136719 C 31.203125 1.136719 42.820312 -5.199219 44.851562 -18.527344 C 47.128906 -32.5 37.214844 -40.140625 26.246094 -40.140625 C 15.277344 -40.140625 4.144531 -33.800781 2.03125 -20.476562 C -0.164062 -6.5 9.261719 1.136719 20.71875 1.136719 Z M 21.613281 -9.019531 C 15.113281 -9.019531 12.511719 -13.730469 13.324219 -19.339844 C 14.382812 -25.675781 18.933594 -29.984375 25.433594 -29.984375 C 31.851562 -29.984375 34.453125 -25.269531 33.558594 -19.664062 C 32.5 -13.324219 28.03125 -9.019531 21.613281 -9.019531 Z M 21.613281 -9.019531 "/></g></g></g><g fill="#2b2b2b" fill-opacity="1"><g transform="translate(229.597104, 77.806088)"><g><path d="M 25.351562 1.136719 C 38.027344 1.136719 45.503906 -8.53125 47.128906 -18.769531 C 48.914062 -29.820312 42.820312 -40.140625 30.957031 -40.140625 C 25.515625 -40.140625 21.042969 -37.945312 17.714844 -34.695312 L 21.289062 -56.878906 L 9.996094 -56.878906 L 0.976562 0 L 10.96875 0 L 12.1875 -6.175781 C 13.976562 -2.519531 18.28125 1.136719 25.351562 1.136719 Z M 22.996094 -8.371094 C 18.527344 -8.371094 15.601562 -11.214844 14.542969 -14.707031 L 16.089844 -23.808594 C 18.363281 -27.382812 22.589844 -30.632812 27.789062 -30.632812 C 33.882812 -30.632812 36.644531 -25.433594 35.75 -19.582031 C 34.777344 -13.082031 29.984375 -8.371094 22.996094 -8.371094 Z M 22.996094 -8.371094 "/></g></g></g><g fill="#2b2b2b" fill-opacity="1"><g transform="translate(279.971071, 77.806088)"><g><path d="M 20.71875 1.136719 C 31.203125 1.136719 42.820312 -5.199219 44.851562 -18.527344 C 47.128906 -32.5 37.214844 -40.140625 26.246094 -40.140625 C 15.277344 -40.140625 4.144531 -33.800781 2.03125 -20.476562 C -0.164062 -6.5 9.261719 1.136719 20.71875 1.136719 Z M 21.613281 -9.019531 C 15.113281 -9.019531 12.511719 -13.730469 13.324219 -19.339844 C 14.382812 -25.675781 18.933594 -29.984375 25.433594 -29.984375 C 31.851562 -29.984375 34.453125 -25.269531 33.558594 -19.664062 C 32.5 -13.324219 28.03125 -9.019531 21.613281 -9.019531 Z M 21.613281 -9.019531 "/></g></g></g><g fill="#2b2b2b" fill-opacity="1"><g transform="translate(328.151319, 77.806088)"><g><path d="M 18.199219 1.136719 C 22.183594 1.136719 25.921875 0.488281 28.4375 -0.570312 L 29.820312 -9.832031 C 27.464844 -8.9375 25.109375 -8.371094 22.34375 -8.371094 C 18.199219 -8.371094 16.574219 -9.75 17.226562 -13.894531 L 19.746094 -29.496094 L 32.09375 -29.496094 L 33.558594 -39 L 21.289062 -39 L 23.480469 -53.058594 L 11.78125 -50.296875 L 9.996094 -39 L 3.414062 -39 L 1.867188 -29.496094 L 8.449219 -29.496094 L 5.769531 -12.351562 C 4.226562 -2.601562 10.808594 1.136719 18.199219 1.136719 Z M 18.199219 1.136719 "/></g></g></g></svg>