<svg width="114" height="114" viewBox="0 0 114 114" fill="none" xmlns="http://www.w3.org/2000/svg">
<circle opacity="0.1" cx="57" cy="57" r="57" fill="#9868D3"/>
<path fill-rule="evenodd" clip-rule="evenodd" d="M51.0801 40.7038C44.4221 43.1229 39.6665 49.5061 39.6665 57C39.6665 58.0309 39.7565 59.0407 39.9291 60.0221L55.1627 55.9403L51.0801 40.7038ZM53.9783 39.9291L58.1899 55.6468L58.2015 55.6902C58.2515 55.8759 58.3221 56.1378 58.353 56.378C58.392 56.6807 58.4012 57.1595 58.1195 57.6474C57.8378 58.1353 57.4186 58.3667 57.1369 58.4843C56.9135 58.5776 56.6514 58.6475 56.4656 58.697L56.4655 58.697L56.4221 58.7086L40.7039 62.9203C43.1232 69.578 49.5062 74.3333 56.9998 74.3333C66.5728 74.3333 74.3332 66.5729 74.3332 57C74.3332 47.4271 66.5728 39.6667 56.9998 39.6667C55.9692 39.6667 54.9596 39.7566 53.9783 39.9291Z" fill="#9868D3"/>
<path d="M51.9099 38.0035C51.6619 37.0779 51.5379 36.6151 51.1458 36.4122C50.7537 36.2094 50.3314 36.3654 49.487 36.6776C47.4519 37.43 45.5376 38.4852 43.8102 39.8107C41.5529 41.5428 39.6588 43.7026 38.2362 46.1667C36.8135 48.6308 35.8901 51.351 35.5187 54.1719C35.2345 56.3307 35.2778 58.516 35.6438 60.6547C35.7957 61.5421 35.8716 61.9858 36.2434 62.2239C36.6152 62.4621 37.0779 62.3381 38.0035 62.0901L55.0682 57.5176C55.9789 57.2736 56.4342 57.1516 56.6413 56.7929C56.8484 56.4342 56.7264 55.9788 56.4824 55.0681L51.9099 38.0035Z" fill="#9868D3"/>
</svg>
