<svg width="114" height="114" viewBox="0 0 114 114" fill="none" xmlns="http://www.w3.org/2000/svg">
<circle opacity="0.1" cx="57" cy="57" r="57" fill="#5784F7"/>
<path fill-rule="evenodd" clip-rule="evenodd" d="M35.3334 57.0325C35.3334 45.6188 44.455 35.3333 57.0434 35.3333C69.35 35.3333 78.6667 45.4235 78.6667 56.9674C78.6667 70.3559 67.7467 78.6667 57 78.6667C53.4467 78.6667 49.5034 77.7119 46.34 75.8458C45.235 75.1731 44.3034 74.674 43.1117 75.0646L38.735 76.3665C37.63 76.7137 36.6334 75.8458 36.9584 74.674L38.41 69.8134C38.6484 69.1407 38.605 68.4246 38.2584 67.8605C36.395 64.432 35.3334 60.678 35.3334 57.0325ZM54.1834 57.0325C54.1834 58.5732 55.4184 59.81 56.9567 59.8317C58.495 59.8317 59.73 58.5732 59.73 57.0542C59.73 55.5136 58.495 54.2767 56.9567 54.2767C55.44 54.255 54.1834 55.5136 54.1834 57.0325ZM64.1717 57.0542C64.1717 58.5732 65.4067 59.8317 66.945 59.8317C68.4834 59.8317 69.7184 58.5732 69.7184 57.0542C69.7184 55.5136 68.4834 54.2767 66.945 54.2767C65.4067 54.2767 64.1717 55.5136 64.1717 57.0542ZM46.9684 59.8317C45.4517 59.8317 44.195 58.5732 44.195 57.0542C44.195 55.5136 45.43 54.2767 46.9684 54.2767C48.5067 54.2767 49.7417 55.5136 49.7417 57.0542C49.7417 58.5732 48.5067 59.81 46.9684 59.8317Z" fill="#5784F7"/>
</svg>
