<svg width="114" height="114" viewBox="0 0 114 114" fill="none" xmlns="http://www.w3.org/2000/svg">
<circle opacity="0.1" cx="57" cy="57" r="57" fill="#FFB300"/>
<path d="M77.4433 36.5943C76.3595 35.482 74.7555 35.0676 73.2599 35.5038L38.384 45.6456C36.806 46.084 35.6875 47.3425 35.3862 48.9412C35.0785 50.5683 36.1536 52.6337 37.5581 53.4974L48.4631 60.1997C49.5816 60.8868 51.0251 60.7145 51.9507 59.781L64.438 47.216C65.0666 46.5617 66.107 46.5617 66.7356 47.216C67.3642 47.8485 67.3642 48.8736 66.7356 49.5279L54.2266 62.0951C53.2989 63.0264 53.1255 64.4768 53.8083 65.6022L60.4713 76.6165C61.2517 77.9251 62.5956 78.6667 64.0695 78.6667C64.2429 78.6667 64.438 78.6667 64.6114 78.6449C66.3021 78.4267 67.646 77.2708 68.1445 75.635L78.4837 40.8037C78.9389 39.3206 78.5271 37.7066 77.4433 36.5943Z" fill="#FFB300"/>
</svg>
