<svg width="294" height="246" viewBox="0 0 294 246" fill="none" xmlns="http://www.w3.org/2000/svg">
<path fill-rule="evenodd" clip-rule="evenodd" d="M145.542 186.128C187.999 186.128 222.417 151.709 222.417 109.252C222.417 66.7956 187.999 32.3774 145.542 32.3774C103.085 32.3774 68.667 66.7956 68.667 109.252C68.667 151.709 103.085 186.128 145.542 186.128ZM182.397 85.8681C183.635 84.3832 183.434 82.1762 181.949 80.9387C180.464 79.7012 178.257 79.9019 177.02 81.3868L136.765 129.693L113.85 106.778C112.483 105.411 110.267 105.411 108.9 106.778C107.534 108.144 107.534 110.361 108.9 111.727L134.525 137.352L137.236 140.062L139.689 137.118L182.397 85.8681Z" fill="#12B76A"/>
<circle cx="47.1496" cy="20.5004" r="12.3" fill="#12B76A" fill-opacity="0.4"/>
<circle cx="280.85" cy="75.8501" r="12.3" fill="#12B76A" fill-opacity="0.4"/>
<circle cx="279.825" cy="212.175" r="7.175" fill="#12B76A" fill-opacity="0.4"/>
<circle cx="212.175" cy="7.175" r="7.175" fill="#12B76A" fill-opacity="0.4"/>
<circle cx="42.0246" cy="169.125" r="7.175" fill="#12B76A" fill-opacity="0.4"/>
<circle cx="111.725" cy="238.825" r="7.175" fill="#12B76A" fill-opacity="0.4"/>
<circle cx="5.125" cy="87.1248" r="5.125" fill="#12B76A" fill-opacity="0.4"/>
<circle cx="197.825" cy="208.075" r="5.125" fill="#12B76A" fill-opacity="0.4"/>
</svg>

