<svg width="34" height="33" viewBox="0 0 34 33" fill="none" xmlns="http://www.w3.org/2000/svg">
<path d="M19.2818 24.8233C19.5232 24.7516 19.8375 24.5716 19.9641 24.1212L24.7879 6.96839C24.9183 6.50465 24.7321 6.18694 24.553 6.00209C24.3739 5.81723 24.0658 5.62495 23.6156 5.75868L6.48017 10.8484C6.02994 10.9821 5.85708 11.3173 5.79134 11.5748C5.72559 11.8324 5.7171 12.208 6.04997 12.5341L18.3616 24.5972C18.6849 24.9139 19.0405 24.895 19.2818 24.8233ZM20.2618 28.6469C18.7123 29.1071 16.9646 28.7939 15.6608 27.5164L3.34914 15.4533C0.664237 12.8226 1.86862 8.10345 5.50019 7.02477L22.6356 1.93505C26.2672 0.856364 29.5491 4.243 28.4971 7.98365L23.6733 25.1364C23.1625 26.9529 21.8113 28.1867 20.2618 28.6469Z" fill="#5784F7"/>
</svg>
