<svg width="564" height="507" viewBox="0 0 564 507" fill="none" xmlns="http://www.w3.org/2000/svg">
<g filter="url(#filter0_d_166_227)">
<path d="M84.8265 111.27C86.8415 98.8455 96.5516 89.2069 108.989 87.2723C146.523 81.4338 227.304 70 284.292 70C340.791 70 420.676 81.2385 458.619 87.1208C471.542 89.1242 481.442 99.3934 483.014 112.376C487.03 145.536 494 209.702 494 255.562C494 301.07 487.136 364.604 483.107 397.979C481.495 411.333 471.091 421.761 457.741 423.412C419.456 428.146 340.359 437 284.292 437C227.722 437 147.707 427.987 109.822 423.286C96.9619 421.69 86.7754 411.908 84.707 399.115C79.3626 366.063 70 301.592 70 255.562C70 209.187 79.5036 144.092 84.8265 111.27Z" fill="white"/>
</g>
<defs>
<filter id="filter0_d_166_227" x="0" y="0" width="564" height="507" filterUnits="userSpaceOnUse" color-interpolation-filters="sRGB">
<feFlood flood-opacity="0" result="BackgroundImageFix"/>
<feColorMatrix in="SourceAlpha" type="matrix" values="0 0 0 0 0 0 0 0 0 0 0 0 0 0 0 0 0 0 127 0" result="hardAlpha"/>
<feOffset/>
<feGaussianBlur stdDeviation="35"/>
<feColorMatrix type="matrix" values="0 0 0 0 0.400486 0 0 0 0 0.497179 0 0 0 0 0.658333 0 0 0 0.1 0"/>
<feBlend mode="normal" in2="BackgroundImageFix" result="effect1_dropShadow_166_227"/>
<feBlend mode="normal" in="SourceGraphic" in2="effect1_dropShadow_166_227" result="shape"/>
</filter>
</defs>
</svg>
