<svg width="114" height="114" viewBox="0 0 114 114" fill="none" xmlns="http://www.w3.org/2000/svg">
<circle opacity="0.1" cx="57" cy="57" r="57" fill="#F04546"/>
<path d="M77.602 38.5562L75.4489 36.4031C75.3676 36.3219 75.2661 36.2863 75.1594 36.2863C75.0528 36.2863 74.9512 36.3269 74.87 36.4031L71.0055 40.2676C69.3256 39.1293 67.3422 38.5225 65.3129 38.5258C62.7129 38.5258 60.1129 39.516 58.1274 41.5016L52.9528 46.6762C52.8772 46.7525 52.8348 46.8556 52.8348 46.9631C52.8348 47.0705 52.8772 47.1736 52.9528 47.25L66.75 61.0473C66.8313 61.1285 66.9329 61.1641 67.0395 61.1641C67.1411 61.1641 67.2477 61.1234 67.329 61.0473L72.5036 55.8726C76.0024 52.3687 76.4137 46.9504 73.7375 42.9996L77.602 39.1351C77.7594 38.9726 77.7594 38.7137 77.602 38.5562ZM60.3973 58.7621C60.321 58.6865 60.2179 58.6441 60.1104 58.6441C60.0029 58.6441 59.8998 58.6865 59.8235 58.7621L56.4415 62.1441L51.8559 57.5586L55.243 54.1715C55.4004 54.0141 55.4004 53.7551 55.243 53.5976L53.3946 51.7492C53.3182 51.6736 53.2151 51.6312 53.1077 51.6312C53.0002 51.6312 52.8971 51.6736 52.8208 51.7492L49.4336 55.1363L47.25 52.9527C47.2121 52.9148 47.167 52.8849 47.1172 52.8648C47.0675 52.8447 47.0142 52.8349 46.9606 52.8359C46.859 52.8359 46.7524 52.8766 46.6711 52.9527L41.5016 58.1273C38.0028 61.6262 37.5915 67.0496 40.2676 71.0004L36.4032 74.8648C36.3276 74.9412 36.2852 75.0443 36.2852 75.1517C36.2852 75.2592 36.3276 75.3623 36.4032 75.4387L38.5563 77.5918C38.6375 77.673 38.7391 77.7086 38.8458 77.7086C38.9524 77.7086 39.054 77.668 39.1352 77.5918L42.9997 73.7273C44.711 74.8902 46.7016 75.4691 48.6922 75.4691C51.2922 75.4691 53.8922 74.4789 55.8778 72.4934L61.0524 67.3187C61.2098 67.1613 61.2098 66.9023 61.0524 66.7449L58.8688 64.5613L62.2559 61.1742C62.4133 61.0168 62.4133 60.7578 62.2559 60.6004L60.3973 58.7621Z" fill="#F04546"/>
</svg>
