<svg width="114" height="114" viewBox="0 0 114 114" fill="none" xmlns="http://www.w3.org/2000/svg">
<circle opacity="0.1" cx="57" cy="57" r="57" fill="#11B3E2"/>
<path fill-rule="evenodd" clip-rule="evenodd" d="M66.0096 48.8378C66.0096 53.9288 61.9511 58.011 56.8895 58.011C51.828 58.011 47.7694 53.9288 47.7694 48.8378C47.7694 43.7449 51.828 39.6667 56.8895 39.6667C61.9511 39.6667 66.0096 43.7449 66.0096 48.8378ZM56.8895 74.3333C49.4553 74.3333 43.1075 73.1547 43.1075 68.4404C43.1075 63.724 49.4146 62.5025 56.8895 62.5025C64.3238 62.5025 70.6716 63.6811 70.6716 68.3974C70.6716 73.1118 64.3645 74.3333 56.8895 74.3333ZM69.907 49.0033C69.907 51.5986 69.1329 54.0162 67.7749 56.0261C67.6352 56.2329 67.7594 56.512 68.0058 56.5549C68.3453 56.6134 68.6964 56.6466 69.0534 56.6564C72.6133 56.75 75.8086 54.4455 76.6913 50.9761C77.9989 45.8227 74.1596 41.1961 69.2707 41.1961C68.7391 41.1961 68.2308 41.2527 67.7361 41.3542C67.6682 41.3698 67.5964 41.401 67.5576 41.4615C67.511 41.5356 67.546 41.6351 67.5925 41.6995C69.0611 43.7699 69.907 46.2949 69.907 49.0033ZM75.8028 60.2772C78.1948 60.7475 79.7682 61.7075 80.4201 63.1027C80.971 64.2481 80.971 65.577 80.4201 66.7205C79.4229 68.8845 76.2082 69.5791 74.9589 69.7587C74.7008 69.7977 74.4932 69.5733 74.5204 69.3138C75.1587 63.3174 70.0816 60.4743 68.7682 59.8206C68.7119 59.7913 68.7003 59.7465 68.7061 59.7191C68.71 59.6996 68.7333 59.6684 68.776 59.6626C71.6181 59.6099 74.6737 60.0001 75.8028 60.2772ZM44.947 56.6562C45.304 56.6464 45.6532 56.6152 45.9946 56.5547C46.241 56.5118 46.3652 56.2327 46.2255 56.0259C44.8675 54.016 44.0934 51.5984 44.0934 49.0031C44.0934 46.2947 44.9393 43.7697 46.4079 41.6993C46.4544 41.6349 46.4874 41.5354 46.4428 41.4613C46.404 41.4027 46.3303 41.3696 46.2643 41.354C45.7677 41.2525 45.2594 41.1959 44.7278 41.1959C39.8389 41.1959 35.9996 45.8225 37.3091 50.9759C38.1918 54.4453 41.3871 56.7498 44.947 56.6562ZM45.2933 59.718C45.2991 59.7472 45.2875 59.7902 45.2332 59.8214C43.9178 60.4751 38.8408 63.3181 39.479 69.3126C39.5062 69.5741 39.3005 69.7965 39.0425 69.7594C37.7931 69.5799 34.5785 68.8853 33.5813 66.7212C33.0284 65.5758 33.0284 64.2489 33.5813 63.1035C34.2332 61.7083 35.8046 60.7483 38.1967 60.276C39.3277 60.0009 42.3813 59.6107 45.2254 59.6633C45.2681 59.6692 45.2894 59.7004 45.2933 59.718Z" fill="#11B3E2"/>
</svg>
