<svg width="114" height="114" viewBox="0 0 114 114" fill="none" xmlns="http://www.w3.org/2000/svg">
<circle opacity="0.1" cx="57" cy="57" r="57" fill="#00C269"/>
<path fill-rule="evenodd" clip-rule="evenodd" d="M32 48.4843L53.0708 60.6495C53.2977 60.7805 53.5356 60.8751 53.7778 60.9352V84.529L33.5028 72.5303C32.5713 71.979 32 70.977 32 69.8947V48.4843ZM81.0001 48.1605V69.8943C81.0001 70.9767 80.4288 71.9786 79.4974 72.5299L59.2224 84.5287V60.7281C59.2718 60.7034 59.3207 60.6771 59.3692 60.6491L81.0001 48.1605Z" fill="#00C269"/>
<path fill-rule="evenodd" clip-rule="evenodd" d="M32.6619 42.579C32.9193 42.254 33.2441 41.9793 33.6229 41.7776L55.0604 30.3595C55.9603 29.8802 57.0398 29.8802 57.9397 30.3595L79.3772 41.7776C79.6692 41.9331 79.9291 42.1319 80.1508 42.3638L56.6469 55.9338C56.4923 56.023 56.3498 56.1251 56.22 56.2379C56.0901 56.1251 55.9476 56.023 55.7931 55.9338L32.6619 42.579Z" fill="#00C269"/>
</svg>
