<svg width="29" height="68" viewBox="0 0 29 68" fill="none" xmlns="http://www.w3.org/2000/svg">
<path opacity="0.5" fill-rule="evenodd" clip-rule="evenodd" d="M8.44212 0.0123857C7.87858 -0.0158141 7.32147 0.0139953 6.75959 0.0600177L6.7936 0.050906C6.3178 0.0439953 5.86709 0.164762 5.41638 0.285528C4.77988 0.455414 4.17118 0.723515 3.59842 1.08625C2.65459 1.63589 1.87265 2.56756 1.31853 3.80275L1.38698 3.65L1.10677 4.20295L0.871757 4.78859C0.814895 4.90576 0.766777 5.03362 0.728014 5.17057C0.702518 5.29772 0.693468 5.4366 0.701263 5.58094C0.70913 5.69969 0.740157 5.82116 0.790407 5.92998C0.840656 6.0388 0.907875 6.13006 0.983549 6.19223C1.08399 6.27575 1.19143 6.31606 1.29173 6.30784C1.39203 6.29963 1.48048 6.24328 1.54542 6.14621C1.60109 6.064 1.63434 5.95102 1.64084 5.82198L1.6409 5.82186C1.78047 5.56049 1.92004 5.29914 2.07558 5.06336C2.20813 4.85128 2.35557 4.66191 2.51633 4.49726C2.87078 4.14289 3.25752 3.85417 3.67079 3.63539C4.70375 3.18679 5.79454 2.92455 6.92467 2.85311C7.82918 2.79557 8.74822 2.81853 9.67744 2.92191C10.6332 3.03748 11.5968 3.22785 12.5646 3.49229L14.1067 3.97509C14.4957 4.10328 14.8775 4.2557 15.2639 4.40994C15.3244 4.43408 15.385 4.45828 15.4458 4.48242L16.3009 4.85062C16.4149 4.89451 16.5285 4.9501 16.643 5.00619C16.7124 5.04012 16.782 5.07424 16.8524 5.10604L17.8299 5.59078C18.2986 5.82609 18.7646 6.10011 19.2256 6.41148C20.229 7.09849 21.2049 7.94438 22.1341 8.93241C22.8835 9.79286 23.584 10.763 24.2211 11.8228C24.8594 12.8983 25.4224 14.0623 25.8965 15.2864C26.2156 16.1925 26.4664 17.1287 26.6432 18.073C26.7834 18.9693 26.8574 19.8614 26.8635 20.7318C26.8268 21.6407 26.7219 22.5151 26.5505 23.3394C26.3044 24.3704 25.9777 25.329 25.5758 26.199C25.4239 26.5013 25.2398 26.8283 25.0797 27.1123C25.0206 27.2174 24.9647 27.3165 24.915 27.4065C24.7308 27.7395 24.5163 28.0957 24.2737 28.4146L23.5467 29.3411C23.1904 29.78 22.8871 30.145 22.4893 30.5652L22.4891 30.5654C22.0914 30.9855 21.6936 31.4057 21.2884 31.7979C20.8369 32.2673 20.3663 32.722 19.8765 33.1618L17.0468 35.6971C16.4768 36.2232 15.9143 36.7771 15.3763 37.3543L14.4139 38.3887C14.2054 38.6248 14.005 38.8737 13.8056 39.1214C13.7241 39.2227 13.6427 39.3238 13.561 39.4237C13.0494 40.0276 12.5994 40.7087 12.1454 41.3959C12.1201 41.4342 12.0948 41.4725 12.0695 41.5108C11.8537 41.8371 11.65 42.2086 11.4641 42.5475C11.4433 42.5855 11.4226 42.6232 11.4022 42.6602C11.2816 42.8796 11.1664 43.1187 11.0499 43.3604C10.971 43.524 10.8915 43.6888 10.8094 43.8495C10.3801 44.6963 10.0072 45.6175 9.64647 46.5504C9.31235 47.3978 9.02257 48.2936 8.77906 49.2319C8.72562 49.4135 8.68495 49.6033 8.64411 49.7938C8.61933 49.9095 8.59447 50.0254 8.56666 50.14C8.48099 50.5614 8.4153 50.998 8.37002 51.4471C8.29715 52.2324 8.31693 53.0649 8.42851 53.9104C8.53798 54.7204 8.70651 55.532 8.93084 56.3294C9.18281 57.1547 9.48396 57.9595 9.82975 58.7317C10.4272 60.1521 11.229 61.3955 12.1534 62.3352C12.269 62.4645 12.3888 62.5821 12.512 62.6871C12.6269 62.7791 12.7436 62.8625 12.8615 62.937C13.0022 63.0513 13.1482 63.1379 13.2949 63.1941L13.6486 63.3234C13.8315 63.4069 14.0121 63.3955 14.1594 63.291C14.2936 63.1836 14.3852 62.995 14.4179 62.7588C14.4311 62.6391 14.4263 62.5099 14.4039 62.3795C14.3816 62.2492 14.3421 62.1206 14.288 62.0022C14.2108 61.8506 14.1138 61.7225 14.006 61.6298C13.8846 61.4831 13.7511 61.3247 13.625 61.1943L13.2871 60.8517C13.1897 60.7434 13.089 60.6397 12.9883 60.536C12.8876 60.4324 12.7869 60.3287 12.6895 60.2204C12.3256 59.8104 11.9827 59.3516 11.6666 58.8518C11.2602 58.1272 10.9022 57.3506 10.6003 56.5391C10.3488 55.8385 10.1541 55.112 10.0216 54.3795C9.93186 53.806 9.87953 53.2346 9.86547 52.6741C9.9106 51.9423 10.0096 51.24 10.1608 50.579C10.2859 50.1274 10.4195 49.6734 10.5616 49.2172C10.6736 48.8574 10.8009 48.5121 10.9296 48.1631C10.964 48.0695 10.9986 47.9757 11.033 47.8813C11.298 47.1466 11.6046 46.4596 11.9132 45.7683C11.9517 45.6819 11.9903 45.5955 12.0288 45.5089L12.5123 44.558C12.6016 44.3781 12.6976 44.2115 12.7932 44.0454C12.8623 43.9254 12.9313 43.8056 12.9974 43.6813L13.488 42.8928C13.5218 42.8401 13.5556 42.7868 13.5894 42.7333C13.7289 42.5128 13.8701 42.2896 14.0295 42.0907L14.7405 41.1385C14.9088 40.9042 15.0947 40.6933 15.2824 40.4802C15.3317 40.4243 15.3811 40.3682 15.4304 40.3116C15.712 39.9646 16.0113 39.641 16.3124 39.3153C16.3923 39.2289 16.4723 39.1424 16.5521 39.0553L17.9915 37.6242C18.6085 36.9987 19.2426 36.4276 19.8755 35.8576C20.4337 35.3549 20.9909 34.853 21.5346 34.3154L22.4455 33.4292L23.4287 32.4042L24.3703 31.3604C24.5427 31.1648 24.7043 30.9589 24.8659 30.753C24.9466 30.6501 25.0274 30.5472 25.1095 30.4455C26.3551 28.9534 27.3216 27.0088 27.9519 24.726C28.1311 24.024 28.2651 23.2836 28.3525 22.5131C28.4261 21.8013 28.4543 21.0641 28.4367 20.3103C28.387 18.7399 28.1109 17.1178 27.6272 15.5544C27.1374 13.9869 26.4906 12.4935 25.7149 11.1388C24.9666 9.7909 24.1249 8.55994 23.2121 7.47877C21.5375 5.61957 19.7269 4.16233 17.8667 3.17668L16.9976 2.7226L16.6046 2.51432L15.2686 1.91655C14.662 1.64231 14.0535 1.41894 13.4451 1.19558C13.2423 1.12112 13.0395 1.04666 12.8367 0.970312C12.4868 0.855002 12.1699 0.760722 11.8445 0.66872C11.2899 0.503731 10.7267 0.341017 10.1823 0.247972C9.59721 0.118327 9.01619 0.0396674 8.44212 0.0123857ZM19.9055 65.2177C20.0278 65.4653 19.9264 65.7652 19.6788 65.8875L15.6448 67.8817C15.3973 68.0041 15.0974 67.9026 14.975 67.6551C14.8526 67.4075 14.9541 67.1077 15.2017 66.9853L18.5879 65.3113L18.6888 65.0131L17.0148 61.6269C16.8925 61.3793 16.9939 61.0795 17.2415 60.9571C17.489 60.8347 17.7889 60.9362 17.9113 61.1837L19.9055 65.2177Z" fill="white"/>
</svg>
