<svg width="1920" height="961" viewBox="0 0 1920 961" fill="none" xmlns="http://www.w3.org/2000/svg">
<path d="M1227.27 940.331C1236.83 987.392 1235.43 1021.11 1226 1045.55C1216.57 1069.97 1199.1 1085.2 1176.38 1095.23C1153.64 1105.27 1125.66 1110.11 1095.24 1113.73C1084.97 1114.95 1074.42 1116.04 1063.71 1117.14C1042.72 1119.3 1021.1 1121.52 999.704 1124.98C935.141 1135.4 865.124 1131.85 817.848 1104.4C794.226 1090.69 776.289 1071.02 767.523 1044.14C758.754 1017.25 759.143 983.087 772.284 940.378C785.447 897.596 795.773 864.48 806.482 838.9C817.19 813.322 828.26 795.332 842.885 782.768C857.503 770.21 875.718 763.033 900.792 759.175C925.878 755.316 957.79 754.784 999.775 755.491C1005.27 755.584 1010.6 755.667 1015.79 755.747C1050.24 756.284 1078.02 756.716 1100.82 759.128C1127.04 761.903 1146.6 767.292 1162.1 778.42C1177.6 789.544 1189.11 806.447 1199.14 832.375C1209.17 858.31 1217.7 893.227 1227.27 940.331Z" stroke="#C9D1DD" stroke-opacity="0.15"/>
<path d="M1138.34 1006.78C1123.85 1037.96 1108.46 1057.94 1092.21 1070.04C1075.98 1082.12 1058.85 1086.37 1040.79 1085.99C1022.69 1085.62 1003.65 1080.61 983.633 1074.18C976.88 1072.01 970.014 1069.67 963.038 1067.3C949.367 1062.65 935.275 1057.86 920.798 1053.88C877.148 1041.88 836.252 1019.88 819.435 989.922C811.034 974.955 808.638 957.995 814.907 939.267C821.18 920.53 836.14 899.987 862.529 877.882C888.974 855.73 909.522 838.626 927.051 826.191C944.579 813.755 959.039 806.025 973.3 802.58C987.543 799.139 1001.65 799.958 1018.5 804.73C1035.37 809.505 1054.95 818.228 1080.12 830.566C1083.41 832.18 1086.61 833.744 1089.73 835.263C1110.41 845.363 1127.06 853.499 1139.85 861.42C1154.54 870.528 1164.06 879.314 1168.65 890.406C1173.24 901.499 1172.94 914.965 1167.84 933.491C1162.74 952.021 1152.86 975.561 1138.34 1006.78Z" stroke="#C9D1DD" stroke-opacity="0.15"/>
<path d="M1208.47 768.029C1271.09 804.367 1308.35 836.63 1327.55 866.378C1346.73 896.106 1347.89 923.345 1338.27 949.691C1328.64 976.061 1308.2 1001.55 1284.12 1027.74C1275.99 1036.59 1267.44 1045.52 1258.76 1054.58C1241.75 1072.35 1224.24 1090.64 1208.33 1109.91C1160.34 1168.03 1091.34 1217.34 1016.13 1227.48C941.012 1237.62 859.476 1208.69 786.295 1109.92C749.665 1060.49 721.426 1022.11 702.148 990.404C682.869 958.698 672.581 933.716 671.802 911.079C671.024 888.463 679.738 868.138 698.59 845.743C717.454 823.333 746.449 798.872 786.204 767.989C791.404 763.949 796.447 760.019 801.348 756.2C833.926 730.812 860.186 710.348 884.087 695.456C911.571 678.33 935.872 668.614 962.985 667.254C990.107 665.892 1020.13 672.888 1059.07 689.339C1098.01 705.791 1145.81 731.673 1208.47 768.029Z" stroke="#C9D1DD" stroke-opacity="0.15"/>
<path d="M1353.5 861.636C1392.43 931.208 1407.54 983.879 1405.4 1024.93C1403.27 1065.96 1383.91 1095.45 1353.74 1118.64C1323.57 1141.85 1282.59 1158.75 1237.24 1174.6C1221.93 1179.95 1206.11 1185.18 1190.05 1190.49C1158.59 1200.89 1126.2 1211.61 1094.78 1224.15C999.914 1262 889.389 1280.11 801.898 1253.56C758.171 1240.29 720.203 1215.87 692.793 1177.18C665.378 1138.48 648.494 1085.47 647.029 1014.96C645.563 944.388 644.639 889.693 648.168 846.518C651.697 803.346 659.675 771.748 675.974 747.344C692.267 722.95 716.907 705.695 753.867 691.278C790.838 676.856 840.101 665.288 905.604 652.248C914.171 650.542 922.49 648.875 930.574 647.255C984.311 636.485 1027.64 627.8 1064.26 623.854C1106.38 619.316 1139.54 621.059 1169.37 633.074C1199.18 645.088 1225.74 667.401 1254.58 704.143C1283.44 740.889 1314.55 792.026 1353.5 861.636Z" stroke="#C9D1DD" stroke-opacity="0.15"/>
<path d="M1440.74 729.498C1524.21 811.861 1568.09 878.446 1583.53 934.437C1598.96 990.405 1586 1035.83 1555.69 1075.92C1525.37 1116.03 1477.68 1150.79 1423.66 1185.38C1405.4 1197.07 1386.43 1208.74 1367.15 1220.6C1329.42 1243.8 1290.56 1267.7 1253.82 1293.77C1142.89 1372.51 1002.04 1429.22 872.275 1419.03C807.414 1413.93 745.319 1392.11 691.089 1347.96C636.85 1303.79 590.443 1237.25 557.029 1142.67C523.593 1048.03 497.96 974.601 483.464 915.393C468.967 856.184 465.622 811.248 476.712 773.567C487.798 735.901 513.325 705.433 556.701 675.2C600.089 644.958 661.307 614.97 743.738 578.257C754.519 573.455 764.983 568.777 775.151 564.232C842.741 534.016 897.252 509.648 944.83 493.627C999.558 475.2 1045.04 467.845 1090.62 475.323C1136.2 482.8 1181.97 505.126 1237.23 546.209C1292.5 587.295 1357.23 647.106 1440.74 729.498Z" stroke="#C9D1DD" stroke-opacity="0.15"/>
<path d="M1351.89 1423.52C1215.41 1514.21 1105.05 1561.9 1012.2 1578.69C919.383 1595.47 844.063 1581.37 777.635 1548.44C711.18 1515.49 653.592 1463.69 596.28 1405.01C576.915 1385.19 557.578 1364.57 537.943 1343.64C499.495 1302.65 459.902 1260.44 416.706 1220.53C286.274 1100.04 192.303 947.041 209.201 806.07C226.094 665.147 353.813 536.051 667.289 463.441C824.084 427.122 945.747 399.276 1043.86 383.527C1141.97 367.777 1216.47 364.136 1278.94 376.192C1403.82 400.291 1480.89 487.15 1602.56 666.26C1610.52 677.971 1618.27 689.337 1625.8 700.382C1675.86 773.8 1716.23 833.011 1742.77 884.692C1773.29 944.131 1785.49 993.545 1773.09 1043.08C1760.69 1092.64 1723.67 1142.38 1655.58 1202.44C1587.5 1262.49 1488.39 1332.81 1351.89 1423.52Z" stroke="#C9D1DD" stroke-opacity="0.15"/>
<path d="M1448.33 1623.11C1269.85 1741.72 1125.49 1804.1 1004.04 1826.06C882.614 1848.02 784.07 1829.57 697.159 1786.48C610.221 1743.39 534.891 1675.62 459.939 1598.88C434.608 1572.95 409.318 1545.99 383.639 1518.61C333.36 1465.01 281.59 1409.81 225.104 1357.63C54.5116 1200.05 -68.4191 999.91 -46.3127 815.493C-24.2121 631.124 142.882 462.268 552.868 367.303C757.919 319.807 917.032 283.388 1045.34 262.791C1173.66 242.192 1271.11 237.427 1352.85 253.2C1516.25 284.733 1617.08 398.393 1776.19 632.617C1786.59 647.932 1796.73 662.796 1806.57 677.24C1872.04 773.253 1924.84 850.697 1959.55 918.291C1999.48 996.04 2015.44 1060.69 1999.22 1125.52C1983 1190.36 1934.56 1255.44 1845.51 1333.98C1756.46 1412.52 1626.85 1504.49 1448.33 1623.11Z" stroke="#C9D1DD" stroke-opacity="0.15"/>
</svg>
