<svg width="30" height="30" viewBox="0 0 30 30" fill="none" xmlns="http://www.w3.org/2000/svg">
<path fill-rule="evenodd" clip-rule="evenodd" d="M15 30C23.2843 30 30 23.2843 30 15C30 6.71573 23.2843 0 15 0C6.71573 0 0 6.71573 0 15C0 23.2843 6.71573 30 15 30ZM22.4349 10.6402C22.7885 10.2159 22.7311 9.58534 22.3069 9.23178C21.8826 8.87821 21.252 8.93554 20.8984 9.35982L13.9672 17.6774C13.6204 18.0934 13.4255 18.3238 13.2699 18.4653L13.264 18.4707L13.2576 18.4659C13.0898 18.339 12.8748 18.1272 12.4918 17.7443L9.04044 14.2929C8.64992 13.9024 8.01675 13.9024 7.62623 14.2929C7.2357 14.6834 7.2357 15.3166 7.62623 15.7071L11.0776 19.1585L11.1185 19.1993C11.4449 19.526 11.759 19.8402 12.0513 20.0611C12.3786 20.3087 12.8074 20.5415 13.3568 20.5165C13.9062 20.4916 14.3121 20.221 14.6157 19.9448C14.8867 19.6983 15.1711 19.3569 15.4666 19.0021L15.5036 18.9577L22.4349 10.6402Z" fill="#39DC98"/>
</svg>
