<svg width="43" height="36" viewBox="0 0 43 36" fill="none" xmlns="http://www.w3.org/2000/svg">
<g opacity="0.5" clip-path="url(#clip0_166_192)">
<path d="M21.0906 26.6611C16.0499 25.7159 11.0125 24.7832 5.94901 23.8843C4.50363 23.6137 4.14885 24.9172 4.37709 25.769C4.67247 26.8713 5.58804 28.3177 7.07633 28.6171C12.1338 29.6249 17.1846 30.6077 22.2485 31.5736C23.7498 31.856 24.1173 30.4686 23.8891 29.6168C23.587 28.4894 22.6281 26.9472 21.0906 26.6611V26.6611Z" fill="#5784F7"/>
<path d="M26.041 18.7958C23.1246 15.9254 20.195 13.0719 17.2491 10.2227C16.7036 9.69762 15.1613 8.54 14.2658 9.59895C13.3703 10.6579 14.4083 12.2326 15.0863 12.9236C17.9766 15.8279 20.88 18.7153 23.8031 21.6108C24.2132 22.0245 24.8177 22.507 25.5059 22.6448C25.9701 22.7353 26.6046 22.6727 26.9017 22.2708C27.7148 21.1668 26.8313 19.5776 26.0477 18.8209L26.041 18.7958Z" fill="#5784F7"/>
<path d="M38.1094 10.957C37.0264 8.36055 35.9402 5.75158 34.8408 3.15953C34.5711 2.54707 34.0842 1.91225 33.4964 1.49241C33.1464 1.23711 32.437 0.823017 31.8619 0.909991C30.3437 1.15569 30.7535 2.75099 31.0303 3.45554C32.064 6.06518 33.1305 8.66603 34.2134 11.2625C34.4701 11.8919 34.9965 12.5429 35.604 12.9709C35.9541 13.2262 36.6866 13.6609 37.2946 13.5652C38.8456 13.3107 38.4421 11.6734 38.1456 10.9607L38.1094 10.957Z" fill="#5784F7"/>
</g>
<defs>
<clipPath id="clip0_166_192">
<rect width="27.3379" height="36.4505" fill="white" transform="translate(7.07568 35.8403) rotate(-105)"/>
</clipPath>
</defs>
</svg>
