<svg width="32" height="32" viewBox="0 0 32 32" fill="none" xmlns="http://www.w3.org/2000/svg">
<path d="M13.525 8.83676C14.5738 6.2221 15.0982 4.91476 16 4.91476C16.9018 4.91476 17.4262 6.2221 18.475 8.83676L18.5238 8.95852C19.1163 10.4357 19.4126 11.1743 20.0164 11.6232C20.6202 12.0721 21.4128 12.1431 22.998 12.285L23.2846 12.3107C25.879 12.5431 27.1762 12.6592 27.4538 13.4845C27.7314 14.3099 26.768 15.1863 24.8413 16.9392L24.1983 17.5243C23.2229 18.4116 22.7352 18.8553 22.5079 19.4368C22.4655 19.5453 22.4303 19.6564 22.4024 19.7695C22.253 20.3757 22.3958 21.0194 22.6814 22.3066L22.7703 22.7073C23.2952 25.0731 23.5577 26.256 23.0994 26.7662C22.9282 26.9569 22.7057 27.0942 22.4584 27.1616C21.7968 27.3421 20.8575 26.5767 18.9789 25.046C17.7454 24.0408 17.1286 23.5382 16.4205 23.4251C16.1419 23.3806 15.8581 23.3806 15.5795 23.4251C14.8714 23.5382 14.2546 24.0408 13.0211 25.046C11.1425 26.5767 10.2032 27.3421 9.54155 27.1616C9.29433 27.0942 9.07178 26.9569 8.90055 26.7662C8.44231 26.256 8.70476 25.0731 9.22966 22.7073L9.31856 22.3066C9.60417 21.0194 9.74698 20.3757 9.59757 19.7695C9.5697 19.6564 9.53445 19.5453 9.49205 19.4368C9.26475 18.8553 8.77708 18.4116 7.80174 17.5243L7.1587 16.9392C5.23197 15.1863 4.26861 14.3099 4.54618 13.4845C4.82375 12.6592 6.12096 12.5431 8.71538 12.3107L9.00196 12.285C10.5872 12.1431 11.3798 12.0721 11.9836 11.6232C12.5874 11.1743 12.8837 10.4357 13.4762 8.95852L13.525 8.83676Z" fill="#FEC53D"/>
</svg>

