<svg width="70" height="70" viewBox="0 0 70 70" fill="none" xmlns="http://www.w3.org/2000/svg">
<g clip-path="url(#clip0_2_831)">
<path d="M23.2681 39.9804C23.0836 38.8589 22.9081 37.7356 22.7144 36.6177C22.4275 34.9692 22.1168 33.3262 21.8317 31.6776C21.5192 29.8796 21.2323 28.0761 20.9198 26.2762C20.7443 25.2678 20.5378 24.2648 20.3551 23.2582C20.2637 22.7567 20.1906 22.2497 20.1211 21.7446C19.9841 20.7708 19.5546 20.3514 18.5787 20.3386C17.0765 20.3186 15.5742 20.3386 14.072 20.3295C13.8216 20.3295 13.648 20.4061 13.4817 20.5903C12.906 21.2267 12.1878 21.482 11.3197 21.4729C8.74839 21.4455 6.17523 21.4182 3.60389 21.482C2.41782 21.5112 1.53147 21.079 0.785832 20.231C0.39474 19.7861 0.310674 19.1806 -0.00366211 18.6937V16.5109C0.350879 15.973 0.449566 15.311 0.915587 14.8132C1.57715 14.1056 2.40503 13.781 3.31514 13.7664C6.04913 13.7245 8.78312 13.7427 11.5189 13.75C12.2701 13.7518 12.9079 14.0855 13.4378 14.587C13.6809 14.8168 13.9185 14.8752 14.2273 14.8733C15.5943 14.8642 16.9632 14.8296 18.3283 14.8806C19.8415 14.9372 21.3218 15.1615 22.6157 16.0696C24.3683 17.3005 25.2437 19.0293 25.5727 21.0899C25.7426 22.1494 25.9601 23.2016 26.0917 24.2666C26.1392 24.6459 26.2781 24.7061 26.5997 24.6988C27.2832 24.6824 27.9667 24.6933 28.6502 24.6951C35.3262 24.7024 42.004 24.7079 48.68 24.7152C48.6763 24.9596 48.5045 25.0599 48.32 25.1638C47.7479 25.4866 47.1851 25.8258 46.6112 26.1412C46.3206 26.3017 46.0538 26.4604 46.0776 26.8488C38.7474 26.8561 31.4171 26.8634 24.0869 26.8707C23.9041 26.8707 23.7232 26.8762 23.5404 26.8707C23.3029 26.8652 23.1768 26.9801 23.2645 27.2026C23.535 27.9046 23.5021 28.6578 23.6483 29.3818C24.0028 31.1324 24.3007 32.8958 24.5968 34.6592C24.849 36.16 25.0701 37.6645 25.304 39.1671C25.0153 39.1452 24.7868 39.2801 24.5492 39.426C24.149 39.6722 23.7616 39.964 23.2608 39.9822L23.2681 39.9804ZM7.38871 15.9438C6.15878 15.9456 4.92885 15.9365 3.69892 15.9492C2.66271 15.9602 2.20948 16.4197 2.19669 17.4336C2.19486 17.5923 2.19486 17.7528 2.20034 17.9114C2.2241 18.7211 2.68098 19.239 3.49789 19.2481C6.11675 19.2755 8.7356 19.2682 11.3563 19.27C11.8004 19.27 12.0215 19.053 12.0124 18.5953C12.0014 18.0044 11.9831 17.4118 12.016 16.8227C12.0526 16.1827 11.8113 15.9182 11.1498 15.9347C9.89791 15.9675 8.64423 15.9438 7.39236 15.9438H7.38871ZM14.1012 17.6415C13.9861 18.1102 14.2493 18.1558 14.6312 18.1503C15.9745 18.1339 17.3177 18.1193 18.6591 18.154C19.5692 18.1777 20.3861 18.4603 21.1263 19.0603C22.1533 19.8918 22.2155 21.0626 22.4293 22.1987C22.5609 22.9007 22.7016 23.601 22.8204 24.3049C22.9081 24.8246 23.301 24.7243 23.6154 24.6806C24.0156 24.624 23.8913 24.3578 23.8329 24.0642C23.6117 22.97 23.4344 21.8668 23.2535 20.7635C22.9483 18.9053 21.4607 17.4701 19.5985 17.1875C17.9464 16.9376 16.2888 17.1455 14.6367 17.058C14.1725 17.0325 14.0062 17.1948 14.1049 17.6415H14.1012Z" fill="#14317A"/>
<path d="M44.7161 0C45.4215 0.415777 46.2531 0.375658 47.0115 0.638254C48.3566 1.10327 49.5792 1.75064 50.6282 2.68431C51.7996 3.72922 52.7993 4.92367 53.4024 6.40624C53.9141 7.66087 54.2558 8.9319 54.3107 10.3105C54.3746 11.9262 54.1955 13.4635 53.5998 14.9661C52.474 17.8109 50.4619 19.7804 47.6804 20.9912C45.9241 21.7553 44.0582 22.0307 42.1758 21.8046C39.3322 21.4617 36.9747 20.1269 35.0942 17.9586C33.7473 16.4068 32.8828 14.5959 32.6051 12.5955C32.3638 10.8594 32.4771 9.09603 33.0692 7.38915C33.6961 5.58381 34.7323 4.06112 36.1249 2.78826C36.8778 2.10077 37.7514 1.56099 38.6652 1.06862C39.7617 0.477778 40.9934 0.434012 42.1174 0.00182358H44.7161V0ZM44.8861 19.536C47.9636 19.2333 51.1509 16.3867 51.8307 13.345C51.9184 12.9547 52.1724 12.4952 52.0482 12.1888C51.8746 11.7621 51.3245 12.0685 50.9425 12.0083C50.3248 11.9116 49.9282 11.5342 49.9136 10.9543C49.899 10.3853 50.323 9.95128 50.959 9.83275C51.3391 9.76163 51.8892 10.0753 52.0591 9.65039C52.1834 9.34403 51.933 8.88267 51.8362 8.49242C51.7759 8.25353 51.7083 8.01282 51.6151 7.78669C50.418 4.90179 48.3273 3.09097 45.237 2.42354C44.7033 2.30865 44.5571 2.32324 44.5644 2.88855C44.5791 3.90064 44.1404 4.48783 43.435 4.50425C42.746 4.52066 42.3513 3.99182 42.3951 2.93597C42.4207 2.31777 42.1466 2.22295 41.6714 2.34695C38.2284 3.2478 35.9403 5.35039 34.9662 8.8079C34.7835 9.45831 35.0162 9.7981 35.6643 9.82728C36.6329 9.86922 37.046 10.2978 36.9308 11.1676C36.8468 11.8113 36.2747 11.8806 35.8142 12.094C35.4725 12.2526 34.9242 11.9153 34.7944 12.3165C34.6884 12.6465 34.9224 13.0897 35.0137 13.4799C35.0485 13.6313 35.0887 13.7845 35.1526 13.9249C36.4794 16.8663 38.5829 18.8704 41.8414 19.547C42.3623 19.6546 42.3805 19.4704 42.386 19.1075C42.3878 18.9488 42.386 18.7884 42.386 18.6297C42.4006 17.8018 42.6327 17.5046 43.2925 17.4663C44.1057 17.4207 44.453 17.7033 44.5553 18.5221C44.5864 18.7683 44.5754 19.0218 44.5608 19.2716C44.5443 19.5433 44.6302 19.6527 44.8824 19.536H44.8861Z" fill="#5784F7"/>
<path d="M32.6818 70.0002C32.4643 69.5261 31.9398 69.444 31.5761 69.1541C30.9091 68.6198 30.4705 67.9523 30.0099 67.2412C29.3045 66.1525 29.6901 65.1513 29.9807 64.1447C30.2914 63.0597 31.1649 62.436 32.1372 61.9236C34.0031 60.9389 36.6457 61.8178 37.6106 63.7563C38.3672 65.2753 38.2521 66.891 37.3128 68.1931C36.5507 69.2489 35.3281 69.9583 33.8532 69.8744C33.6047 69.8598 33.3086 69.7467 33.0912 70.0021H32.6818V70.0002ZM35.827 65.7039C35.8325 64.566 35.0265 63.738 33.8934 63.7162C32.8572 63.6961 31.8813 64.6425 31.8631 65.6802C31.8484 66.592 32.8609 67.6752 33.7381 67.6697C35.1581 67.6606 35.8745 66.6941 35.827 65.7039Z" fill="#5784F7"/>
<path d="M23.2682 39.9804C23.7689 39.9604 24.1564 39.6704 24.5566 39.4242C24.7924 39.2784 25.0208 39.1434 25.3114 39.1653C25.3424 39.1981 25.3936 39.2255 25.3991 39.2619C25.8267 41.8022 26.2507 44.3424 26.6729 46.8827C26.7771 47.5082 26.9562 48.0388 27.5227 48.4656C28.1861 48.967 28.7892 49.5652 29.4178 50.1195C29.8583 50.508 30.2366 51.035 31.0041 51.0332C40.6444 51.0058 50.2846 51.0113 59.9248 51.0259C60.5828 51.0259 60.9154 50.7833 61.0945 50.1578C61.7908 47.7234 62.5108 45.2943 63.2382 42.869C64.7038 37.9745 66.1805 33.0836 67.6517 28.1928C67.955 27.1844 67.7284 26.8762 66.6611 26.8762C62.0356 26.8762 57.4083 26.878 52.7828 26.8762C50.5496 26.8744 48.3164 26.8598 46.0849 26.8506C46.063 26.464 46.328 26.3036 46.6186 26.1431C47.1924 25.8258 47.7553 25.4884 48.3273 25.1657C48.5119 25.0617 48.6855 24.9596 48.6873 24.7171C53.6783 24.7098 58.6693 24.6897 63.6603 24.7025C65.0657 24.7061 66.4839 24.5365 67.8764 24.8283C69.3842 25.1456 70.2467 26.7631 69.9416 28.0196C69.4171 30.1732 68.7189 32.2849 68.0884 34.4112C67.2277 37.3107 66.3687 40.2102 65.4897 43.1042C64.649 45.8688 63.7882 48.626 62.9275 51.3833C62.551 52.5887 61.5751 53.0044 60.4439 53.1868C60.2428 53.2196 60.0345 53.1996 59.8298 53.1996C50.0982 53.1996 40.3666 53.1996 30.635 53.1996C30.317 53.1996 30.0008 53.2251 29.6901 53.1011C29.5019 53.0263 29.2899 52.7802 29.0944 53.0737C28.9153 53.3436 28.9299 53.6354 29.1035 53.9089C29.3301 54.2664 29.6956 54.2883 30.0684 54.2883C31.4592 54.2864 32.8481 54.2883 34.2389 54.2883C41.4412 54.2883 48.6435 54.3193 55.844 54.2627C57.4211 54.25 58.4774 54.8937 59.0878 56.2212C59.3839 56.865 59.097 57.6436 58.7571 58.2655C58.2819 59.1335 57.4833 59.6313 56.4818 59.6332C47.3423 59.6423 38.2028 59.6642 29.0651 59.5967C27.3619 59.5839 25.993 58.6028 24.8801 57.3227C24.2057 56.5477 23.7635 55.5921 23.5131 54.6657C23.3322 53.9965 23.4272 53.1266 23.6172 52.3534C23.8694 51.3395 24.2222 50.384 24.9404 49.5962C25.0647 49.4594 25.156 49.3409 25.0336 49.1239C24.5511 48.2595 24.5621 47.2656 24.3611 46.3301C24.0467 44.8676 23.8439 43.3814 23.5935 41.9043C23.4857 41.2642 23.3778 40.626 23.2682 39.9859V39.9804ZM42.6821 57.4449V57.4522H51.637C53.163 57.4522 54.6908 57.4522 56.2168 57.4522C56.5476 57.4522 56.871 57.4558 56.8875 56.9853C56.9058 56.4729 56.5622 56.4656 56.2022 56.4656C55.9975 56.4656 55.7928 56.4656 55.5863 56.4656C46.9969 56.4656 38.4075 56.4528 29.8162 56.4766C28.3542 56.4802 27.4715 55.7289 26.9616 54.5107C26.5724 53.5789 26.7003 52.6051 27.3198 51.7626C27.6031 51.3796 27.3509 51.1973 27.1133 50.9784C26.8282 50.7159 26.6747 50.9292 26.5121 51.1316C25.9729 51.8082 25.9053 52.6525 25.7134 53.4476C25.5946 53.9399 25.94 54.343 26.0643 54.7897C26.4645 56.2213 27.8918 57.4394 29.3502 57.443C33.793 57.454 38.2357 57.4467 42.6784 57.4467L42.6821 57.4449Z" fill="#14317A"/>
<path d="M49.9702 61.5313C52.3753 61.5186 54.2485 63.2181 54.2741 65.6307C54.2997 68.0999 52.399 69.7119 50.2498 69.8706C47.9673 70.0383 45.9478 67.8427 45.9131 65.793C45.8766 63.6759 47.7936 61.4091 49.9721 61.5295L49.9702 61.5313ZM48.1354 65.7328C48.1299 66.7303 49.0181 67.706 49.9684 67.664C51.456 67.6002 51.997 66.8817 52.0865 65.7055C52.1724 64.5931 51.2258 63.7178 50.0689 63.716C48.9998 63.716 48.1427 64.6077 48.1372 65.7328H48.1354Z" fill="#5784F7"/>
<path d="M57.1726 39.3089C57.1726 41.375 57.1817 43.4393 57.1671 45.5054C57.1634 46.1437 56.7559 46.585 56.1364 46.6561C55.6283 46.7144 55.2847 46.4628 55.0599 46.0069C54.9704 45.8264 54.9905 45.6549 54.9905 45.4799C54.985 41.3714 54.9832 37.2628 54.9887 33.1543C54.9887 32.2972 55.3249 31.9361 56.076 31.9288C56.8655 31.9216 57.1653 32.2097 57.1689 33.0431C57.1799 35.1311 57.1726 37.2191 57.1689 39.3071L57.1726 39.3089Z" fill="#5784F7"/>
<path d="M46.7538 39.1743C46.7538 41.1073 46.7538 43.0403 46.7538 44.9733C46.7538 45.1775 46.7648 45.3854 46.7282 45.5842C46.604 46.2425 46.074 46.713 45.5367 46.6637C44.9884 46.6145 44.5717 46.082 44.5699 45.3818C44.5644 41.2659 44.5644 37.1501 44.5699 33.0343C44.5699 32.2319 44.8733 31.931 45.6079 31.9292C46.3737 31.9274 46.741 32.2538 46.7483 33.0343C46.7648 35.0804 46.7538 37.1282 46.7538 39.1743Z" fill="#5784F7"/>
<path d="M36.2436 33.2988C36.2509 37.3618 36.2619 41.4247 36.2582 45.4876C36.2582 46.1697 35.7593 46.6438 35.1051 46.6639C34.5459 46.6803 34.1986 46.3192 34.0926 45.6098C34.0798 45.5205 34.078 45.4293 34.078 45.3381C34.078 41.7511 34.078 38.1641 34.0817 34.5772C34.0817 34.4659 34.1109 34.3529 34.1273 34.2416C34.3923 34.269 34.5897 34.0976 34.8145 34.0064C35.3098 33.8058 35.6862 33.3718 36.2436 33.2988Z" fill="#5784F7"/>
<path d="M36.2437 33.2984C35.6863 33.3714 35.308 33.8054 34.8145 34.006C34.5898 34.0971 34.3942 34.2686 34.1274 34.2412C34.1164 33.9038 34.0927 33.5683 34.0963 33.2309C34.1073 32.2918 34.407 31.9344 35.1636 31.938C35.891 31.9398 36.2492 32.3921 36.2437 33.2984Z" fill="#5784F7"/>
<path d="M48.4022 6.98444C48.468 7.35827 48.309 7.65004 48.0586 7.89987C46.8524 9.10709 45.6554 10.3234 44.4291 11.5124C43.6908 12.2272 43.2029 12.1981 42.4737 11.4723C41.1505 10.1575 39.8274 8.84084 38.5079 7.52057C37.8866 6.90055 37.8409 6.40818 38.3343 5.87752C38.7345 5.44898 39.4473 5.42345 39.97 5.91946C40.8892 6.78931 41.7609 7.71022 42.6509 8.61107C42.746 8.70772 42.83 8.81531 42.9159 8.91926C43.2504 9.3168 43.5154 9.40615 43.9394 8.93932C44.7928 7.9947 45.734 7.13032 46.6295 6.224C47.0169 5.83193 47.4957 5.96141 47.9033 6.06353C48.3035 6.162 48.4917 6.54131 48.3985 6.98626L48.4022 6.98444Z" fill="#5784F7"/>
</g>
<defs>
<clipPath id="clip0_2_831">
<rect width="70" height="70" fill="white"/>
</clipPath>
</defs>
</svg>
