<svg width="68" height="68" viewBox="0 0 68 68" fill="none" xmlns="http://www.w3.org/2000/svg">
<g clip-path="url(#clip0_2_866)">
<path d="M0 46.3525C0.596009 45.5985 1.17428 44.8285 1.80044 44.0994C2.04523 43.8155 2.20843 43.5938 2.1357 43.1804C1.99024 42.359 2.30066 41.6724 2.89313 41.0887C4.24656 39.751 5.59468 38.4062 6.92506 37.0455C7.22838 36.735 7.50333 36.3749 7.71086 35.9935C10.7069 30.4529 13.6727 24.8946 16.6865 19.3629C17.5184 17.8354 17.914 16.2511 17.7774 14.5249C17.749 14.1719 17.7206 13.817 17.7277 13.464C17.7472 12.5627 17.5947 11.7981 16.8692 11.1009C16.0284 10.2919 16.1259 8.94709 16.9384 8.09197C17.8519 7.12862 18.7902 6.18657 19.757 5.27645C20.6386 4.44616 21.9477 4.43197 22.8364 5.24629C23.6665 6.00916 24.4523 6.8217 25.2364 7.63425C25.6621 8.07423 25.6514 8.6792 25.2665 9.06241C24.8816 9.44384 24.2803 9.44739 23.8386 9.02338C23.1521 8.36518 22.4692 7.69989 21.8235 7.00266C21.4404 6.58929 21.1672 6.623 20.7982 7.01863C20.1188 7.74602 19.4217 8.46098 18.682 9.12628C18.1765 9.58222 18.3627 9.86253 18.7512 10.2493C23.6115 15.0926 28.4594 19.9466 33.3109 24.797C37.6922 29.1791 42.0736 33.5611 46.4568 37.9414C47.1202 38.6049 47.1148 38.5979 47.8084 37.9255C48.1082 37.6345 48.4435 37.3773 48.7823 37.0863C47.6044 35.6191 46.776 34.1129 46.4568 32.3885C46.3237 31.6646 45.976 31.1572 45.4776 30.6605C39.4909 24.6924 33.5166 18.71 27.5388 12.7313C26.769 11.9613 26.6625 11.4167 27.184 10.9288C27.686 10.4586 28.1862 10.5704 28.9401 11.3226C29.4563 11.8389 30.0009 12.3303 30.4816 12.8785C30.8328 13.2795 31.1237 13.3629 31.5991 13.0648C32.1188 12.7401 32.6847 12.4492 33.2701 12.2718C34.6075 11.8655 35.835 12.1795 36.8248 13.1482C39.1166 15.3942 41.3854 17.6651 43.6328 19.9555C44.7556 21.0998 44.9614 22.677 44.2643 24.1335C44.0071 24.6711 43.7215 25.1944 43.4856 25.6539C44.4275 26.5924 45.3446 27.5043 46.2368 28.3949C46.3698 27.8733 46.494 27.2453 46.6891 26.6386C48.2944 21.6497 53.0004 18.6338 58.3769 19.1287C63.184 19.5705 67.294 23.58 67.8829 28.5865C68.4151 33.1123 66.6537 36.6587 62.8843 39.1922C62.5721 39.4015 62.0133 39.4849 61.6692 39.3572C60.9401 39.0875 60.9916 38.1756 61.6585 37.6381C62.4461 37.0029 63.2993 36.4068 63.9432 35.6404C66.3982 32.7167 66.6856 28.6468 64.7574 25.4197C62.8399 22.2121 59.0741 20.4859 55.5157 21.1832C51.6967 21.9318 48.8621 24.8254 48.2466 28.6043C47.3898 33.8681 51.5317 38.8178 56.8674 38.9101C57.1104 38.9136 57.3534 38.9012 57.5982 38.9048C58.2723 38.9154 58.6998 39.2898 58.7086 39.8699C58.7175 40.4483 58.306 40.906 57.6337 40.8758C56.557 40.8279 55.4696 40.7499 54.416 40.5405C53.6479 40.3897 52.9011 40.0597 52.1898 39.7138C51.4785 39.3678 50.8257 38.9048 49.9938 38.4009C49.6337 38.8072 49.2488 39.2933 48.8106 39.7226C47.8031 40.709 46.4213 40.7392 45.4439 39.7191C44.9454 39.1975 44.4222 39.0325 43.7481 39.0503C43.0421 39.068 42.3326 39.0183 41.6248 38.9935C40.3619 38.9491 39.1557 39.1762 38.0381 39.7759C34.455 41.6972 30.8754 43.6292 27.294 45.5559C27.1982 45.6074 27.106 45.6695 26.9605 45.7582C27.647 46.9273 28.3264 48.084 29.0022 49.2408C29.4971 50.0888 29.4705 50.3531 28.7752 51.0379C28.1153 51.689 27.4359 52.3206 26.7459 52.9806C27.8049 54.5241 28.8 55.9824 29.8129 57.4265C29.8874 57.533 30.1091 57.5897 30.2581 57.5826C30.8772 57.5507 31.3774 57.7689 31.8066 58.2018C32.3814 58.7855 32.9774 59.3479 33.5379 59.944C34.3308 60.7867 34.3361 61.7731 33.5237 62.5998C31.9255 64.2249 30.3078 65.8323 28.6865 67.4343C28.4576 67.6596 28.1614 67.8157 27.8971 68.0038H26.9676C25.9796 67.1025 24.949 66.2421 24.0284 65.2752C23.7641 64.9984 23.8244 64.4147 23.7304 63.973C23.6612 63.6519 23.6647 63.2775 23.4945 63.0221C22.7175 61.8671 21.8803 60.7512 21.082 59.6105C20.6953 59.0569 20.7716 58.4786 21.231 58.1397C21.7082 57.7884 22.2563 57.8896 22.6749 58.4307C22.9996 58.8511 23.2958 59.2911 23.6044 59.7222C24.1384 60.4691 24.6723 61.2178 25.169 61.9115C26.2386 60.8399 27.2497 59.8287 28.3033 58.7713C26.0293 55.4643 23.718 52.1024 21.4155 48.7529C20.2874 49.278 18.6891 50.6618 17.9193 51.7582C18.2333 52.2 18.5543 52.6506 18.8736 53.0995C19.2071 53.5678 19.5548 54.0255 19.8723 54.5046C20.2341 55.0492 20.1348 55.6506 19.6612 55.97C19.1982 56.2804 18.6749 56.1722 18.2652 55.6666C18.0984 55.4608 17.953 55.2373 17.7987 55.0226C17.3534 54.4017 16.91 53.7789 16.3991 53.0657C16.0656 53.4383 15.8492 53.818 15.5228 54.0113C15.0279 54.3059 14.4231 54.7086 13.9228 54.6394C13.1636 54.5347 12.7716 54.847 12.353 55.3189C12.1916 55.4998 12.0106 55.6648 11.8386 55.8369C10.5596 57.109 9.30199 57.1143 8.02661 55.8405C5.78803 53.6051 3.54058 51.3786 1.32506 49.1201C0.821286 48.6074 0.438137 47.9847 0 47.4152C0 47.0604 0 46.7073 0 46.3525ZM19.7109 14.2073C20.11 17.014 19.0244 19.331 17.7348 21.6214C16.1313 24.4706 14.6217 27.373 13.0714 30.2524C11.8687 32.4896 10.6678 34.7267 9.46341 36.9674C9.56807 37.0899 9.64967 37.1945 9.74191 37.2868C12.9632 40.5103 16.1916 43.7268 19.4004 46.9628C19.718 47.2839 19.9361 47.2537 20.2998 47.0568C25.7401 44.1118 31.1964 41.1952 36.635 38.2466C38.3148 37.3365 40.0763 36.8858 41.9831 37.0153C42.1676 37.0278 42.3539 37.0153 42.5242 37.0153C34.9321 29.4257 27.3721 21.8662 19.7109 14.2056V14.2073ZM8.15255 38.6528C6.95166 39.8521 5.73658 41.1011 4.47894 42.3058C4.02483 42.7386 4.06031 43.0118 4.48958 43.4341C6.47982 45.3874 8.43991 47.3691 10.4124 49.3401C11.4288 50.3567 12.4488 51.3732 13.4634 52.3916C13.6976 52.6275 13.9211 52.828 14.2421 52.5087C15.5512 51.1958 16.8656 49.8865 18.1251 48.6287C14.7885 45.2916 11.4927 41.9935 8.15432 38.6546L8.15255 38.6528ZM41.9512 24.1832C42.9818 22.6574 42.9268 22.056 41.6053 20.7343C39.7144 18.8431 37.8253 16.9537 35.9344 15.0625C34.7051 13.833 33.9725 13.794 32.6102 14.8478C35.7233 17.9596 38.8417 21.0749 41.9512 24.1832ZM3.36142 45.2561C2.98891 45.6535 2.6235 46.0669 2.23149 46.4554C1.94945 46.7357 1.94945 46.9646 2.23681 47.236C2.65366 47.6316 3.05277 48.0468 3.45898 48.4531C5.44568 50.4401 7.43947 52.4182 9.41197 54.4194C9.79512 54.8079 10.0754 54.831 10.4479 54.4212C10.7885 54.0468 11.1876 53.7275 11.5211 53.4188C8.78758 50.6831 6.11796 48.0131 3.36142 45.2543V45.2561ZM30.4408 59.7967C28.9153 61.3083 27.3809 62.8287 25.9725 64.2231C26.4568 64.7412 26.9605 65.2787 27.4412 65.7915C28.9295 64.3048 30.4479 62.7897 31.9823 61.2568C31.4732 60.7743 30.9481 60.2757 30.4426 59.795L30.4408 59.7967ZM27.0652 49.8812C26.4319 48.8114 25.8093 47.7611 25.1725 46.686C24.4683 47.0728 23.8421 47.417 23.1663 47.7878C24.0018 49.003 24.7947 50.1544 25.6018 51.3271C26.1233 50.8126 26.588 50.3549 27.067 49.8812H27.0652Z" fill="#14317A"/>
<path d="M45.4741 14.8743C44.8125 14.8743 44.2218 14.8796 43.6293 14.8743C42.769 14.8636 42.3894 14.5159 42.3876 13.6803C42.3806 9.51998 42.3806 5.35969 42.3876 1.19762C42.3876 0.354912 42.7637 0.00363773 43.624 0.00363773C51.3473 8.95058e-05 59.0706 8.95058e-05 66.7956 0.00363773C67.64 0.00363773 67.9947 0.367331 67.9965 1.22778C68.0018 5.36678 68.0018 9.50402 67.9965 13.643C67.9965 14.5443 67.6329 14.8743 66.6644 14.8743C61.9956 14.876 57.3251 14.8672 52.6564 14.8902C52.2945 14.892 51.8759 15.0304 51.5797 15.2415C50.1553 16.2527 48.7575 17.303 47.3615 18.3533C46.95 18.662 46.5402 18.8962 46.0276 18.6372C45.5061 18.3746 45.4723 17.8849 45.4741 17.3829C45.4759 16.5703 45.4741 15.7578 45.4741 14.8743ZM44.4063 12.8376C44.5269 12.8606 44.5695 12.8766 44.6138 12.8766C45.1229 12.8802 45.6302 12.8802 46.1393 12.8819C47.1344 12.8872 47.4502 13.1942 47.4626 14.1788C47.4679 14.6667 47.4626 15.1528 47.4626 15.7879C48.683 14.8796 49.726 14.0617 50.8187 13.3166C51.1752 13.0735 51.6595 12.9032 52.087 12.8997C56.4879 12.8695 60.8888 12.8819 65.2896 12.8819C65.5202 12.8819 65.7526 12.8819 65.9708 12.8819V2.03855H44.4063V12.8376Z" fill="#5784F7"/>
<path d="M52.8585 29.963C52.8585 28.4372 52.8514 26.9097 52.8602 25.384C52.8673 24.2929 53.5875 23.8618 54.5401 24.3923C57.2611 25.9091 59.9769 27.4366 62.6891 28.9713C63.7002 29.5443 63.6913 30.4065 62.6695 30.9849C59.9769 32.5088 57.2824 34.0275 54.5809 35.5373C53.5946 36.089 52.8656 35.665 52.8585 34.5437C52.8496 33.018 52.8567 31.4905 52.8567 29.9648L52.8585 29.963ZM60.4097 29.9736C58.5152 28.9109 56.7237 27.905 54.8806 26.8689V33.0872C56.7378 32.0405 58.5312 31.031 60.4097 29.9736Z" fill="#5784F7"/>
<path d="M55.1841 6.27485C52.7504 6.27485 50.3149 6.2713 47.8812 6.27663C47.2834 6.27663 46.8311 6.08857 46.7229 5.43924C46.62 4.82008 47.0262 4.34284 47.7109 4.29494C48.1508 4.26301 48.596 4.2843 49.0377 4.2843C53.4191 4.2843 57.8005 4.2843 62.1836 4.28607C62.4462 4.28607 62.7193 4.28784 62.9712 4.35171C63.4643 4.4759 63.718 4.84314 63.6896 5.33457C63.6595 5.85261 63.3632 6.21098 62.8169 6.25356C62.3557 6.29082 61.8874 6.27308 61.4244 6.27485C59.3437 6.27485 57.2648 6.27485 55.1841 6.27485Z" fill="#5784F7"/>
<path d="M52.534 8.60104C54.0577 8.60104 55.5814 8.59571 57.1069 8.60281C57.914 8.60636 58.3238 8.94876 58.3202 9.58744C58.3167 10.2155 57.8909 10.5845 57.0998 10.588C54.0524 10.5969 51.0031 10.5916 47.9557 10.5916C47.867 10.5916 47.7783 10.5916 47.6914 10.5827C47.0599 10.5064 46.6909 10.1161 46.7105 9.54841C46.73 8.97715 47.1096 8.61523 47.7659 8.60813C49.357 8.59394 50.9464 8.60281 52.5375 8.60104H52.534Z" fill="#5784F7"/>
</g>
<defs>
<clipPath id="clip0_2_866">
<rect width="68" height="68" fill="white"/>
</clipPath>
</defs>
</svg>
