<svg width="73" height="73" viewBox="0 0 73 73" fill="none" xmlns="http://www.w3.org/2000/svg">
<g clip-path="url(#clip0_2_853)">
<path d="M12.9515 63.5732C11.8293 63.5732 10.7817 63.5791 9.73422 63.5732C7.31884 63.5574 5.89005 62.1324 5.88808 59.7304C5.88415 55.2194 5.88415 50.7064 5.88808 46.1954C5.89005 43.8563 7.36011 42.394 9.70474 42.3841C10.7562 42.3802 11.8057 42.3841 12.9515 42.3841C12.9515 41.3129 12.9515 40.2908 12.9515 39.2706C12.9554 35.4515 15.4356 32.9709 19.2582 32.967C21.0466 32.967 22.8331 32.967 24.7257 32.967C24.7257 31.9075 24.7257 30.8874 24.7257 29.8673C24.7277 28.6329 25.105 28.2594 26.3628 28.2594C29.0592 28.2574 31.7576 28.2594 34.4541 28.2594H35.2815C35.2815 27.3886 35.2815 26.5887 35.2815 25.7867C32.5477 24.5346 31.3862 22.6359 31.8972 20.2516C32.3649 18.0698 34.2575 16.5091 36.4607 16.4875C38.6599 16.4678 40.5977 18.0167 41.0811 20.1828C41.6216 22.6044 40.4876 24.4914 37.6929 25.7985V28.2574C37.9602 28.2574 38.2157 28.2574 38.4712 28.2574C41.2167 28.2574 43.9643 28.2555 46.7098 28.2574C47.8654 28.2574 48.2644 28.6564 48.2683 29.7965C48.2723 30.8206 48.2683 31.8466 48.2683 32.965C48.8049 32.965 49.2864 32.9591 49.7679 32.965C51.5308 32.9925 53.3094 32.8923 55.0546 33.0889C57.867 33.4033 59.96 35.8505 60.0308 38.6849C60.0603 39.8819 60.0367 41.0809 60.0367 42.3822C61.0842 42.3822 62.0787 42.3822 63.0731 42.3822C65.7145 42.3822 67.106 43.7758 67.106 46.4214C67.106 50.8342 67.106 55.2489 67.106 59.6616C67.106 62.1579 65.6929 63.5614 63.1792 63.5712C62.175 63.5751 61.1726 63.5712 60.0799 63.5712C60.0662 63.8601 60.0485 64.1176 60.0445 64.3732C60.0308 65.5014 60.1153 66.6375 59.9935 67.754C59.6692 70.7535 57.2577 72.9294 54.2213 72.9726C50.9353 73.0178 47.6493 72.9883 44.3652 72.9883C35.9556 72.9883 27.544 72.9962 19.1344 72.9844C15.87 72.9805 13.4585 70.9952 13.0261 67.8896C12.8787 66.8302 12.9691 65.7373 12.9534 64.6582C12.9495 64.3221 12.9534 63.9859 12.9534 63.5692L12.9515 63.5732ZM36.4214 70.6375C42.2092 70.6375 47.9951 70.6414 53.783 70.6375C56.2868 70.6355 57.6881 69.2164 57.6881 66.7063C57.6881 57.584 57.6881 48.4637 57.6881 39.3414C57.6881 36.7036 56.2927 35.3198 53.6376 35.3198C42.2112 35.3198 30.7828 35.3198 19.3564 35.3198C16.6954 35.3198 15.3039 36.6996 15.3039 39.3375C15.3039 48.4106 15.3039 57.4818 15.3039 66.555C15.3039 69.2753 16.6502 70.6355 19.3525 70.6375C25.0421 70.6395 30.7298 70.6375 36.4194 70.6375H36.4214ZM12.918 44.7369C11.8273 44.7369 10.825 44.733 9.82266 44.7369C8.62774 44.7409 8.24254 45.1281 8.24254 46.3291C8.24057 49.6391 8.24254 52.9511 8.24254 56.2612C8.24254 57.4877 8.23861 58.7142 8.2445 59.9388C8.24843 60.611 8.55502 61.1378 9.24092 61.1771C10.4535 61.2439 11.674 61.1968 12.918 61.1968V44.7369ZM60.0878 44.7468V61.2184C61.1825 61.2184 62.2339 61.2263 63.2834 61.2184C64.3486 61.2086 64.7476 60.8115 64.7495 59.7481C64.7554 57.3698 64.7495 54.9914 64.7495 52.6111C64.7495 50.4529 64.7535 48.2946 64.7476 46.1364C64.7456 45.307 64.3643 44.788 63.6372 44.7586C62.4678 44.7094 61.2965 44.7448 60.0858 44.7448L60.0878 44.7468ZM27.1195 32.9178H45.8529V30.6476H27.1195V32.9178ZM36.5275 23.5381C37.8128 23.5243 38.8564 22.4668 38.8485 21.1852C38.8407 19.9135 37.7676 18.8423 36.5 18.8403C35.2009 18.8383 34.118 19.9469 34.1435 21.2501C34.1691 22.5297 35.2343 23.5518 36.5275 23.5381Z" fill="#14317A"/>
<path d="M20.0149 21.1905C20.0149 22.3129 20.0011 23.3173 20.0208 24.3217C20.0326 24.9468 19.9539 25.5207 19.3034 25.7959C18.6234 26.0849 18.1478 25.7212 17.6918 25.2554C16.491 24.0308 15.2843 22.8082 14.0422 21.6249C13.7926 21.3891 13.374 21.2141 13.0321 21.2102C9.99171 21.1787 6.95135 21.1964 3.911 21.1905C1.40128 21.1827 0.00196532 19.7733 0 17.2633C0 12.8014 0 8.33755 0.00196532 3.87566C0.00393065 1.4403 1.45041 0.00148666 3.90117 -0.000478933C11.5011 -0.00244452 19.103 -0.00244452 26.7029 -0.000478933C29.1536 -0.000478933 30.608 1.43833 30.6099 3.8678C30.6139 8.37883 30.6139 12.8899 30.6099 17.4009C30.608 19.7104 29.1654 21.1669 26.8542 21.1846C24.8692 21.1984 22.8823 21.1886 20.8953 21.1886C20.632 21.1886 20.3667 21.1886 20.0149 21.1886V21.1905ZM17.4875 21.7586C17.5445 21.7291 17.6034 21.6996 17.6604 21.6701C17.6604 21.3085 17.6604 20.9488 17.6604 20.5871C17.6604 19.1542 17.9847 18.8358 19.4469 18.8358C21.8741 18.8358 24.2993 18.8397 26.7264 18.8338C27.8801 18.8318 28.2555 18.4466 28.2555 17.281C28.2574 12.8446 28.2555 8.41028 28.2555 3.97394C28.2555 2.73169 27.8781 2.3543 26.6301 2.3543C19.0813 2.3543 11.5325 2.3543 3.98568 2.3543C2.73377 2.3543 2.35642 2.72972 2.35642 3.97001C2.35642 8.3572 2.35642 12.7444 2.35642 17.1296C2.35642 18.4977 2.68267 18.8338 4.02891 18.8338C7.26384 18.8358 10.4988 18.8082 13.7337 18.8613C14.2348 18.8692 14.8225 19.1385 15.2116 19.4726C16.0272 20.1684 16.7367 20.9881 17.4894 21.7566L17.4875 21.7586Z" fill="#5784F7"/>
<path d="M52.9812 25.9008C52.6451 25.9008 52.3818 25.9008 52.1204 25.9008C50.0372 25.8988 47.952 25.9224 45.8687 25.887C43.8798 25.8516 42.3999 24.3479 42.3921 22.3568C42.3744 17.6748 42.3763 12.9908 42.3921 8.30875C42.398 6.28222 43.8837 4.72941 45.9041 4.72351C53.7497 4.69796 61.5952 4.69993 69.4408 4.72351C71.4985 4.72941 72.9843 6.27633 72.9902 8.34806C73.0039 13.0065 73.0039 17.6649 72.9902 22.3234C72.9843 24.3617 71.5083 25.8693 69.4742 25.8909C66.3611 25.9224 63.2461 25.9165 60.133 25.8909C59.567 25.887 59.1799 26.0619 58.7947 26.461C57.6214 27.6777 56.4029 28.8531 55.2158 30.0599C54.7854 30.4963 54.3176 30.7656 53.7104 30.5179C53.0991 30.2683 52.9655 29.7415 52.9773 29.1283C52.9969 28.0806 52.9832 27.0329 52.9832 25.9047L52.9812 25.9008ZM55.3357 26.3961C55.4064 26.4413 55.4772 26.4865 55.5479 26.5337C56.2417 25.7907 56.9512 25.0634 57.6214 24.3008C58.1127 23.7425 58.6807 23.5263 59.4314 23.5322C62.6428 23.5637 65.8521 23.548 69.0635 23.544C70.2721 23.544 70.6397 23.1706 70.6416 21.9657C70.6416 17.5293 70.6416 13.093 70.6416 8.65862C70.6416 7.45765 70.2564 7.06649 69.0635 7.06649C61.4911 7.06453 53.9167 7.06453 46.3443 7.06649C45.1121 7.06649 44.7426 7.44782 44.7426 8.70973C44.7426 13.1205 44.7426 17.5333 44.7426 21.944C44.7426 23.1902 45.1022 23.546 46.3679 23.548C48.8678 23.5519 51.3677 23.544 53.8676 23.5519C54.919 23.5558 55.3259 23.9765 55.3357 25.032C55.3396 25.488 55.3357 25.944 55.3357 26.4V26.3961Z" fill="#5784F7"/>
<path d="M36.4842 54.1558C39.8685 54.1558 43.2528 54.1558 46.6371 54.1558C47.891 54.1558 48.2565 54.5292 48.2703 55.7695C48.3312 61.1041 46.0514 65.0746 41.1755 67.2898C33.6011 70.7316 24.8417 65.0648 24.7257 56.7503C24.6903 54.2108 24.7454 54.1558 27.2865 54.1558C30.3524 54.1558 33.4183 54.1558 36.4823 54.1558H36.4842ZM27.0605 56.544C27.2276 60.1665 28.7703 62.94 31.8638 64.6835C35.2068 66.5665 38.6068 66.4151 41.7926 64.2707C44.4811 62.4604 45.8097 59.8383 45.9178 56.544H27.0605Z" fill="#5784F7"/>
<path d="M24.6943 51.7911C22.0883 51.7813 19.9972 49.6624 20.0169 47.0501C20.0365 44.4968 22.161 42.3877 24.716 42.3838C27.3004 42.3799 29.4347 44.5184 29.4308 47.1091C29.4268 49.7135 27.3141 51.8009 24.6943 51.7911ZM24.7061 49.4363C25.9973 49.4442 27.0606 48.4123 27.0783 47.1327C27.096 45.8314 25.9993 44.7248 24.7042 44.7366C23.4306 44.7504 22.3713 45.8216 22.3713 47.0973C22.3713 48.3808 23.4188 49.4285 24.7061 49.4363Z" fill="#5784F7"/>
<path d="M48.2232 51.7911C45.6211 51.7734 43.5359 49.6447 43.5654 47.0324C43.5929 44.4811 45.7312 42.3759 48.2841 42.3838C50.8724 42.3936 52.993 44.5361 52.9812 47.1287C52.9675 49.7312 50.8489 51.8088 48.2252 51.7911H48.2232ZM48.2527 49.4363C49.5439 49.4442 50.6071 48.4142 50.6248 47.1346C50.6445 45.8334 49.5478 44.7248 48.2527 44.7386C46.9811 44.7504 45.9179 45.8236 45.9179 47.0973C45.9179 48.3808 46.9634 49.4304 48.2507 49.4383L48.2527 49.4363Z" fill="#5784F7"/>
<path d="M25.8657 4.76074V7.02117H4.75024V4.76074H25.8677H25.8657Z" fill="#14317A"/>
<path d="M25.8636 14.1758V16.4401H4.74622V14.1758H25.8636Z" fill="#14317A"/>
<path d="M7.10461 9.44678H23.4915V11.7288H7.10461V9.44678Z" fill="#14317A"/>
<path d="M68.2518 9.47021V11.7267H47.1344V9.47021H68.2518Z" fill="#14317A"/>
<path d="M47.1147 21.1397V18.895H68.2243V21.1397H47.1147Z" fill="#14317A"/>
<path d="M65.8933 14.1758V16.4401H49.4868V14.1758H65.8933Z" fill="#14317A"/>
</g>
<defs>
<clipPath id="clip0_2_853">
<rect width="73" height="73" fill="white"/>
</clipPath>
</defs>
</svg>
