<svg width="68" height="77" viewBox="0 0 68 77" fill="none" xmlns="http://www.w3.org/2000/svg">
<g clip-path="url(#clip0_2_808)">
<path d="M12.634 40.6352C12.0164 39.9467 11.3918 39.2039 10.7057 38.5178C10.5353 38.3475 10.1781 38.3072 9.906 38.3049C8.40125 38.2859 6.8965 38.3025 5.39175 38.293C2.73951 38.2788 0.726082 36.3081 0.707155 33.6726C0.688227 31.075 0.681129 28.4773 0.711887 25.8796C0.730814 24.1952 1.47846 22.8632 2.92169 21.9855C3.37832 21.7087 3.56523 21.413 3.61492 20.8901C4.30341 13.7809 7.53058 8.09112 13.3934 4.02192C26.8936 -5.34668 45.6462 2.50781 48.5303 18.697C48.5823 18.9857 48.658 19.2743 48.677 19.5677C48.7598 20.734 48.8899 21.7537 50.1226 22.4729C51.218 23.1116 51.6912 24.3632 51.7006 25.6785C51.7196 28.3354 51.7432 30.9922 51.7125 33.649C51.6817 36.3933 49.7369 38.2717 46.9829 38.2954C46.7179 38.2954 46.4553 38.2954 46.0224 38.2954C46.2779 40.479 46.1785 42.5468 43.9995 43.68C45.1327 45.0403 46.1288 46.2776 47.1864 47.4606C47.3402 47.6333 47.8205 47.6427 48.0973 47.5576C52.9806 46.0671 57.5422 46.7011 61.7276 49.6466C66.6772 53.129 68.9579 59.2659 67.6259 65.339C66.3672 71.0784 61.5265 75.6941 55.6613 76.7516C49.117 77.9298 42.7147 74.8566 39.6011 69.0013C39.2959 68.4287 38.9387 68.3057 38.3519 68.3057C26.3399 68.3199 14.3303 68.3152 2.31837 68.3128C1.93509 68.3128 1.54707 68.3199 1.17088 68.2584C0.435069 68.1401 -0.04522 67.6693 -0.000266826 66.9335C0.456363 59.6445 1.16378 52.4169 6.17015 46.5095C7.12127 45.3881 8.1339 44.3022 9.22224 43.3157C10.2846 42.3504 11.4817 41.5271 12.6292 40.6352H12.634ZM38.191 65.391C37.5309 62.2137 37.7107 59.1713 38.915 56.2141C40.1264 53.2355 42.1351 50.9099 44.8843 49.0788C43.8764 47.9479 42.9442 46.9022 42.0144 45.8589C41.8985 45.8897 41.7826 45.9204 41.6666 45.9488C41.6524 46.2918 41.5602 46.6538 41.6382 46.9708C42.0712 48.6979 41.7187 50.2167 40.3819 51.3973C39.0191 52.5991 37.4292 52.8191 35.7707 52.0668C35.2975 51.8515 34.9544 51.8302 34.4717 52.0266C31.4693 53.245 28.1239 51.9367 26.6901 49.0244C26.5529 48.7476 26.4204 48.466 26.2358 48.0851C26.1081 48.3359 26.0253 48.4826 25.9567 48.634C24.9677 50.8224 23.3068 52.1827 20.9148 52.4335C18.3738 52.6985 16.3887 51.6551 14.981 49.5164C14.2523 48.4092 13.5117 47.3068 12.7712 46.2043C12.4683 45.7524 12.1489 45.31 11.8272 44.8511C11.6544 44.9907 11.5598 45.0616 11.4699 45.1373C5.19538 50.4225 3.21744 57.4963 3.1086 65.4289H10.5614C10.6868 62.474 11.1245 59.5546 8.79163 57.2243C8.56687 56.9995 8.42491 56.6919 8.24746 56.4199C7.59919 55.4215 7.67254 54.6077 8.4533 54.1085C9.20331 53.6306 9.97698 53.8766 10.6063 54.8088C11.3327 55.8852 12.0093 56.9948 12.7759 58.0381C13.2917 58.7431 13.507 59.467 13.481 60.3377C13.4336 62.0079 13.4668 63.6829 13.4668 65.391H38.191ZM40.4765 28.8889C40.3701 25.908 40.5404 23.0123 40.1075 20.2088C39.1043 13.7123 33.5916 8.9783 26.9338 8.54772C20.6072 8.13843 14.6119 12.3638 12.6955 18.5646C11.6592 21.9169 12.1986 25.3544 12.0235 28.8629C12.395 28.7565 12.6742 28.6902 12.9439 28.5956C17.832 26.8898 21.7476 23.8995 24.7335 19.6765C25.7556 18.2333 26.6877 18.2239 27.6909 19.6599C29.5576 22.3309 31.8645 24.543 34.6279 26.2676C36.4 27.3748 38.2715 28.2738 40.4742 28.8913L40.4765 28.8889ZM52.9002 74.1185C59.6597 74.1445 65.1582 68.6464 65.163 61.8565C65.1677 55.2299 59.6242 49.6608 52.9948 49.6347C46.2471 49.6087 40.7179 55.0548 40.6871 61.7619C40.654 68.6582 46.0271 74.0925 52.9002 74.1185ZM26.2406 22.5273C25.9945 22.8041 25.7958 23.0146 25.6089 23.237C22.3486 27.0815 18.3406 29.8258 13.5496 31.4156C12.0448 31.9148 12.0661 31.9195 12.0401 33.578C12.0235 34.7041 12.0874 35.7048 12.8989 36.6819C19.6537 44.8227 31.7864 45.1941 39.0167 37.4532C39.9702 36.4335 40.6256 35.3878 40.3866 33.9281C40.3109 33.4692 40.3535 32.9842 40.3795 32.5134C40.4032 32.071 40.2849 31.8415 39.807 31.6995C34.3629 30.0837 29.87 27.0389 26.2406 22.5249V22.5273ZM45.9561 21.2568C45.2558 10.9183 36.3669 2.29962 25.2279 2.91709C13.1521 3.58425 6.69539 13.7028 6.55817 21.2427H9.2459C9.73328 16.7098 11.6119 12.8701 15.0591 9.8773C18.5346 6.85853 22.6112 5.47926 27.2035 5.72058C30.8092 5.90984 34.0482 7.15899 36.8566 9.43017C40.6161 12.4702 42.6674 16.459 43.2045 21.2568H45.9561ZM43.2565 35.4517C44.643 35.4517 45.9395 35.5014 47.229 35.4351C48.199 35.3855 48.8568 34.6473 48.8639 33.6702C48.8875 31.0726 48.8852 28.4749 48.8639 25.8773C48.8568 25.0138 48.3741 24.3087 47.5389 24.233C46.1241 24.1076 44.6903 24.1999 43.2589 24.1999V35.4517H43.2565ZM9.18438 24.1337C7.81449 24.1337 6.52031 24.0864 5.23087 24.1502C4.23007 24.1999 3.57706 24.9239 3.56287 25.9861C3.52738 28.5246 3.53211 31.0631 3.56287 33.6016C3.5747 34.5693 4.10704 35.3121 4.97534 35.3784C6.36653 35.4848 7.77191 35.4068 9.18675 35.4068V24.1337H9.18438ZM23.9976 45.7879C21.0899 45.3976 18.4093 44.5553 15.9841 43.0365C15.2909 42.6035 14.7846 42.5515 14.2286 43.247C15.369 44.9386 16.4692 46.6822 17.6829 48.3454C18.7476 49.8051 20.7421 50.0346 22.1664 48.9865C23.2382 48.1987 23.5032 46.9685 23.9953 45.7903L23.9976 45.7879ZM39.5325 44.0514C37.9828 42.5468 37.6587 42.4995 36.0096 43.4032C35.6476 43.6019 35.2927 43.8243 34.9047 43.9568C32.8085 44.6665 30.7028 45.3526 28.5876 46.0505C29.3707 48.9889 31.157 50.2617 33.3834 49.3153C32.9362 45.6673 35.1035 43.6161 38.8298 44.1437C39.0215 44.1697 39.2273 44.094 39.5302 44.0491L39.5325 44.0514ZM43.1288 38.2623C42.736 38.3333 42.1895 38.2718 41.915 38.5154C41.1958 39.1518 40.5948 39.9231 39.9182 40.6707C40.4411 41.0397 40.9237 41.4206 41.4513 41.7235C41.598 41.8063 42.0191 41.7235 42.0807 41.5981C42.5775 40.5926 43.4695 39.7149 43.1311 38.2599L43.1288 38.2623ZM37.5782 46.8052C36.8543 46.791 36.1634 47.4629 36.1516 48.1963C36.1397 48.9297 36.8022 49.6134 37.538 49.6276C38.2738 49.6418 38.941 48.9865 38.9505 48.2365C38.96 47.4889 38.3188 46.8194 37.5759 46.8052H37.5782Z" fill="#14317A"/>
<path d="M54.8523 57.0325C54.8523 57.4749 54.8783 57.9197 54.8475 58.3597C54.7174 60.2287 55.5502 61.4921 57.2088 62.3036C58.4769 62.9234 59.7119 63.6142 60.9493 64.2932C61.865 64.7948 62.1465 65.566 61.7348 66.3349C61.335 67.0801 60.5022 67.2789 59.5889 66.8033C58.1528 66.0581 56.7403 65.2656 55.2923 64.544C54.9706 64.3831 54.5139 64.3382 54.1638 64.4233C53.0518 64.6907 51.9682 64.3523 51.353 63.451C50.7118 62.507 50.8041 61.362 51.4926 60.4038C51.741 60.0584 51.9137 59.5781 51.9279 59.1547C51.98 57.5932 51.9161 56.0294 51.9634 54.468C52.0013 53.2094 53.1346 52.4523 54.0502 53.1029C54.4572 53.3916 54.7363 54.0374 54.8191 54.5626C54.9445 55.3694 54.8523 56.2092 54.8546 57.0349L54.8523 57.0325Z" fill="#5784F7"/>
<path d="M52.8886 70.8653C46.1007 70.889 41.7 63.5502 44.9485 57.6688C45.3152 57.0064 45.831 56.5238 46.5644 56.7698C47.0163 56.9236 47.4564 57.4015 47.6812 57.8439C47.8231 58.1231 47.6338 58.6412 47.4682 58.9937C45.5731 63.0652 47.7427 67.2882 52.1528 67.979C52.8886 68.095 53.6718 67.9388 54.4289 67.8655C55.4178 67.7708 56.0543 68.1565 56.2199 69.0034C56.3737 69.7794 55.8295 70.4821 54.9044 70.6903C54.5898 70.7612 54.2704 70.8298 53.9486 70.8559C53.5984 70.8842 53.2435 70.863 52.8886 70.863V70.8653Z" fill="#5784F7"/>
</g>
<defs>
<clipPath id="clip0_2_808">
<rect width="68" height="77" fill="white"/>
</clipPath>
</defs>
</svg>
