<svg width="71" height="68" viewBox="0 0 71 68" fill="none" xmlns="http://www.w3.org/2000/svg">
<g clip-path="url(#clip0_2_842)">
<path d="M0 21.7654C0.325998 20.3997 0.873953 19.1719 2.00801 18.2494C3.18369 17.2941 4.5397 16.9837 6.00843 16.9837C11.3475 16.9837 16.6866 16.9837 22.0257 16.9837C22.2962 16.9837 22.5684 16.9837 22.8736 16.9837C22.7575 15.7249 22.6361 14.5454 22.5442 13.3642C21.9442 5.71299 28.504 -0.700054 36.1685 0.0621305C40.1047 0.453569 43.1844 2.3073 45.4317 5.53883C45.5097 5.65264 45.5843 5.76817 45.6623 5.88198C46.2813 6.77522 46.8206 6.78212 47.3894 5.87853C49.0229 3.28331 51.2702 1.4451 54.2284 0.579451C58.1283 -0.560378 61.8148 -0.0120186 65.2031 2.25039C67.7279 3.93513 69.3111 6.29929 70.1087 9.19973C70.348 10.0705 69.9995 10.6965 69.2625 10.7448C68.5689 10.7914 68.2706 10.3482 68.1059 9.7774C67.7157 8.41685 67.1452 7.14424 66.247 6.0389C63.9633 3.22813 60.9703 1.92966 57.374 2.11934C53.8625 2.30385 51.0794 3.90237 49.2552 6.89765C47.8767 9.16179 45.2409 9.10833 43.7878 6.86661C39.5013 0.255263 29.9762 0.494955 25.9776 7.25978C24.8955 9.08937 24.4343 11.0862 24.6163 13.2107C24.7048 14.2384 24.8712 15.261 24.9423 16.2887C24.9822 16.8561 25.2146 17.0009 25.7643 16.9992C31.0565 16.9802 36.3488 16.9871 41.6428 16.9888C44.0375 16.9888 45.945 17.8976 46.9767 20.11C47.3599 20.9325 47.5264 21.9206 47.5403 22.838C47.5992 26.8369 47.5663 30.8358 47.5663 34.8347V35.2778C47.6114 35.2882 47.6564 35.3003 47.7015 35.3106C48.3899 34.1811 49.0783 33.0516 49.7668 31.9221C49.8621 31.7652 49.9644 31.6118 50.0529 31.4497C50.8072 30.065 51.9048 29.2045 53.5574 29.3493C55.222 29.4942 56.3578 30.4323 57.0826 31.8928C57.2023 32.1325 57.2907 32.3877 57.4468 32.7637C58.6034 31.6583 59.7374 30.653 60.7813 29.5614C63.6598 26.5524 66.0459 23.2122 67.3238 19.2133C67.7903 17.7562 68.0348 16.2284 68.3435 14.7247C68.5151 13.8884 68.9348 13.4642 69.5937 13.5832C70.2266 13.6987 70.5075 14.2195 70.4087 15.023C69.6925 20.8981 67.0447 25.8661 63.0443 30.1339C61.3328 31.9601 59.382 33.5603 57.5526 35.2796C57.3133 35.5055 57.0826 35.79 56.9717 36.0935C56.2711 38.0127 55.5983 39.9423 54.929 41.8719C54.4729 43.1877 55.0504 43.9723 56.4688 43.974C59.9594 43.9774 63.4483 43.974 66.9389 43.974C68.3504 43.974 69.5122 44.4965 70.3237 45.6604C71.515 47.3693 71.0867 49.6455 69.3787 50.844C69.1914 50.9751 68.9955 51.0906 68.8064 51.2113C69.8139 53.7807 69.3804 55.1981 67.0724 56.7483C67.5545 57.645 67.7418 58.6193 67.4834 59.635C67.2285 60.6369 66.6268 61.4008 65.7511 61.9595C65.9384 62.4665 66.1794 62.9389 66.2852 63.4407C66.7707 65.7497 65.1234 67.8793 62.7547 67.9638C61.0466 68.0242 59.3352 67.9932 57.6254 67.9845C56.9127 67.9811 56.4636 67.5776 56.4497 66.9896C56.4359 66.3774 56.8919 65.9428 57.6479 65.929C59.0334 65.9066 60.4207 65.9221 61.8079 65.9204C62.0628 65.9204 62.3177 65.9273 62.5709 65.9084C63.5749 65.8325 64.3257 65.0927 64.317 64.2012C64.3084 63.2993 63.5679 62.5423 62.5501 62.5199C60.7709 62.482 58.9918 62.5061 57.211 62.5009C56.9578 62.5009 56.7012 62.5009 56.4497 62.4682C55.8844 62.3958 55.5775 62.0491 55.5688 61.4956C55.5602 60.9438 55.848 60.5817 56.4116 60.4886C56.6595 60.4472 56.9162 60.4368 57.1693 60.4368C59.2034 60.4334 61.2374 60.442 63.2714 60.4282C63.6581 60.4248 64.0691 60.4023 64.428 60.2747C65.2239 59.9902 65.6349 59.2004 65.4806 58.3986C65.3314 57.6226 64.6673 57.0518 63.7951 57.0432C61.5773 57.0208 59.3577 57.0363 57.1399 57.0277C56.8642 57.0277 56.5832 57.0122 56.3162 56.9501C55.7908 56.8277 55.5463 56.4535 55.5706 55.9362C55.5966 55.4171 55.8827 55.0774 56.4133 54.9981C56.663 54.9601 56.9196 54.9636 57.1745 54.9636C59.7392 54.9619 62.3056 54.967 64.8702 54.9584C65.2378 54.9584 65.6124 54.9325 65.9696 54.8515C66.7533 54.6739 67.3169 53.8841 67.2545 53.1116C67.1903 52.3391 66.5158 51.62 65.7337 51.5631C65.1355 51.5182 64.5321 51.5424 63.9321 51.5424C61.6206 51.5424 59.3091 51.5441 56.9994 51.5407C56.0596 51.5407 55.5671 51.1837 55.5584 50.5146C55.548 49.83 56.0214 49.4748 56.9665 49.4731C60.249 49.4696 63.5298 49.4765 66.8123 49.4662C67.1539 49.4662 67.5146 49.4386 67.8319 49.3248C68.5203 49.0748 68.9712 48.3315 68.9226 47.6435C68.8741 46.9469 68.3417 46.3209 67.6013 46.1433C67.2909 46.0691 66.9632 46.045 66.6424 46.045C63.1986 46.0381 59.7548 46.0536 56.311 46.0364C54.1383 46.0243 52.6088 44.5034 52.7077 42.4496C52.732 41.9564 52.8846 41.4564 53.0476 40.9822C53.7394 38.9629 54.4643 36.954 55.1631 34.9381C55.5324 33.8742 55.5394 32.8533 54.6515 32.0049C53.6943 31.0893 52.6348 31.2151 51.9499 32.3343C50.1847 35.2175 48.4818 38.1403 46.649 40.9787C45.7924 42.303 44.7727 43.5481 43.6786 44.6896C42.5965 45.8191 41.0602 45.9467 39.5724 46.0381C39.2082 46.0605 38.8424 46.0415 38.4366 46.0415V62.0181C39.0504 62.0181 39.6452 62.0233 40.2382 62.0181C41.6515 62.0026 42.9312 62.4492 43.8589 63.4752C45.6276 65.429 47.764 66.2239 50.3685 65.936C51.0534 65.8601 51.754 65.9084 52.4476 65.9308C53.2001 65.9549 53.6666 66.3826 53.6562 66.9878C53.6458 67.5931 53.1793 67.9845 52.4129 67.9897C51.0499 67.9966 49.6853 67.988 48.3223 67.9794C46.6854 67.9707 45.2496 67.4276 44.0184 66.355C43.741 66.1136 43.441 65.8877 43.1965 65.6152C41.9151 64.1874 40.2972 63.8494 38.4418 64.146C38.4002 64.3495 38.362 64.572 38.31 64.7909C38.0672 65.8394 37.2401 66.5929 36.1529 66.6016C32.5704 66.6292 28.9878 66.6395 25.4071 66.6016C23.9297 66.5861 22.9967 65.4911 22.9915 63.8856C22.9794 59.4729 22.9881 55.0602 22.9863 50.6474C22.9863 50.3767 22.9863 50.1059 22.9863 49.7524C22.3257 49.7524 21.7274 49.7076 21.1431 49.7766C20.9367 49.8007 20.7078 50.0749 20.5864 50.2905C19.4437 52.3115 18.3097 54.3376 17.1999 56.3759C16.7872 57.1329 16.2583 57.7088 15.3445 57.7175C14.3977 57.7261 13.8584 57.1346 13.4353 56.3535C12.3498 54.3531 11.2192 52.3787 10.1302 50.3801C9.87879 49.918 9.56493 49.7335 9.03258 49.7369C7.67136 49.7473 6.29974 49.7921 4.94893 49.6559C2.37736 49.3989 0.688411 47.8022 0.110978 45.2604C0.0867017 45.15 0.0381487 45.0466 0.00173403 44.9396C0.00173403 37.2161 0.00173403 29.4925 0.00173403 21.7706L0 21.7654ZM22.8667 47.6745C22.9257 47.5521 22.9621 47.5125 22.9621 47.4728C22.9725 46.2795 22.9655 45.0845 22.9915 43.8912C23.0245 42.3513 23.9782 41.2891 25.5232 41.2667C29.0104 41.2149 32.501 41.2236 35.9881 41.2632C37.3545 41.2787 38.1921 42.1272 38.3776 43.4825C38.3984 43.6326 38.4123 43.7843 38.4279 43.936C39.0556 43.936 39.6348 43.9774 40.2036 43.9274C41.2457 43.8343 42.1786 43.5067 42.8289 42.6031C43.5936 41.5409 44.4121 40.5148 45.1577 39.4388C45.3623 39.1439 45.4733 38.7249 45.475 38.3611C45.4941 33.1913 45.4906 28.0216 45.4854 22.8535C45.4854 22.5104 45.4785 22.1603 45.4126 21.8258C45.0693 20.0738 43.7011 19.0667 41.6567 19.065C35.0726 19.0598 28.4884 19.0633 21.9026 19.0633C16.5652 19.0633 11.2296 19.0581 5.89225 19.0667C3.43685 19.0702 2.08257 20.4342 2.08084 22.8725C2.07911 29.9253 2.07564 36.9798 2.08257 44.0326C2.08431 46.2398 3.49408 47.6452 5.71711 47.6745C6.84943 47.6883 7.98176 47.7004 9.11235 47.6711C10.4094 47.6383 11.3094 48.2108 11.9128 49.3265C12.5145 50.437 13.1353 51.5389 13.7492 52.6425C14.2572 53.5565 14.7705 54.4687 15.3132 55.4412C15.4728 55.1636 15.5907 54.967 15.7017 54.767C16.619 53.1219 17.6108 51.5113 18.431 49.818C19.1992 48.2315 20.2986 47.4262 22.0951 47.6711C22.3604 47.7073 22.6343 47.6763 22.865 47.6763L22.8667 47.6745ZM29.6277 64.5444V43.3118C28.4312 43.3118 27.2815 43.3118 26.1319 43.3118C25.1071 43.3118 25.0672 43.3515 25.0672 44.3465C25.0672 50.7543 25.0672 57.1605 25.0672 63.5683C25.0672 63.7287 25.0186 63.9201 25.088 64.0426C25.1955 64.234 25.381 64.5168 25.5406 64.5202C26.8949 64.5582 28.2509 64.5426 29.6294 64.5426L29.6277 64.5444ZM31.7883 64.4806C31.8802 64.5133 31.9218 64.5392 31.9634 64.5409C33.094 64.5478 34.2263 64.553 35.3569 64.5547C36.3107 64.5547 36.3124 64.5547 36.3124 63.6063C36.3124 57.1553 36.3124 50.7026 36.3124 44.2516C36.3124 44.0912 36.3609 43.9033 36.2951 43.7757C36.2049 43.5998 36.0297 43.3411 35.8858 43.3377C34.5315 43.3049 33.1755 43.3187 31.7883 43.3187V64.4806Z" fill="#14317A"/>
<path d="M13.7369 36.5557C11.9092 36.5626 10.4128 35.1003 10.4041 33.2983C10.3954 31.4963 11.8919 29.9771 13.6814 29.9736C15.5594 29.9702 17.0576 31.4377 17.0489 33.2724C17.0402 35.083 15.5611 36.5488 13.7369 36.5557ZM14.9646 33.2776C14.9767 32.6102 14.427 32.0722 13.7352 32.074C13.0468 32.0757 12.4971 32.5999 12.4884 33.2638C12.4797 33.9208 13.0416 34.4743 13.7178 34.4778C14.3924 34.4812 14.9525 33.9415 14.9646 33.2759V33.2776Z" fill="#5784F7"/>
<path d="M23.3176 36.5572C21.4968 36.5537 19.9899 35.0673 19.9934 33.2808C19.9969 31.4857 21.5176 29.9665 23.3002 29.9786C25.1938 29.9924 26.6521 31.4409 26.6382 33.2946C26.6226 35.1156 25.1522 36.5623 23.3193 36.5589L23.3176 36.5572ZM23.3002 34.4793C23.9852 34.4913 24.5383 33.9671 24.5522 33.2946C24.5661 32.6255 24.025 32.0686 23.3488 32.0565C22.6777 32.0444 22.1003 32.5893 22.0847 33.2463C22.0691 33.9033 22.6257 34.4672 23.302 34.4793H23.3002Z" fill="#5784F7"/>
<path d="M36.2326 33.2447C36.2378 35.0795 34.802 36.5366 32.9691 36.5573C31.138 36.578 29.6467 35.1433 29.6138 33.3292C29.5826 31.5255 31.053 30.0028 32.8529 29.977C34.7326 29.9494 36.2291 31.3961 36.2326 33.2447ZM32.9483 32.0549C32.2686 32.0445 31.7154 32.5756 31.705 33.2499C31.6946 33.931 32.2218 34.4725 32.905 34.4811C33.5916 34.4914 34.1344 33.9707 34.1465 33.2912C34.1587 32.6153 33.6263 32.0635 32.9483 32.0531V32.0549Z" fill="#5784F7"/>
</g>
<defs>
<clipPath id="clip0_2_842">
<rect width="71" height="68" fill="white"/>
</clipPath>
</defs>
</svg>
