<svg width="55" height="69" viewBox="0 0 55 69" fill="none" xmlns="http://www.w3.org/2000/svg">
<g clip-path="url(#clip0_2_795)">
<path d="M11.9935 0C12.0317 0.0504123 12.0626 0.113428 12.1117 0.149436C12.5627 0.468114 12.6882 0.90562 12.4991 1.39534C12.3172 1.86705 11.9153 2.02729 11.4079 2.02549C9.20739 2.01289 7.00688 2.01829 4.80637 2.02189C3.04233 2.02369 2.10393 2.92931 2.10211 4.66494C2.09847 24.5634 2.09847 44.4636 2.10211 64.3621C2.10211 66.0635 3.04778 66.9835 4.75909 66.9853C19.9135 66.9871 35.0679 66.9853 50.2223 66.9853C51.9809 66.9853 52.9157 66.0743 52.9193 64.3333C52.9284 60.5595 52.923 56.7876 52.923 53.0139C52.923 52.8123 52.9175 52.6088 52.9248 52.4072C52.9521 51.6474 53.3085 51.2297 53.9305 51.2207C54.5779 51.2099 54.9889 51.6582 54.9907 52.4306C54.9962 56.5176 54.9943 60.6064 54.9871 64.6934C54.9871 64.9598 54.9343 65.2281 54.8834 65.4909C54.487 67.5218 52.7338 68.9964 50.657 68.9982C35.2298 69.0036 19.8044 69.0054 4.37718 68.9982C2.02754 68.9982 0.123468 67.1239 0.0325376 64.7744C0.0216259 64.5061 0.0270818 64.236 0.0270818 63.966C0.0289004 44.4906 0.0543608 25.0189 -0.000197291 5.54715C-0.0074717 2.82849 0.830904 0.885816 3.55335 0C6.36673 0 9.18011 0 11.9935 0Z" fill="#14317A"/>
<path d="M51.4701 0C51.6502 0.0774188 51.8266 0.167441 52.0121 0.232257C53.7779 0.86061 54.9346 2.41079 54.9873 4.26344C55.0128 5.16006 54.9946 6.06028 54.9946 6.95689C54.9946 20.4962 54.9946 34.0355 54.9946 47.5748C54.9946 47.843 55.0201 48.1221 54.9546 48.3778C54.8182 48.9197 54.4508 49.2276 53.8652 49.1808C53.316 49.1358 53.0032 48.8117 52.9468 48.2733C52.9159 47.9835 52.925 47.69 52.925 47.3983C52.925 33.2523 52.925 19.1081 52.9178 4.96201C52.9178 4.47589 52.885 3.96276 52.7341 3.50725C52.4122 2.53502 51.5247 2.02009 50.3208 2.01829C46.1471 2.01469 41.9752 2.01829 37.8015 2.01829C30.5435 2.01829 23.2873 2.01649 16.0292 2.02189C15.4545 2.02189 14.9344 1.98228 14.6907 1.35573C14.4398 0.721976 14.8217 0.351085 15.2599 0C27.33 0 39.4001 0 51.4701 0Z" fill="#14317A"/>
<path d="M35.4082 51.1741V45.6485H9.72045C9.7059 45.834 9.67681 46.0266 9.67499 46.2175C9.67135 47.5876 9.7059 48.9577 9.65862 50.3261C9.6368 50.9832 9.85685 51.1885 10.5097 51.1831C13.4813 51.1579 16.4529 51.1723 19.4245 51.1723C19.6518 51.1723 19.8792 51.1669 20.1047 51.1885C20.6957 51.2443 21.0958 51.6494 21.0994 52.1805C21.1031 52.7098 20.7012 53.1402 20.1265 53.2104C19.9701 53.2302 19.8101 53.2194 19.65 53.2194C16.542 53.2194 13.434 53.2212 10.326 53.2194C8.58201 53.2194 7.62906 52.2831 7.62724 50.5637C7.6236 43.7365 7.6236 36.9092 7.62724 30.0819C7.62724 28.3787 8.54563 27.4587 10.2715 27.4569C21.7723 27.4515 33.275 27.4497 44.7758 27.4569C46.4599 27.4569 47.3892 28.3895 47.391 30.0441C47.3964 36.8948 47.3964 43.7437 47.391 50.5943C47.391 52.2687 46.4217 53.2194 44.7285 53.2194C37.9906 53.2212 31.2545 53.2212 24.5166 53.2158C24.2511 53.2158 23.9656 53.1924 23.7237 53.0951C23.2727 52.9151 23.0926 52.5352 23.149 52.0599C23.2072 51.5774 23.4891 51.2857 23.9692 51.2083C24.2129 51.1687 24.4657 51.1741 24.7148 51.1741C28.0047 51.1723 31.2927 51.1741 34.5826 51.1741C34.8281 51.1741 35.0736 51.1741 35.4028 51.1741H35.4082ZM35.3991 37.1379H9.71318V43.5096H35.3973V37.1379H35.3991ZM9.67681 35.0079H35.39V29.5022C35.1663 29.5022 34.9881 29.5022 34.8099 29.5022C26.6898 29.5022 18.5698 29.5022 10.4515 29.5022C10.3606 29.5022 10.2406 29.4662 10.1842 29.5112C10.0023 29.6534 9.70227 29.8209 9.69863 29.9829C9.66226 31.6411 9.67681 33.2993 9.67681 35.0097V35.0079ZM37.5724 43.4952H45.3069V37.1307H37.5724V43.4952ZM45.3523 45.6431H37.576V51.1651C40.0493 51.1651 42.488 51.1741 44.9268 51.1417C45.0723 51.1399 45.3305 50.7906 45.3341 50.5979C45.3669 48.9865 45.3523 47.3715 45.3523 45.6449V45.6431ZM37.5687 35.0007H45.3523C45.3523 33.3623 45.3341 31.7725 45.3614 30.1846C45.3705 29.6462 45.1705 29.4878 44.6467 29.4932C42.6535 29.5148 40.6603 29.5022 38.669 29.5022C38.3125 29.5022 37.9579 29.5022 37.5687 29.5022V35.0025V35.0007Z" fill="#5784F7"/>
<path d="M35.6956 58.4691C36.5139 58.4403 37.1632 58.8202 37.6869 59.4233C37.9961 59.7798 38.2507 60.1813 38.5326 60.5612C39.0927 61.3174 39.4273 61.321 39.9747 60.5774C40.2021 60.2695 40.4076 59.9455 40.6422 59.643C41.8697 58.0622 43.7665 58.0334 45.0341 59.58C45.2905 59.8933 45.4742 60.2713 45.7579 60.554C46.0125 60.8097 46.3344 61.0383 46.6708 61.1662C47.22 61.3732 47.6019 61.8107 47.4928 62.3112C47.3655 62.891 46.9782 63.2079 46.3762 63.1881C45.4724 63.1593 44.7958 62.6929 44.2612 62.007C43.9575 61.6163 43.6883 61.1986 43.3846 60.8097C43.0645 60.401 42.7026 60.3866 42.3735 60.7989C42.0789 61.168 41.8188 61.5641 41.5296 61.9368C40.2057 63.6382 38.2671 63.6256 36.9759 61.908C36.7322 61.5839 36.5176 61.24 36.2684 60.9213C35.8265 60.356 35.5301 60.3452 35.0827 60.8943C34.7844 61.2598 34.5844 61.7297 34.2298 62.0196C33.6878 62.4625 33.0895 62.891 32.4421 63.1413C31.8037 63.3897 31.1836 62.9702 31.0636 62.4049C30.9308 61.7837 31.2545 61.384 31.9729 61.15C32.2511 61.0599 32.5166 60.8475 32.7167 60.6278C33.0022 60.3128 33.2095 59.9293 33.4769 59.5962C34.037 58.8958 34.7335 58.4367 35.701 58.4709L35.6956 58.4691Z" fill="#5784F7"/>
<path d="M30.9363 9.29025C30.9399 11.4238 29.2122 13.1612 27.0681 13.1792C24.944 13.1972 23.1654 11.449 23.1581 9.33526C23.1508 7.16753 24.9003 5.4103 27.059 5.4175C29.2013 5.4247 30.9344 7.15493 30.9363 9.29205V9.29025ZM28.8794 9.26504C28.8649 8.2748 28.0592 7.49521 27.0481 7.49341C26.0169 7.49341 25.1768 8.32521 25.1986 9.32625C25.2222 10.3417 26.0661 11.1213 27.1099 11.0925C28.1193 11.0637 28.8922 10.2643 28.8776 9.26504H28.8794Z" fill="#5784F7"/>
<path d="M14.0324 8.65987C14.0324 7.94689 14.0215 7.23212 14.036 6.51915C14.0487 5.86019 14.4816 5.41008 15.0617 5.41908C15.6146 5.42808 16.0565 5.86559 16.0674 6.47954C16.0983 8.27277 16.1092 10.0678 16.1238 11.861C16.1292 12.403 15.9255 12.8549 15.3854 13.0259C14.798 13.2114 14.3415 12.9719 13.9978 12.4606C13.434 11.6216 12.843 10.8006 12.1137 9.98139C12.1137 10.4477 12.1137 10.9158 12.1137 11.3821C12.1137 11.6504 12.1319 11.9223 12.1028 12.1887C12.041 12.7487 11.5863 13.1682 11.0717 13.17C10.5461 13.17 10.0733 12.7631 10.066 12.1887C10.0424 10.2605 10.0223 8.33039 10.0896 6.40392C10.1005 6.08884 10.5116 5.61172 10.8225 5.5289C11.1371 5.44608 11.69 5.65674 11.9082 5.9232C12.6284 6.80542 13.2449 7.77225 13.8996 8.70668L14.0287 8.65627L14.0324 8.65987Z" fill="#5784F7"/>
<path d="M40.2384 13.1791C38.5744 13.1629 37.0995 12.1439 36.5285 10.6729C35.9611 9.20917 36.3485 7.56357 37.5178 6.47431C38.6781 5.39224 40.3603 5.12038 41.8097 5.78654C42.0134 5.88016 42.2225 5.98279 42.3953 6.12322C42.8427 6.48331 42.9445 6.95322 42.6608 7.44114C42.3735 7.93266 41.9188 8.05689 41.3714 7.86065C40.9932 7.72561 40.6131 7.53837 40.2221 7.50776C39.4164 7.44474 38.6908 7.97587 38.4453 8.70505C38.1852 9.47924 38.4708 10.3236 39.1491 10.79C39.8184 11.2509 40.5422 11.1951 41.2532 10.6279C41.7552 10.2282 42.3244 10.2282 42.7227 10.6315C43.13 11.042 43.13 11.5984 42.7008 12.0809C42.028 12.8353 41.1477 13.1341 40.2384 13.1773V13.1791Z" fill="#5784F7"/>
<path d="M46.4889 7.51331V8.20288C47.3491 8.37032 48.664 7.92561 48.6422 9.32275C48.6203 10.6623 47.3382 10.2122 46.4871 10.3868C46.4762 10.5903 46.4653 10.7793 46.4544 10.9684C46.549 11.0098 46.6072 11.0584 46.6672 11.0602C47.0745 11.0746 47.4874 11.0422 47.8893 11.0944C48.4712 11.1718 48.8622 11.5175 48.8549 12.1206C48.8477 12.7202 48.4694 13.0929 47.8729 13.1217C47.0363 13.1631 46.1961 13.1649 45.3614 13.1145C44.7649 13.0785 44.4103 12.695 44.4066 12.09C44.3939 10.2284 44.3939 8.36672 44.4066 6.50507C44.4103 5.86231 44.8013 5.49502 45.4196 5.45721C46.2089 5.4086 47.0054 5.414 47.7965 5.45001C48.433 5.47882 48.8568 5.91632 48.8677 6.45646C48.8786 7.01999 48.4258 7.4575 47.7656 7.50791C47.5637 7.52412 47.3582 7.51151 47.1546 7.51331C46.9527 7.51331 46.7526 7.51331 46.4908 7.51331H46.4889Z" fill="#5784F7"/>
<path d="M41.6314 19.3871C39.6364 19.3871 37.6414 19.3961 35.6464 19.3817C34.9808 19.3763 34.5243 18.9352 34.5189 18.3645C34.5134 17.7865 34.9389 17.3905 35.6318 17.3382C35.8355 17.3238 36.0392 17.3292 36.2429 17.3292C38.9635 17.3292 41.6841 17.3292 44.4048 17.3292C45.4032 17.3292 46.3998 17.3256 47.3982 17.3292C48.3548 17.3346 48.864 17.6929 48.8676 18.3501C48.8713 19.0216 48.3621 19.3871 47.4127 19.3871C45.485 19.3871 43.5591 19.3871 41.6314 19.3871Z" fill="#5784F7"/>
<path d="M20.0938 9.20227C20.4448 8.17242 20.7466 7.2596 21.0649 6.35218C21.3322 5.58699 21.816 5.29172 22.4252 5.50237C23.0435 5.71662 23.2654 6.24055 23.0199 6.98233C22.4489 8.70355 21.856 10.4194 21.294 12.1424C21.0994 12.7383 20.7521 13.1614 20.1083 13.1614C19.4609 13.1614 19.1226 12.7329 18.9226 12.1406C18.3497 10.4428 17.7423 8.75756 17.1567 7.06335C16.8712 6.23515 17.0458 5.73823 17.6877 5.49877C18.3097 5.26651 18.7916 5.56899 19.0863 6.38099C19.4118 7.28301 19.7337 8.18683 20.0974 9.20227H20.0938Z" fill="#5784F7"/>
<path d="M32.573 9.29906C32.573 8.42405 32.5639 7.54904 32.5749 6.67402C32.584 5.91784 33.0041 5.42632 33.6151 5.42092C34.2225 5.41732 34.6499 5.89983 34.6553 6.66682C34.6699 8.41685 34.6699 10.1687 34.6553 11.9187C34.6499 12.6893 34.2298 13.17 33.6206 13.1718C32.9913 13.1718 32.5785 12.6641 32.5712 11.8575C32.564 11.0041 32.5712 10.1525 32.5712 9.29906H32.573Z" fill="#5784F7"/>
<path d="M45.205 23.8469C44.3885 23.8469 43.5719 23.8559 42.7554 23.8451C42.0298 23.836 41.5624 23.4346 41.5515 22.8386C41.5405 22.2463 42.0097 21.8268 42.7299 21.8232C44.3867 21.8142 46.0416 21.8142 47.6983 21.8232C48.4185 21.8268 48.8841 22.2499 48.8695 22.8476C48.8531 23.4436 48.3858 23.8378 47.6565 23.8469C46.84 23.8577 46.0234 23.8487 45.2068 23.8487L45.205 23.8469Z" fill="#5784F7"/>
</g>
<defs>
<clipPath id="clip0_2_795">
<rect width="55" height="69" fill="white"/>
</clipPath>
</defs>
</svg>
