<svg width="80" height="68" viewBox="0 0 80 68" fill="none" xmlns="http://www.w3.org/2000/svg">
<g clip-path="url(#clip0_2_847)">
<path d="M0 33.8416C0.258819 32.1993 0.440409 30.5402 0.786892 28.9167C3.45231 16.3876 13.8885 6.42042 26.5143 4.35911C28.1778 4.08679 29.8727 3.99881 31.5592 3.89616C32.7573 3.82284 33.1455 4.24809 33.1455 5.46099C33.1476 14.9966 33.158 24.5343 33.1267 34.07C33.1246 34.8241 33.3605 35.0734 34.0576 35.264C43.1601 37.7506 52.2521 40.2706 61.3463 42.7823C62.7844 43.1803 63.0536 43.6244 62.5819 45.0531C58.5118 57.3832 50.1419 65.0733 37.4536 67.4593C19.7996 70.7817 2.91797 58.3929 0.338134 40.6163C0.223335 39.8223 0.112711 39.0263 0 38.2324C0 36.7681 0 35.3059 0 33.8416ZM10.3152 15.8764C-2.31893 29.1576 0.726363 51.501 16.1845 60.8544C16.2555 60.7496 16.3327 60.6449 16.3974 60.5338C20.9768 52.5777 25.5479 44.6174 30.1461 36.6717C30.4592 36.1313 30.2192 35.8946 29.8915 35.5678C24.0701 29.7337 18.2509 23.8954 12.4358 18.0572C11.7199 17.3386 11.0228 16.6033 10.3152 15.8764ZM18.2321 62.2076C27.0257 66.4831 35.8568 66.8225 44.6713 62.6224C52.2751 59.0004 57.3346 53.0239 60.0751 44.9924C59.7767 44.8981 59.6055 44.8373 59.4323 44.7892C50.7118 42.3822 41.9891 39.9836 33.277 37.5516C32.6696 37.3819 32.4149 37.5222 32.1186 38.0397C29.1067 43.3165 26.0676 48.5787 23.0369 53.8451C21.4506 56.6019 19.8685 59.3587 18.23 62.2055L18.2321 62.2076ZM12.1707 13.9597C18.4262 20.2379 24.6086 26.4448 30.6867 32.5428V6.33244C23.4878 6.69903 17.3137 9.31756 12.1707 13.9618V13.9597Z" fill="#14317A"/>
<path d="M54.066 4.86623C54.066 4.07858 54.0535 3.42709 54.0702 2.7756C54.0931 1.87483 54.5315 1.4014 55.4123 1.39721C59.3175 1.38464 63.2228 1.38464 67.128 1.39721C68.0172 1.3993 68.4409 1.86226 68.4534 2.77769C68.468 3.87329 68.4576 4.96888 68.4576 6.16083C68.7707 6.17759 69.0441 6.20273 69.3175 6.20273C71.6093 6.20692 73.899 6.19854 76.1908 6.20692C78.134 6.2132 79.4949 7.24595 79.9082 9.01188C80.2902 10.6437 79.4845 12.2086 77.869 13.0947C77.6248 13.2288 77.4056 13.5639 77.3367 13.8467C76.3891 17.697 75.4645 21.5515 74.5461 25.4081C73.8114 28.5 72.4296 29.759 69.2841 30.1717C69.209 30.1821 69.138 30.2157 68.9272 30.2827C68.9272 31.6779 69.0441 33.1191 68.898 34.5352C68.7039 36.4226 68.3428 38.2975 67.9796 40.164C67.75 41.3413 67.199 41.6345 66.0698 41.3224C59.9562 39.6361 53.8448 37.9414 47.7333 36.2529C44.2267 35.283 40.716 34.3194 37.2073 33.3558C36.1261 33.0583 35.9049 32.786 35.9028 31.6527C35.9028 21.6458 35.9007 11.6388 35.9028 1.63183C35.9028 0.374934 36.2973 -0.0230826 37.5308 -3.95501e-05C43.1873 0.104702 48.4659 1.56479 53.348 4.44727C53.5442 4.56248 53.7425 4.6756 54.0681 4.86414L54.066 4.86623ZM38.3198 2.46557V31.1437C47.4807 33.67 56.6375 36.1964 65.8443 38.7353C66.5331 35.8843 66.7272 33.0751 66.529 30.1675C66.147 30.1675 65.8381 30.1675 65.5292 30.1675C61.5217 30.1675 57.5121 30.1821 53.5045 30.1633C50.6868 30.1507 48.7707 28.6278 48.109 25.892C47.1572 21.9642 46.2221 18.0322 45.2933 14.1002C45.1681 13.5744 44.9802 13.2057 44.4354 12.9355C42.9431 12.1939 42.2647 10.5348 42.6676 8.89457C43.0474 7.35488 44.3979 6.24881 46.0134 6.21739C47.5475 6.18806 49.0837 6.21111 50.62 6.20482C50.8036 6.20482 50.9873 6.1713 51.3735 6.1336C47.1948 3.85653 42.9431 2.66248 38.3198 2.46557ZM47.6644 13.4739C47.6874 13.6435 47.6936 13.7734 47.7229 13.897C48.6287 17.6761 49.5283 21.4551 50.4467 25.2321C50.8746 26.998 51.8139 27.7249 53.6131 27.727C58.6642 27.727 63.7133 27.727 68.7644 27.727C70.7911 27.727 71.6865 27.0106 72.1645 25.0121C72.6759 22.8817 73.1914 20.7534 73.6987 18.6229C74.1036 16.9282 74.5022 15.2293 74.9176 13.4739H47.6623H47.6644ZM61.2545 10.9705C66.0948 10.9705 70.9372 10.9705 75.7775 10.9705C76.0113 10.9705 76.2472 10.981 76.4789 10.9601C77.1134 10.9056 77.4891 10.5516 77.535 9.91685C77.583 9.25698 77.2637 8.80869 76.6187 8.65157C76.3703 8.59082 76.1011 8.61387 75.8423 8.61177C66.1345 8.61177 56.4267 8.61177 46.7168 8.61177C46.4309 8.61177 46.1324 8.58873 45.8631 8.66414C45.2683 8.82754 44.9343 9.24022 44.9927 9.88123C45.0491 10.5034 45.3893 10.8888 46.0259 10.958C46.2576 10.9831 46.4935 10.9705 46.7272 10.9705C51.5676 10.9705 56.41 10.9705 61.2503 10.9705H61.2545ZM56.5519 6.20692C59.6223 6.20692 62.6112 6.2132 65.598 6.19016C65.7504 6.19016 66.0218 5.96182 66.0322 5.82356C66.0781 5.18674 66.0531 4.54363 66.0531 3.88795H56.5498V6.20692H56.5519Z" fill="#5784F7"/>
<path d="M52.3315 16.3354C52.2981 15.4179 52.6842 14.9109 53.3772 14.8355C54.0868 14.7601 54.5836 15.1414 54.7026 15.9479C55.1179 18.7822 55.5145 21.6207 55.9007 24.4612C56.0008 25.207 55.5542 25.7894 54.8842 25.8836C54.1432 25.9863 53.6026 25.5443 53.4753 24.6623C53.1893 22.6764 52.9263 20.6885 52.655 18.7005C52.5423 17.8751 52.4275 17.0498 52.3315 16.3354Z" fill="#14317A"/>
<path d="M62.488 20.2757C62.488 21.6039 62.4964 22.9341 62.486 24.2622C62.4776 25.1671 62.0393 25.6846 61.2983 25.6992C60.5469 25.7139 60.0627 25.2132 60.0564 24.3145C60.0397 21.6039 60.0376 18.8932 60.0564 16.1845C60.0627 15.2942 60.5636 14.802 61.3213 14.8292C62.033 14.8543 62.4734 15.3592 62.4839 16.2097C62.4985 17.565 62.488 18.9204 62.488 20.2757Z" fill="#14317A"/>
<path d="M66.6458 24.4631C67.034 21.6393 67.4202 18.7463 67.8397 15.8597C67.9462 15.1181 68.5494 14.7306 69.2528 14.85C69.9061 14.961 70.311 15.491 70.2129 16.2263C69.8351 19.0941 69.4448 21.9598 69.0336 24.8213C68.9272 25.5713 68.3448 25.9798 67.6498 25.8813C66.9965 25.787 66.5999 25.2591 66.6458 24.4631Z" fill="#14317A"/>
</g>
<defs>
<clipPath id="clip0_2_847">
<rect width="80" height="68" fill="white"/>
</clipPath>
</defs>
</svg>
