<svg width="49" height="68" viewBox="0 0 49 68" fill="none" xmlns="http://www.w3.org/2000/svg">
<g clip-path="url(#clip0_2_820)">
<path d="M45.8188 0C46.0383 0.085153 46.2562 0.173854 46.4775 0.255459C47.9566 0.79831 48.9368 2.15898 48.986 3.73786C48.9913 3.91526 48.9913 4.09267 48.9913 4.26829C48.9913 22.4414 48.986 40.6144 49.0001 58.7857C49.0001 60.1304 48.6294 61.2729 47.6 62.1404C47.3049 62.3888 46.943 62.5821 46.5812 62.7205C46.0823 62.9103 45.6694 62.717 45.427 62.2415C45.167 61.7324 45.2724 61.2197 45.7643 60.9784C46.8218 60.4586 47.0308 59.6071 47.0291 58.5196C47.0098 43.3358 47.0168 28.1502 47.0168 12.9663V12.129H2.00088C2.00088 12.9237 2.00966 13.7327 1.99561 14.5399C1.99209 14.8007 2.02371 15.1519 1.87615 15.3009C1.61266 15.5706 1.20687 15.9023 0.899457 15.8668C0.590286 15.8314 0.288143 15.4074 0.0615346 15.0951C-0.045621 14.9479 0.0281583 14.6658 0.0281583 14.4441C0.0281583 11.2118 0.100181 7.97777 0.00356517 4.74905C-0.0667008 2.41622 0.765951 0.651066 3.33242 0C17.4945 0 31.6566 0 45.8188 0ZM47.0186 10.0676C47.0186 8.02567 47.0256 6.03877 47.0168 4.05364C47.0098 2.74086 46.2808 2.01351 44.9615 2.01174C31.3106 2.00819 17.6579 2.00819 4.00697 2.01174C2.7457 2.01174 2.01142 2.7586 2.00439 4.0359C1.99385 5.89507 2.00088 7.75247 2.00439 9.61165C2.00439 9.75712 2.03601 9.90436 2.05533 10.0676H47.0203H47.0186Z" fill="#14317A"/>
<path d="M0.0280839 39.238C0.0280839 32.6422 0.0280839 26.0464 0.0280839 19.4506C0.0280839 19.2288 0.0140307 19.0053 0.0438937 18.7871C0.11416 18.2868 0.421573 17.987 0.911679 17.9391C1.4053 17.8894 1.77771 18.1254 1.91648 18.6097C1.99905 18.8989 1.99729 19.22 1.99729 19.5269C2.0008 32.5854 1.99553 45.6458 2.01837 58.7043C2.01837 59.2472 2.17295 59.8486 2.43469 60.3205C2.77197 60.929 3.44828 61.0248 4.1123 61.023C6.23784 61.0177 8.36515 61.023 10.4907 61.023C16.5406 61.023 22.5905 61.023 28.6422 61.0248C28.9039 61.0248 29.1727 61.0212 29.4256 61.078C29.9157 61.188 30.1722 61.5286 30.1669 62.0342C30.1599 62.538 29.8929 62.8644 29.4028 62.9726C29.2131 63.0152 29.0111 63.0135 28.8143 63.0135C20.5721 63.0152 12.3299 63.0205 4.0877 63.0117C2.02715 63.0099 0.548052 61.8834 0.128213 60.0171C0.0368671 59.6126 0.0351105 59.1833 0.0351105 58.7647C0.0298405 52.2576 0.0315972 45.7505 0.0315972 39.2433L0.0280839 39.238Z" fill="#14317A"/>
<path d="M24.5053 42.6581C20.1453 42.6581 15.7853 42.6581 11.4235 42.6581C9.58257 42.6581 8.80437 41.8616 8.80086 39.9829C8.80086 39.2963 8.78505 38.6116 8.80613 37.925C8.84653 36.5644 9.69148 35.7093 11.0371 35.6436C11.1688 35.6365 11.3006 35.6401 11.4306 35.6401C20.1506 35.6401 28.8723 35.6436 37.5924 35.6348C38.4953 35.6348 39.291 35.8175 39.8338 36.6158C40.3942 37.4389 40.396 40.8912 39.8303 41.7001C39.3332 42.4115 38.6323 42.6652 37.7821 42.6634C33.3553 42.651 28.9303 42.6581 24.5036 42.6581H24.5053ZM24.5176 40.6659C28.853 40.6659 33.1902 40.6552 37.5256 40.6801C38.1158 40.6836 38.3038 40.5009 38.2546 39.9261C38.2125 39.4436 38.2037 38.9486 38.2546 38.4679C38.3284 37.7849 38.0684 37.6128 37.4079 37.6163C30.8591 37.6394 24.3121 37.6305 17.7633 37.6305C15.7045 37.6305 13.6457 37.6589 11.5869 37.6146C10.8983 37.5986 10.6945 37.831 10.7595 38.4856C10.807 38.9664 10.8052 39.4613 10.7595 39.9439C10.7016 40.5453 10.9405 40.6819 11.5061 40.6783C15.8415 40.6552 20.1787 40.6659 24.5141 40.6659H24.5176Z" fill="#5784F7"/>
<path d="M24.4402 31.3879C20.1013 31.3879 15.7642 31.3879 11.4252 31.3879C9.58426 31.3879 8.8043 30.5879 8.80079 28.7127C8.80079 28.0492 8.79025 27.3857 8.8043 26.7223C8.83592 25.2747 9.67736 24.4178 11.102 24.3859C11.8468 24.3681 12.5916 24.3823 13.3365 24.3823C21.4206 24.3823 29.5064 24.3859 37.5905 24.377C38.4144 24.377 39.161 24.503 39.7161 25.186C40.4521 26.0943 40.4504 29.6902 39.7126 30.5896C39.1926 31.223 38.5022 31.3968 37.717 31.395C33.949 31.3844 30.1792 31.3897 26.4112 31.3897C25.7542 31.3897 25.0972 31.3897 24.4385 31.3897L24.4402 31.3879ZM24.442 29.3957C28.7827 29.3957 33.1216 29.3815 37.4623 29.4099C38.1123 29.4135 38.3195 29.2077 38.2545 28.5814C38.2106 28.1663 38.2475 27.7405 38.2458 27.3201C38.2458 26.6874 37.9407 26.3704 37.3305 26.3692C29.199 26.3692 21.0657 26.3692 12.9342 26.3692C12.43 26.3692 11.9241 26.4012 11.4217 26.3604C10.8824 26.316 10.7261 26.5449 10.7612 27.054C10.7946 27.5383 10.7682 28.0279 10.7682 28.514C10.7682 29.0994 11.0511 29.3928 11.6167 29.3939C15.8906 29.3939 20.1646 29.3939 24.4402 29.3939L24.442 29.3957Z" fill="#5784F7"/>
<path d="M42.4934 60.7054C43.1047 61.7787 43.6862 62.7881 44.2571 63.8064C44.9264 65.0021 44.6945 65.9015 43.5333 66.6022C42.9132 66.9766 42.2879 67.3438 41.6555 67.695C40.6138 68.2734 39.6845 68.0232 39.0767 66.9943C38.4601 65.9512 37.8664 64.8956 37.2252 63.7798C36.4663 64.2197 35.7356 64.6455 35.0013 65.0659C33.5134 65.9192 32.2346 65.199 32.231 63.4853C32.2205 59.6782 32.2205 55.873 32.231 52.0659C32.2363 50.3895 33.5204 49.6426 34.9574 50.4746C38.223 52.3675 41.4851 54.2675 44.7402 56.1763C46.1964 57.0296 46.1806 58.5287 44.7208 59.3979C44.0059 59.8237 43.2857 60.2406 42.4952 60.7036L42.4934 60.7054ZM42.5795 64.8513C41.9928 63.8241 41.4218 62.8342 40.8597 61.8408C40.1272 60.5457 40.3643 59.6552 41.6362 58.9012C42.244 58.5411 42.8518 58.1792 43.5386 57.7729C40.3837 55.935 37.3464 54.1663 34.2284 52.3497V63.2103C34.8994 62.8218 35.5002 62.4741 36.1009 62.1264C37.3622 61.399 38.2792 61.6456 39.01 62.914C39.5809 63.9039 40.15 64.8974 40.7403 65.9263C41.3656 65.5591 41.9471 65.2185 42.5795 64.8495V64.8513Z" fill="#14317A"/>
<path d="M24.5457 47.6539C25.3555 47.6539 26.1671 47.6273 26.9769 47.6593C28.8301 47.7302 30.1915 49.2382 30.1757 51.1701C30.1617 53.0363 28.7511 54.5478 26.9365 54.5833C25.3168 54.6152 23.6955 54.6152 22.0758 54.5833C20.2665 54.5478 18.8559 53.0292 18.8436 51.163C18.8313 49.2364 20.198 47.7285 22.0495 47.6593C22.8804 47.6291 23.713 47.6539 24.5457 47.6539ZM24.4737 52.5981C25.2185 52.5981 25.9615 52.6088 26.7064 52.5964C27.6251 52.5804 28.2013 52.0021 28.203 51.1186C28.203 50.2281 27.6444 49.655 26.7116 49.6444C25.2448 49.6284 23.7798 49.6284 22.313 49.6444C21.3767 49.6533 20.8181 50.221 20.8181 51.1151C20.8181 52.0003 21.3925 52.5822 22.3095 52.5981C23.0314 52.6106 23.7534 52.5999 24.4754 52.5999L24.4737 52.5981Z" fill="#5784F7"/>
<path d="M24.5421 15.9341C27.5864 15.9341 30.6289 15.9306 33.6732 15.9359C34.3934 15.9359 34.8484 16.3138 34.8361 16.9081C34.8238 17.4687 34.5129 17.8111 33.9683 17.9086C33.7768 17.9441 33.5748 17.9246 33.3781 17.9246C27.4652 17.9246 21.554 17.9246 15.6412 17.9246C15.4883 17.9246 15.3337 17.9335 15.1809 17.921C14.5749 17.8731 14.1691 17.4598 14.1779 16.9081C14.1867 16.3546 14.5942 15.9501 15.2125 15.9395C16.3509 15.9217 17.4892 15.9324 18.6292 15.9324C20.6002 15.9324 22.5711 15.9324 24.5421 15.9324V15.9341Z" fill="#5784F7"/>
<path d="M7.24792 3.02296C8.91674 3.01764 10.2746 4.36412 10.2869 6.03525C10.2975 7.69751 8.93958 9.0777 7.2813 9.08834C5.616 9.09899 4.25986 7.74718 4.25284 6.06896C4.24581 4.38364 5.57735 3.03006 7.24792 3.02474V3.02296ZM8.3107 6.04235C8.30543 5.46757 7.82411 5.00632 7.23914 5.01696C6.65418 5.02938 6.20447 5.50659 6.22731 6.09202C6.25015 6.64729 6.70161 7.08547 7.25495 7.08902C7.82938 7.09257 8.31597 6.61004 8.3107 6.04235Z" fill="#5784F7"/>
<path d="M15.1406 3.02298C16.8077 3.01588 18.1673 4.36414 18.1796 6.03526C18.1902 7.69752 16.8323 9.07771 15.174 9.08835C13.5087 9.099 12.1526 7.74542 12.1455 6.06897C12.1385 4.38365 13.47 3.03007 15.1424 3.02475L15.1406 3.02298ZM16.2016 6.07252C16.2157 5.49951 15.7432 5.02052 15.1617 5.01698C14.5996 5.01343 14.1499 5.43565 14.12 5.99446C14.0901 6.57457 14.5416 7.06952 15.1178 7.08903C15.6922 7.10855 16.1876 6.64375 16.2016 6.07252Z" fill="#5784F7"/>
<path d="M20.0381 6.0443C20.0416 4.3643 21.3854 3.0196 23.0578 3.02492C24.7248 3.02847 26.0775 4.39091 26.0722 6.06027C26.0669 7.72607 24.6985 9.09384 23.042 9.08852C21.3749 9.0832 20.0346 7.7243 20.0381 6.0443ZM24.096 6.07801C24.1118 5.50323 23.6427 5.02424 23.0595 5.01892C22.4956 5.0136 22.0459 5.43404 22.0143 5.99286C21.9827 6.57296 22.4324 7.06969 23.0086 7.09097C23.583 7.11226 24.0801 6.64924 24.096 6.07801Z" fill="#5784F7"/>
</g>
<defs>
<clipPath id="clip0_2_820">
<rect width="49" height="68" fill="white"/>
</clipPath>
</defs>
</svg>
