<svg width="36" height="36" viewBox="0 0 36 36" fill="none" xmlns="http://www.w3.org/2000/svg">
<circle cx="18" cy="18" r="17.2" fill="#5784F7" stroke="white" stroke-width="1.6"/>
<path d="M17.5769 10.0312H14.4611C11.8986 10.0312 10.2919 11.8454 10.2919 14.4137V21.3421C10.2919 23.9104 11.8911 25.7246 14.4611 25.7246H21.8144C24.3852 25.7246 25.9844 23.9104 25.9844 21.3421V17.9854" stroke="white" stroke-width="1.5" stroke-linecap="round" stroke-linejoin="round"/>
<path fill-rule="evenodd" clip-rule="evenodd" d="M15.3565 16.8078L21.584 10.5803C22.3598 9.80527 23.6173 9.80527 24.3932 10.5803L25.4073 11.5944C26.1832 12.3703 26.1832 13.6286 25.4073 14.4036L19.1498 20.6611C18.8107 21.0003 18.3507 21.1911 17.8707 21.1911H14.749L14.8273 18.0411C14.839 17.5778 15.0282 17.1361 15.3565 16.8078Z" stroke="white" stroke-width="1.5" stroke-linecap="round" stroke-linejoin="round"/>
<path d="M20.6377 11.542L24.4427 15.347" stroke="white" stroke-width="1.5" stroke-linecap="round" stroke-linejoin="round"/>
</svg>
