<svg xmlns="http://www.w3.org/2000/svg" width="108.844" height="110.314" viewBox="0 0 108.844 110.314">
    <defs>
        <style>
            .cls-1{fill:#e8e9ef}
        </style>
    </defs>
    <g id="Group_6034" transform="translate(-880 -2528)">
        <g id="Group_6033" transform="translate(822.917 3213.946)">
            <path id="Path_5256" d="M100.513-633.808H62.369c-3.237 0-5.277-2-5.279-5.211q-.012-20.906 0-41.812a4.849 4.849 0 0 1 5.118-5.1q27.556-.016 55.112 0c2.952 0 4.927 2.142 4.929 5.293 0 12.806.022 25.612-.03 38.418-.005 1.284.267 1.65 1.607 1.643 12.171-.058 24.343-.037 36.515-.027a2.8 2.8 0 0 1 1.839.265c-.639.612-1.447.421-2.192.422q-17.155.02-34.31.009h-.949c-2.046.008-2.065.021-2.067 2.017-.005 4.792.007 9.584-.011 14.376 0 .656.218 1.543-.466 1.858-.715.329-1.19-.464-1.636-.927-3.233-3.353-6.822-6.338-10.012-9.732a3.3 3.3 0 0 0-2.653-1.087c-1.852.042-3.706.018-5.56.008a2.567 2.567 0 0 1-1.811-.413z" class="cls-1"/>
            <path id="Path_5257" fill="#0477ec" d="M216.974-511.6c2.621 0 5.242.031 7.862-.022a2.711 2.711 0 0 1 2.139.877c3.591 3.562 7.221 7.084 10.844 10.613.213.208.368.521.766.532a2.266 2.266 0 0 0 .114-1.288c.012-5.287.042-10.575-.018-15.862-.013-1.158.362-1.42 1.461-1.417q19.248.055 38.5.027c2.511.738 3.742 2.45 3.743 5.265q.009 18.053 0 36.106c0 1.764.008 3.529 0 5.294-.019 3.488-2 5.485-5.461 5.486q-23.005.007-46.01-.02a2.842 2.842 0 0 0-2.248.912c-3.487 3.551-7.021 7.054-10.541 10.573-.305.305-.624.6-1.149 1.1z" transform="translate(-116.461 -122.209)"/>
            <path id="Path_5258" fill="#bedbfc" d="M156.473-624.884c.079 2.719.2 5.447-1.378 7.875a.508.508 0 0 0 .109.715c.193.191.382.386.573.579 2.41 2.428 2.372 2.728-.4 4.854-.452.347-.744.278-1.006-.1-1.462-2.117-3.03-2.35-5.57-1.376-4.256 1.632-9.566-1.606-11.292-6.309a8.27 8.27 0 0 1-.593-3.312c.142-2.7-.326-5.438.261-8.114 1.051-4.789 5.85-8.386 10.432-7.906 4.766.5 8.859 5.17 8.859 10.11z" transform="translate(-58.12 -34.907)"/>
            <path id="Path_5259" fill="#fefefe" d="M319.768-440.193a2.138 2.138 0 0 1-.382.095c-1.31-.006-2.813.378-3.875-.141-1.042-.508-.984-2.194-1.4-3.362-.21-.585-.458-.861-1.131-.848q-3.39.065-6.781 0a1 1 0 0 0-1.132.844c-.376 1.151-.389 2.887-1.287 3.29-1.195.536-2.811.132-4.4.132.824-2.489 1.633-4.954 2.455-7.415 1.755-5.261 3.548-10.509 5.246-15.788.316-.984.706-1.354 1.763-1.329 2.809.066 2.816.012 3.68 2.608q3.481 10.46 6.952 20.923c.089.296.172.597.292.991z" transform="translate(-176.479 -161.14)"/>
            <path id="Path_5260" d="M163.432-608.2a2.389 2.389 0 0 1-.271-.122c-.79-.6-1.324-1.912-2.2-1.867-1.006.051-1.555 1.381-2.392 2.053-.7.561-.544 1.022.069 1.5.565.445 1.116.908 1.748 1.426a5.129 5.129 0 0 1-7.454-4.276c-.12-2.525-.1-5.064 0-7.59a5.129 5.129 0 0 1 5.036-4.9c3-.127 5.442 1.582 5.7 4.433.252 2.823.059 5.686.04 8.531a2.9 2.9 0 0 1-.276.812z" class="cls-1" transform="translate(-69.756 -46.595)"/>
            <path id="Path_5261" fill="#0679ec" d="M332.37-427.268h-5.5l2.581-7.781.285-.06z" transform="translate(-196.508 -182.706)"/>
        </g>
    </g>
</svg>
