<svg xmlns="http://www.w3.org/2000/svg" width="110.811" height="87.823" viewBox="0 0 110.811 87.823">
    <defs>
        <style>
            .cls-1{fill:#166ffe}.cls-2{fill:#bedbfc}.cls-3{fill:#e8e9ef}
        </style>
    </defs>
    <g id="Group_6030" transform="translate(-341 -2871)">
        <g id="Group_6029" transform="translate(289.002 2773.022)">
            <path id="Path_5243" d="M207.576 267.337q-12.769 5.2-25.533 10.41a1.944 1.944 0 0 1-1.6 0q-12.758-5.221-25.529-10.41a3.9 3.9 0 0 1-.38-2.028c-.083-4.233.289-8.444.521-12.665a96.211 96.211 0 0 1 2.878-18.431 13.344 13.344 0 0 1 3.862-7.128c.983-.855 2.081-1.636 3.515-.895a54.162 54.162 0 0 0 7.528-.26 1.858 1.858 0 0 1 2.286 1.522c1.769 5.141 3.68 10.233 5.535 15.344a.826.826 0 0 0 .494.645l3.148-8.08c1.059-2.73 2.169-5.442 3.138-8.2a1.574 1.574 0 0 1 1.949-1.207c2.5.217 5.008.331 7.513.487 1.727-.8 3.081-.049 4.267 1.116a12.451 12.451 0 0 1 2.87 5.355 79.2 79.2 0 0 1 3 16.149 125.244 125.244 0 0 1 .907 16.267 3.179 3.179 0 0 1-.369 2.009z" class="cls-1" transform="translate(-73.835 -92.118)"/>
            <path id="Path_5244" d="M316.634 255.678a149.053 149.053 0 0 0-2.318-27.863 34.986 34.986 0 0 0-2.688-9.193c-1.156-2.412-2.745-4.084-5.666-3.847a6.265 6.265 0 0 1 4.658-3.6 38.454 38.454 0 0 0 3.987-1.243c1.019-.36 1.585-.312 1.786.986a7.182 7.182 0 0 0 14.175.634c.079-.407.194-.809.256-1.219.095-.623.418-.736.985-.56 2.17.676 4.4 1.205 6.506 2.033a5.1 5.1 0 0 1 2.687 2.9 55.247 55.247 0 0 1 3.323 13.024c.678 4.31.639 8.68 1.314 12.985a20.3 20.3 0 0 1 .04 2.513c.019.631-.371.914-.873 1.117q-13.949 5.642-27.9 11.279a1.351 1.351 0 0 1-.272.054z" class="cls-2" transform="translate(-182.893 -80.459)"/>
            <path id="Path_5245" d="M91.478 214.18c-2.475-.071-3.909 1.419-5.046 3.36-2.043 3.487-2.6 7.411-3.356 11.283a126.936 126.936 0 0 0-1.751 16.463c-.208 3.351-.192 6.694-.243 10.042q-12.2-4.933-24.39-9.867c-1.2-.488-2.387-1.033-3.6-1.49A1.515 1.515 0 0 1 52 242.293c.037-4.038.521-8.041.817-12.06a63.328 63.328 0 0 1 3.483-15.812 5.035 5.035 0 0 1 3.44-3.387c1.821-.536 3.661-1.021 5.442-1.67 1.069-.39 1.4.028 1.652.938 1.2 4.284 2.435 8.559 3.645 12.841a1.367 1.367 0 0 0 .471.908c.777-3.54 1.558-7.035 2.3-10.538.127-.6.048-1.3.935-1.249.913.05.879.895 1.007 1.465.726 3.246 1.387 6.506 2.141 10.1a46.794 46.794 0 0 0 1.8-5.912c.763-2.528 1.436-5.083 2.122-7.633.228-.847.514-1.272 1.551-.921 2.016.684 4.155 1.043 6.112 1.855a4.342 4.342 0 0 1 2.56 2.962z" class="cls-3" transform="translate(0 -80.11)"/>
            <path id="Path_5246" d="M229.489 111.6a21.83 21.83 0 0 1-5.852 14.157c-4.169 4.279-9.745 4.13-13.732-.3a22.1 22.1 0 0 1-5.334-12.642 13.517 13.517 0 0 1 1.353-8.388 12.592 12.592 0 0 1 14.2-6.033c5.609 1.455 9.382 6.385 9.365 13.206z" class="cls-1" transform="translate(-109.775)"/>
            <path id="Path_5247" d="M108.931 144.448c-3.032-.058-4.737-2.065-6.2-4.34a15.061 15.061 0 0 1-2.414-8.325c.034-4.433 2.574-8.052 7.484-8.849a8.683 8.683 0 0 1 9.831 7.056c.923 4.537-1.754 11.35-5.4 13.535a5.128 5.128 0 0 1-3.301.923z" class="cls-3" transform="translate(-34.796 -17.892)"/>
            <path id="Path_5248" d="M344.781 123.027c5.665.013 9.093 2.923 9.62 7.748a13.493 13.493 0 0 1-5.115 12.681c-2.4 1.9-5.389 1.522-7.616-.576a14.966 14.966 0 0 1-4.349-8.661 9.5 9.5 0 0 1 1.419-7.416 8.262 8.262 0 0 1 6.041-3.776z" class="cls-2" transform="translate(-205.329 -18.04)"/>
        </g>
    </g>
</svg>
