<svg xmlns="http://www.w3.org/2000/svg" width="109.664" height="108.473" viewBox="0 0 109.664 108.473">
    <defs>
        <style>
            .cls-3{fill:#166ffe}.cls-4{fill:#fdfdfd}
        </style>
    </defs>
    <g id="Group_6024" transform="translate(-1135 -2518)">
        <path id="Path_3115" fill="#e8e9ef" d="M620.934 266.918q-25.1.017-50.191.021a4.6 4.6 0 0 1-4.639-4.648q-.016-32.245.015-64.489c.822-.659 1.8-.451 2.722-.451q28.036-.019 56.072-.009 20.525 0 41.05.008a3.676 3.676 0 0 1 2.573.453q.014 20.956.031 41.911c0 .674-.157 1.411.586 1.856-1.27.794-2.621.215-3.891.1-3.945-.347-7.895-.658-11.834-1.083-1.674-.18-1.965-.411-1.983-2.106-.044-4.262-.01-8.525-.017-12.788a11.156 11.156 0 0 0-.154-2.369 4.357 4.357 0 0 0-4.338-3.551 4.308 4.308 0 0 0-4.089 3.985 19.3 19.3 0 0 0-.048 2.08c0 2.379.013 4.759-.01 7.137a2.434 2.434 0 0 1-.5 1.954 4.864 4.864 0 0 1-2.477.313c-8.676.01-17.352 0-26.027.013-1.761 0-1.919.182-1.935 1.825-.017 1.77.144 1.962 1.94 1.965 8.676.015 17.351 0 26.027.013a4.8 4.8 0 0 1 2.476.319 2.231 2.231 0 0 1 .5 1.8c.021 4.807.03 9.615 0 14.422-.012 1.906-.354 2.238-2.291 2.256-3.915.037-7.831-.005-11.746.017-4.708.026-7.255 2.519-7.4 7.2a2.652 2.652 0 0 1-.422 1.846z" transform="translate(568.908 2339.235)"/>
        <path id="Path_3116" fill="#bedbfc" d="M668.516 154.09l-46 .032q-27.466.008-54.931 0c-.5 0-.992-.022-1.488-.033-.01-4.762-.041-9.525-.021-14.287a4.7 4.7 0 0 1 4.862-4.743q29.618-.014 59.236-.007 16.521 0 33.041.005c3.432 0 5.321 1.891 5.321 5.341q.001 6.846-.02 13.692z" transform="translate(568.929 2382.948)"/>
        <path id="Path_3117" d="M771.37 286.551c.016-3.466.026-6.933.05-10.4.021-2.954 1.944-5.042 4.66-5.083a4.808 4.808 0 0 1 4.861 5.069c.028 4.8.009 9.609.015 14.414 0 .622-.169 1.267.862 1.351 5.471.447 10.937.953 16.4 1.439q6.544.593 6.556 7.229c0 3.425-.1 6.853.024 10.274a26.94 26.94 0 0 1-2.371 12.6 26.5 26.5 0 0 0-2.4 13.986c.107 1.194-.2 1.6-1.5 1.582-7-.073-14-.065-21-.013-1.112.008-1.4-.268-1.395-1.387.021-2.973.355-5.977-.162-8.916-.819-4.656-3.658-7.543-8.229-8.772a48.563 48.563 0 0 0-13.731-1.209c-1.339.027-2.68-.013-4.02-.022a16.184 16.184 0 0 1 .156-3.992 6.9 6.9 0 0 1 6.834-5.509c4.409-.039 8.818-.015 13.227 0 .675 0 1.226.073 1.215-.944-.058-5.646-.051-11.294-.066-16.94a6.1 6.1 0 0 1 .014-4.757z" class="cls-3" transform="translate(439.839 2287.463)"/>
        <path id="Path_3118" d="M736.873 247.724c-5.8 0-11.606-.027-17.408.023-1.142.01-1.541-.27-1.525-1.484.043-3.309-.017-3.3 3.243-3.3 11.06 0 22.12.016 33.18-.037 1.334-.007 1.794.305 1.754 1.713-.088 3.086-.008 3.08-3.174 3.076q-8.035-.011-16.069 0z" class="cls-4" transform="translate(462.316 2307.218)"/>
        <path id="Path_3119" d="M644.306 330.132c0 1.983-.033 3.966.016 5.948.022.894-.267 1.218-1.187 1.209-3.965-.039-7.931-.033-11.9 0-.844.006-1.258-.177-1.247-1.144.043-4.014.033-8.03.007-12.044-.006-.824.269-1.139 1.113-1.133q6.1.043 12.193 0c.8-.005 1.021.336 1.011 1.071-.024 2.028-.007 4.061-.006 6.093z" class="cls-4" transform="translate(524.056 2251.032)"/>
        <path id="Path_3120" d="M748.9 323.023v4.749c-9.82 0-19.641-.014-29.461.036-1.2.006-1.5-.37-1.487-1.521.032-3.275-.018-3.267 3.273-3.265q13.84.008 27.675.001z" class="cls-4" transform="translate(462.306 2250.99)"/>
        <path id="Path_3121" d="M728.669 279.716c-3.122 0-6.244-.033-9.366.019-1 .017-1.383-.232-1.387-1.313-.013-3.465-.058-3.464 3.4-3.464 5.55 0 11.1.026 16.65-.021 1.083-.01 1.464.261 1.45 1.405-.042 3.356.008 3.363-3.314 3.377-2.478.011-4.955 0-7.433 0z" class="cls-4" transform="translate(462.333 2284.747)"/>
        <path id="Path_3122" d="M728.559 359.677c-3.122 0-6.244-.031-9.365.019-.963.015-1.273-.278-1.287-1.26-.049-3.519-.085-3.517 3.492-3.516 5.5 0 11 .033 16.5-.025 1.178-.012 1.525.326 1.5 1.506-.067 3.259-.015 3.267-3.26 3.28-2.527.01-5.054 0-7.582 0z" class="cls-4" transform="translate(462.347 2228.616)"/>
        <path id="Path_3123" d="M630.263 254.059a6.645 6.645 0 0 1-.625-.5 76.077 76.077 0 0 1-5.521-5.612c-1.388-1.706 1.1-1.917 1.6-2.946.285-.588.875-1.432 1.824-.411.865.932 1.7 2.5 2.8 2.466 1.266-.041 2.032-1.705 3.034-2.642q1.737-1.623 3.361-3.366c.588-.633.965-.547 1.566.013 2.728 2.538 2.746 2.519.138 5.127q-3.575 3.574-7.152 7.145c-.28.267-.497.634-1.025.726z" class="cls-3" transform="translate(528.473 2308.847)"/>
        <path id="Path_3124" d="M600.359 163.8c-2.3 0-2.319 0-2.293-2.726.023-2.434-.376-2.024 2.832-2.029 2.306 0 1.907-.347 1.92 2.789.01 2.311.254 1.923-2.459 1.966z" class="cls-3" transform="translate(546.472 2366.124)"/>
        <path id="Path_3125" d="M632.493 159.039c2.674.061 2.295-.439 2.287 2.73-.006 2.413.452 2.026-2.978 2.026-2.134 0-1.75.4-1.773-3.09-.012-1.975-.15-1.639 2.464-1.666z" class="cls-3" transform="translate(524.039 2366.113)"/>
        <path id="Path_3126" d="M664.331 163.827c-2.437-.033-2.292.331-2.3-1.837-.005-2.93 0-2.95 2.991-2.924 2.149.019 1.747-.322 1.768 2.949.017 2.176.176 1.776-2.459 1.812z" class="cls-3" transform="translate(501.562 2366.092)"/>
        <path id="Path_3127" fill="#d8dbdf" d="M648.486 338.956c2.793.081 2.157-.436 2.334 3.187.067 1.365-.419 1.662-1.686 1.627-3.132-.087-3.156-.03-3.122-2.541.035-2.585-.348-2.221 2.474-2.273z" transform="translate(512.813 2239.805)"/>
    </g>
</svg>
