<svg xmlns="http://www.w3.org/2000/svg" width="105.209" height="108.114" viewBox="0 0 105.209 108.114">
    <defs>
        <style>
            .cls-2{fill:#e8e9ef}.cls-3{fill:#166ffe}
        </style>
    </defs>
    <g id="Group_6143" transform="translate(-1102 -2786)">
        <g id="Group_6142" transform="translate(1051.738 2730.109)">
            <path id="Path_5343" fill="#bedbfc" d="M61.731 122.024q-3.215-7.473-6.433-14.945c-1.467-3.39-2.966-6.765-4.437-10.153-1.311-3.019-.476-5.23 2.53-6.562 5.587-2.475 11.188-4.918 16.786-7.37q30.323-13.28 60.656-26.555c2.846-1.245 5.089-.356 6.351 2.523q7.519 17.165 15.011 34.343c.913 2.089 1.823 4.179 2.753 6.261a4.524 4.524 0 0 1-2.321 6.377c-.947.45-1.91.866-2.865 1.3-.718.132-1.047-.455-1.473-.826a13.905 13.905 0 0 0-20.587 2.408 14.179 14.179 0 0 0-2.541 7.545c-.037.619.152 1.292-.37 1.815l-18.545 8.054q-8.145 3.544-16.283 7.1a4.42 4.42 0 0 1-2.124.383c-6.371 0-12.742 0-19.113-.01-.712 0-1.475.128-2.067-.457l-.8-2.172c.647-.605 1.461-.439 2.218-.441 6.353-.016 12.706 0 19.059-.011 2.087 0 2.113-.036 2.119-2.167 0-1.371.02-2.742-.006-4.113-.027-1.419-.173-1.585-1.587-1.6-3.61-.029-7.221-.009-10.832-.011-4.342 0-8.684.014-13.026-.013-.748-.001-1.598.16-2.073-.703z"/>
            <path id="Path_5344" d="M321.9 241.635a14.635 14.635 0 0 1 4.279-11.544 14.27 14.27 0 0 1 19.768-.2c.3.281.616.536.924.8a15.5 15.5 0 0 1 3.572 9.656 14.312 14.312 0 0 1-27.187 6.127 17.288 17.288 0 0 1-1.356-4.839z" class="cls-2" transform="translate(-197.109 -123.454)"/>
            <path id="Path_5345" d="M90.557 296.97a2.583 2.583 0 0 0 1.721.273c8.271.007 16.543.029 24.813-.016 1.12-.006 1.515.256 1.458 1.426-.1 2.006-.091 4.023 0 6.029.049 1.1-.316 1.37-1.382 1.364-7.494-.041-14.989-.019-22.483-.016-1.186 0-2.373-.037-3.557.005-.791.028-1.157-.189-1.138-1.066.047-2.279.034-4.561 0-6.84a1.452 1.452 0 0 1 .568-1.159z" class="cls-2" transform="translate(-28.826 -174.946)"/>
            <path id="Path_5346" d="M95.5 337.91l21.81.022c.5 0 1 .04 1.5.061-.55 1.274-.18 2.609-.245 3.914a28.256 28.256 0 0 0 0 3.419c.077 1.069-.267 1.405-1.369 1.4-6.8-.048-13.592-.022-20.389-.021-1.916 0-3.832-.025-5.747.009-.755.013-1.056-.235-1.044-1.019.035-2.28.03-4.561 0-6.841-.01-.73.287-.951.976-.938 1.494.025 3-.002 4.508-.006z" class="cls-2" transform="translate(-28.841 -204.655)"/>
            <path id="Path_5347" d="M336.294 337.893c4.246 0 8.493.043 12.739-.025 1.175-.019 1.475.373 1.432 1.484-.081 2.1-.052 4.2-.018 6.3.012.774-.273 1.03-1.037 1.029q-13.219-.028-26.437 0c-.864 0-1.1-.326-1.08-1.129.04-2.145.059-4.293 0-6.437-.026-.963.3-1.252 1.251-1.243 4.383.043 8.767.019 13.15.021z" class="cls-2" transform="translate(-197.116 -204.625)"/>
            <path id="Path_5348" d="M104.391 377.854c4.247 0 8.494.032 12.74-.022 1.064-.013 1.446.268 1.4 1.378-.086 2.051-.06 4.109-.008 6.163.023.906-.193 1.288-1.2 1.284q-13.014-.051-26.029 0c-1.008 0-1.362-.269-1.325-1.309.074-2.1.071-4.2 0-6.3-.035-1.009.36-1.215 1.275-1.207 4.383.038 8.767.017 13.151.017z" class="cls-2" transform="translate(-28.81 -233.626)"/>
            <path id="Path_5349" d="M254.422 386.636q-13.752.011-27.5.037c-.763 0-1.022-.189-1-.982.05-2.233.058-4.47-.007-6.7-.026-.909.269-1.132 1.147-1.128 9.122.035 18.245.03 27.367.036.677 1.292.678 7.442-.007 8.737z" class="cls-3" transform="translate(-127.461 -233.646)"/>
            <path id="Path_5350" d="M104.117 426.64c-4.293 0-8.585-.02-12.877.019-.932.008-1.292-.246-1.262-1.229.065-2.144.059-4.293 0-6.437-.026-.931.327-1.147 1.2-1.145q13.083.035 26.166-.007c.873 0 1.218.237 1.194 1.157-.055 2.145-.063 4.293 0 6.437.03.99-.34 1.229-1.267 1.221-4.386-.039-8.771-.017-13.154-.016z" class="cls-2" transform="translate(-28.819 -262.66)"/>
            <path id="Path_5351" d="M254.422 426.619q-13.752.011-27.5.037c-.763 0-1.022-.189-1-.982.05-2.234.058-4.47-.007-6.7-.026-.909.269-1.132 1.147-1.128 9.122.035 18.245.03 27.367.036.677 1.292.678 7.442-.007 8.737z" class="cls-3" transform="translate(-127.461 -262.661)"/>
            <path id="Path_5352" d="M329.857 386.645v-8.74c8.358 0 16.717.009 25.075-.033 1.031 0 1.349.3 1.313 1.323-.072 2.053-.073 4.111-.006 6.164.033 1.009-.267 1.338-1.306 1.332-8.36-.046-16.718-.038-25.076-.046z" class="cls-2" transform="translate(-202.896 -233.655)"/>
            <path id="Path_5353" d="M329.857 426.628v-8.74c8.358 0 16.717.009 25.075-.033 1.031 0 1.349.3 1.313 1.323-.072 2.052-.073 4.111-.006 6.164.033 1.009-.267 1.337-1.306 1.332-8.36-.046-16.718-.038-25.076-.046z" class="cls-2" transform="translate(-202.896 -262.67)"/>
            <path id="Path_5354" d="M208.915 156.82c-.527 11.33-8.842 19.975-20.147 20.023a20.167 20.167 0 1 1-.121-40.334c11.435-.009 19.879 8.748 20.268 20.311z" class="cls-3" transform="translate(-85.783 -58.503)"/>
            <path id="Path_5355" d="M340.034 151.519a4.537 4.537 0 1 1-4.623-4.485 4.343 4.343 0 0 1 4.623 4.485z" class="cls-3" transform="translate(-203.697 -66.141)"/>
            <path id="Path_5356" d="M119.973 244.511a4.537 4.537 0 1 1 9.074-.024 4.537 4.537 0 0 1-9.074.024z" class="cls-3" transform="translate(-50.588 -133.558)"/>
        </g>
    </g>
</svg>
