<svg xmlns="http://www.w3.org/2000/svg" width="95.181" height="108.821" viewBox="0 0 95.181 108.821">
    <defs>
        <style>
            .cls-1{fill:#e8e9ef}.cls-2{fill:#166ffe}
        </style>
    </defs>
    <g id="Group_6035" transform="translate(-628.383 1224.938)">
        <path id="Path_5262" d="M657.455-1172.8c-2.835-.191-4.544-1.939-4.546-4.72q-.012-21.392 0-42.784a4.411 4.411 0 0 1 4.629-4.629q39.445-.012 78.89 0a4.438 4.438 0 0 1 4.7 4.7q.01 21.321 0 42.642a4.451 4.451 0 0 1-4.758 4.785q-12.866.009-25.731-.015a3.093 3.093 0 0 0-2.241.9c-3.578 3.183-7.214 6.3-10.84 9.432a9.045 9.045 0 0 1-1.118.681c0-3.3-.046-6.4.024-9.491.026-1.141-.253-1.571-1.473-1.537-3.061.085-6.126.057-9.188.013-.881-.013-1.359.209-1.26 1.163-.678-.1-.547-.675-.607-1.1a13.15 13.15 0 0 0-12.031-11.266c-5.6-.532-11.412 3.373-13.4 8.935-.275.781-.06 1.831-1.05 2.291z" class="cls-1" transform="translate(-17.571)"/>
        <path id="Path_5263" d="M656.577-946.255c.236.091.2.772.693.31.892-.84 1.793-1.671 2.682-2.513.374-.354.194-.776.13-1.194-.514-3.351-1.027-6.7-1.508-10.057-.077-.536-.385-1.315.734-1.2 3.228.324 6.453.711 9.689.909 2.293.14 3.574 1.516 4.523 3.311a33.606 33.606 0 0 1 2.786 9.014 114.747 114.747 0 0 1 1.733 16.289c.074 1.176.146 2.353.259 3.526.064.667-.148.98-.846.914-.327-.031-.659 0-.989 0h-46.355c-1.81 0-1.807.3-1.676-1.81.264-4.283.491-8.569.981-12.83.592-5.153 1.4-10.268 3.832-14.957a5.97 5.97 0 0 1 5.568-3.587c2.624-.058 5.243-.457 7.86-.739.856-.092 1.4-.2 1.169 1.081-.552 3.008-.863 6.059-1.377 9.075-.234 1.372-.142 2.485 1.116 3.32.887.589 1.381 1.669 2.462 2.034 1.02.366 1.557 1.3 2.3 1.988a.992.992 0 0 0 1.554.081 9.188 9.188 0 0 0 2.68-2.965z" class="cls-2" transform="translate(0 -189.18)"/>
        <path id="Path_5264" d="M664.362-1070.378a14.6 14.6 0 0 1 4.552-8.095c3.956-3.371 8.46-4.446 13.41-2.708a13.18 13.18 0 0 1 8.831 10.023c.15.634-.119 1.333.3 1.926q.748 6.881 1.5 13.762c.182 1.67-.188 2.087-1.9 2.089q-4.591.006-9.183 0c-.163-.628.338-.932.66-1.307a16.6 16.6 0 0 0 3.869-8.493c.158-1.034-.047-1.348-1.145-1.495a20.5 20.5 0 0 1-11.787-5.839 3.929 3.929 0 0 1-.45-.543c-1.131-1.583-1.218-1.6-2.447-.015-2.045 2.644-2.082 5.639-1.44 8.742a15.646 15.646 0 0 0 4.165 8.184c.191.19.435.383.3.72-3.2.016-6.4.043-9.606.043-1.116 0-1.57-.5-1.419-1.7.636-5.096 1.2-10.197 1.79-15.294z" class="cls-2" transform="translate(-24.478 -102.421)"/>
        <path id="Path_5265" d="M688.449-1030.749c-3.129-2.76-4.526-6.338-5.058-10.393a9.473 9.473 0 0 1 2.769-8.619c.63-.607.988-1.032 1.485.209.935 2.337 3.107 3.482 5.144 4.63 2.542 1.432 5.193 2.667 8.225 2.611 1.057-.02.759.685.689 1.27a17.541 17.541 0 0 1-4.983 10.338l-1.625.8c-2.4 1.176-4.555.412-6.646-.846z" class="cls-1" transform="translate(-39.33 -125.101)"/>
        <path id="Path_5266" fill="#bedbfc" d="M711.332-938.812c.105 1.37-.957 1.942-1.819 2.631-1.723 1.378-1.739 1.376-3.3-.185a6.465 6.465 0 0 1-1.416-1.558l2.259-10.882c.048-.23.1-.459.145-.689.111-.539.323-1.024.953-1.044.722-.023.923.525 1.041 1.108q1.071 5.31 2.137 10.619z" transform="translate(-54.754 -196.622)"/>
    </g>
</svg>
