<svg width="48" height="60" viewBox="0 0 48 60" fill="none" xmlns="http://www.w3.org/2000/svg">
<path opacity="0.5" fill-rule="evenodd" clip-rule="evenodd" d="M41.0687 3.21409C40.6676 2.81724 40.2326 2.4679 39.7832 2.12747L39.8147 2.14336C39.4647 1.82089 39.0484 1.61029 38.632 1.39969C38.0444 1.10177 37.412 0.895591 36.7433 0.783888C35.6735 0.563974 34.4695 0.736701 33.2328 1.28751L33.3857 1.21935L32.8081 1.44449L32.2425 1.72413C32.1219 1.77352 32.0008 1.8367 31.8806 1.91289C31.7768 1.99063 31.6774 2.08807 31.587 2.20082C31.5136 2.29456 31.4558 2.40576 31.4206 2.52036C31.3855 2.63495 31.3747 2.74779 31.3896 2.84458C31.4088 2.9738 31.462 3.07549 31.5422 3.13626C31.6224 3.19703 31.7259 3.21403 31.839 3.18501C31.9353 3.16088 32.0354 3.09887 32.1263 3.00706L32.1265 3.00701C32.4048 2.90534 32.6831 2.80368 32.9562 2.73172C33.1964 2.6621 33.4326 2.61932 33.6622 2.60385C34.1626 2.57619 34.6433 2.61898 35.0972 2.73159C36.1661 3.08623 37.1537 3.61829 38.0435 4.31878C38.7558 4.87913 39.4253 5.50917 40.0487 6.20592C40.6838 6.92944 41.2749 7.71396 41.8197 8.55645L42.6467 9.94465C42.8511 10.2996 43.034 10.6679 43.219 11.0405C43.248 11.0988 43.277 11.1572 43.3061 11.2157L43.6978 12.0604C43.7534 12.1691 43.801 12.2863 43.849 12.4045C43.878 12.476 43.9072 12.5479 43.9384 12.6185L44.3435 13.6317C44.5357 14.1195 44.7002 14.6345 44.8361 15.174C45.1255 16.3551 45.2886 17.6362 45.322 18.9921C45.3066 20.1331 45.1815 21.3232 44.9494 22.5377C44.7077 23.7648 44.351 25.0076 43.8879 26.2359C43.5213 27.1239 43.0839 27.9888 42.5858 28.8102C42.0925 29.5716 41.5526 30.2857 40.9767 30.9383C40.3432 31.5911 39.6819 32.1726 39.0044 32.6726C38.1335 33.2767 37.2507 33.7731 36.3711 34.1533C36.0562 34.2773 35.701 34.3981 35.3923 34.503C35.2782 34.5418 35.1704 34.5784 35.0734 34.6123C34.714 34.7376 34.3167 34.86 33.9232 34.9357L32.7636 35.1413C32.2053 35.2307 31.7359 35.3004 31.1593 35.3482L31.1589 35.3482C30.5824 35.396 30.0058 35.4438 29.4423 35.4658C28.7929 35.5145 28.139 35.5394 27.4807 35.5405L23.6813 35.5424C22.9058 35.5543 22.1172 35.5919 21.3314 35.6631L19.9244 35.7921C19.6116 35.8289 19.2963 35.8808 18.9825 35.9323C18.8542 35.9534 18.7261 35.9745 18.5987 35.9944C17.8147 36.1032 17.0251 36.3106 16.2285 36.5199C16.1842 36.5315 16.1398 36.5432 16.0954 36.5549C15.7169 36.6541 15.3174 36.795 14.9528 36.9236C14.9119 36.938 14.8715 36.9523 14.8316 36.9663C14.5955 37.0493 14.3501 37.1506 14.1021 37.253C13.9342 37.3223 13.765 37.3922 13.5967 37.4571C12.7121 37.8017 11.8198 38.2395 10.9288 38.6941C10.1147 39.1027 9.30138 39.5769 8.49417 40.1136C8.33325 40.2133 8.17641 40.3276 8.01889 40.4423C7.92329 40.5119 7.82743 40.5818 7.73027 40.6486C7.38541 40.9055 7.04528 41.187 6.71202 41.4914C6.13401 42.028 5.59352 42.6615 5.11279 43.3659C4.65413 44.0425 4.23846 44.7596 3.87381 45.5034C3.51113 46.2864 3.19877 47.0869 2.94145 47.8929C2.43932 49.3498 2.20749 50.811 2.26957 52.1277C2.26952 52.301 2.28039 52.4687 2.30208 52.629C2.32639 52.7743 2.3577 52.9142 2.39588 53.0483C2.42451 53.2274 2.47552 53.3892 2.54737 53.529L2.72467 53.8612C2.80526 54.0454 2.94746 54.1573 3.12691 54.1778C3.29853 54.1872 3.49259 54.1077 3.6744 53.9536C3.76409 53.8731 3.84673 53.7737 3.91699 53.6616C3.98725 53.5496 4.04358 53.4275 4.0823 53.3032C4.12586 53.1387 4.13899 52.9785 4.12048 52.8375C4.1279 52.6473 4.13398 52.4402 4.12703 52.2589L4.10372 51.7784C4.10339 51.6327 4.09751 51.4883 4.09162 51.3438C4.08574 51.1994 4.07986 51.055 4.07953 50.9094C4.08177 50.3613 4.13223 49.7907 4.23003 49.2074C4.41052 48.3965 4.66163 47.5791 4.9779 46.773C5.25777 46.0833 5.59722 45.4121 5.98701 44.7779C6.30261 44.2907 6.64469 43.8301 7.00798 43.4031C7.52972 42.8878 8.07187 42.4305 8.62536 42.0389C9.01976 41.7858 9.42203 41.5366 9.83215 41.2915C10.1556 41.0981 10.4807 40.9257 10.8094 40.7514C10.8975 40.7047 10.9858 40.6579 11.0744 40.6105C11.7619 40.2397 12.4485 39.9323 13.1396 39.6229C13.2258 39.5843 13.3122 39.5456 13.3986 39.5068L14.393 39.1207C14.5796 39.0462 14.7622 38.9861 14.9442 38.9261C15.0758 38.8828 15.207 38.8395 15.3392 38.7911L16.2306 38.5307C16.291 38.5139 16.3517 38.4967 16.4125 38.4794C16.6636 38.4082 16.9176 38.3361 17.1691 38.2941L18.3339 38.0589C18.6155 37.9965 18.8947 37.9633 19.1767 37.9298C19.2507 37.921 19.3249 37.9121 19.3994 37.9028C19.8407 37.8321 20.2795 37.7905 20.7211 37.7486C20.8382 37.7375 20.9555 37.7264 21.0731 37.7147L23.1 37.6084C23.9769 37.5538 24.8303 37.5511 25.6821 37.5485C26.4333 37.5462 27.1832 37.5439 27.9468 37.5059L29.2166 37.4531L30.6328 37.345L32.0306 37.1952C32.2895 37.1645 32.5472 37.1188 32.8049 37.0732C32.9337 37.0503 33.0625 37.0275 33.1915 37.0065C35.1148 36.7254 37.1318 35.921 39.1239 34.6404C39.7256 34.2368 40.3192 33.7745 40.8982 33.2587C41.4278 32.7774 41.9405 32.2468 42.4301 31.6734C43.4404 30.4702 44.3164 29.0774 44.9987 27.5898C45.6791 26.0951 46.1932 24.551 46.5186 23.0243C46.86 21.5209 47.0538 20.0423 47.0947 18.6279C47.0869 16.1258 46.7096 13.8324 45.9809 11.8573L45.6361 10.9394L45.4822 10.5221L44.8854 9.18569C44.6162 8.57675 44.3119 8.00454 44.0075 7.43234C43.906 7.24159 43.8046 7.05085 43.7044 6.85874C43.5206 6.53946 43.3473 6.25785 43.1662 5.97226C42.8629 5.47943 42.5519 4.98263 42.2082 4.55019C41.8587 4.06338 41.4783 3.61728 41.0687 3.21409ZM6.12347 59.4456C6.04956 59.7116 5.77395 59.8674 5.50788 59.7935L1.17207 58.589C0.905998 58.5151 0.750225 58.2395 0.824136 57.9735C0.898049 57.7074 1.17366 57.5516 1.43972 57.6255L5.07926 58.6365L5.35337 58.4816L6.3644 54.8421C6.43831 54.576 6.71392 54.4202 6.97998 54.4942C7.24605 54.5681 7.40183 54.8437 7.32791 55.1097L6.12347 59.4456Z" fill="#5784F7"/>
</svg>
