<svg width="32" height="35" viewBox="0 0 32 35" fill="none" xmlns="http://www.w3.org/2000/svg">
<path fill-rule="evenodd" clip-rule="evenodd" d="M16.0267 2.66669C8.28 2.66669 2.66666 8.99618 2.66666 16.0201C2.66666 18.2634 3.32 20.5735 4.46666 22.6834C4.68 23.0306 4.70666 23.4712 4.56 23.8852L3.66666 26.8763C3.46666 27.5974 4.08 28.1316 4.76 27.9179L7.45333 27.1167C8.18666 26.8763 8.76 27.1835 9.44 27.5974C11.3867 28.7458 13.8133 29.3334 16 29.3334C16.1321 29.3334 16.2642 29.3313 16.3963 29.3272C16.1398 28.5991 16.0002 27.8158 16.0002 26.9999C16.0002 23.1339 19.1342 19.9999 23.0002 19.9999C24.9295 19.9999 26.6765 20.7805 27.9427 22.043C28.822 20.2876 29.3333 18.2527 29.3333 15.98C29.3333 8.876 23.6 2.66669 16.0267 2.66669ZM15.9733 17.7426C15.0267 17.7293 14.2667 16.9681 14.2667 16.02C14.2667 15.0853 15.04 14.3108 15.9733 14.3242C16.92 14.3242 17.68 15.0853 17.68 16.0334C17.68 16.9681 16.92 17.7426 15.9733 17.7426ZM22.12 17.7426C21.1733 17.7426 20.4133 16.9681 20.4133 16.0334C20.4133 15.0853 21.1733 14.3242 22.12 14.3242C23.0667 14.3242 23.8267 15.0853 23.8267 16.0334C23.8267 16.9681 23.0667 17.7426 22.12 17.7426ZM8.12 16.0334C8.12 16.9681 8.89333 17.7426 9.82666 17.7426C10.7733 17.7293 11.5333 16.9681 11.5333 16.0334C11.5333 15.0853 10.7733 14.3242 9.82666 14.3242C8.88 14.3242 8.12 15.0853 8.12 16.0334Z" fill="#5784F7"/>
<path d="M24 33.25C26.8995 33.25 29.25 30.8995 29.25 28C29.25 25.1005 26.8995 22.75 24 22.75C21.1005 22.75 18.75 25.1005 18.75 28C18.75 30.8995 21.1005 33.25 24 33.25Z" fill="#5784F7"/>
<path d="M21.6667 28L23.4167 29.75L26.3333 26.8333" stroke="white" stroke-width="0.6" stroke-linecap="round" stroke-linejoin="round"/>
</svg>
