<svg width="70" height="66" viewBox="0 0 70 66" fill="none" xmlns="http://www.w3.org/2000/svg">
<rect opacity="0.24" width="70" height="66" rx="23" fill="#FEC53D"/>
<g clip-path="url(#clip0_0_1)">
<path d="M35.4911 31.0833C38.503 31.6944 40.8929 32.5833 42.6607 33.75C44.4286 34.9167 45.3125 36.6111 45.3125 38.8333C45.3125 40.6111 44.6414 42.0278 43.2991 43.0833C41.9568 44.1389 40.2054 44.8333 38.0446 45.1667V49H31.7589V45.1667C29.5327 44.7778 27.7158 44 26.308 42.8333C24.9003 41.6667 24.131 40.1667 24 38.3333H28.6161C28.878 40.8333 30.9732 42.0833 34.9018 42.0833C36.9315 42.0833 38.372 41.75 39.2232 41.0833C40.0744 40.4167 40.5 39.6944 40.5 38.9167C40.5 37.9722 40.058 37.1389 39.1741 36.4167C38.2902 35.6944 36.6369 35.0833 34.2143 34.5833C27.6667 33.25 24.3929 30.8056 24.3929 27.25C24.3929 25.6389 25.0804 24.2639 26.4554 23.125C27.8304 21.9861 29.5982 21.2222 31.7589 20.8333V17H38.0446V20.9167C40.1399 21.3611 41.7604 22.1944 42.9062 23.4167C44.0521 24.6389 44.6577 26.0556 44.7232 27.6667H40.1071C39.9762 25.1667 38.2411 23.9167 34.9018 23.9167C33.1339 23.9167 31.7426 24.2222 30.7277 24.8333C29.7128 25.4444 29.2054 26.25 29.2054 27.25C29.2054 28.0833 29.6637 28.7917 30.5804 29.375C31.497 29.9583 33.1339 30.5278 35.4911 31.0833Z" fill="#FEC53D"/>
</g>
<defs>
<clipPath id="clip0_0_1">
<rect width="22" height="32" fill="white" transform="translate(24 17)"/>
</clipPath>
</defs>
</svg>
