<svg width="973" height="664" viewBox="0 0 973 664" fill="none" xmlns="http://www.w3.org/2000/svg">
<path d="M694.463 -470.818C580.796 -493.454 341.319 -494.899 292.747 -319.592C244.174 -144.285 282.751 30.821 308.111 96.4604C344.101 226.294 332.321 445.859 -2.71858 285.449C-337.758 125.04 -379.204 457.687 -358.047 644.062" stroke="white" stroke-opacity="0.26"/>
<path d="M800.504 -375.618C686.837 -398.254 211.478 -633.385 162.906 -458.078C114.333 -282.771 152.91 -107.665 178.27 -42.0255C214.26 87.8081 202.48 307.373 -132.559 146.963C-467.599 -13.4463 -325.326 493.141 -304.169 679.516" stroke="white" stroke-opacity="0.26"/>
<path d="M852.504 -302.618C738.837 -325.254 263.478 -560.385 214.906 -385.078C166.333 -209.771 204.91 -34.665 230.27 30.9745C266.26 160.808 254.48 380.373 -80.5594 219.963C-415.599 59.5537 -273.326 566.141 -252.169 752.516" stroke="white" stroke-opacity="0.26"/>
</svg>
