<svg width="28" height="28" viewBox="0 0 28 28" fill="none" xmlns="http://www.w3.org/2000/svg">
<path d="M14.0267 0.666672C6.28001 0.666672 0.666672 6.98667 0.666672 14C0.666672 16.24 1.32001 18.5467 2.46667 20.6533C2.68 21 2.70667 21.44 2.56 21.8533L1.66667 24.84C1.46667 25.56 2.08001 26.0933 2.76001 25.88L5.45334 25.08C6.18667 24.84 6.76 25.1467 7.44134 25.56C9.388 26.7067 11.8133 27.2933 14 27.2933C20.6133 27.2933 27.3333 22.1867 27.3333 13.96C27.3333 6.86667 21.6 0.666672 14.0267 0.666672" fill="#5784F7"/>
<path fill-rule="evenodd" clip-rule="evenodd" d="M13.974 15.7201C13.0273 15.7068 12.2673 14.9468 12.2673 14.0001C12.2673 13.0668 13.0407 12.2935 13.974 12.3068C14.9207 12.3068 15.6807 13.0668 15.6807 14.0135C15.6807 14.9468 14.9207 15.7201 13.974 15.7201ZM7.8268 15.7201C6.89347 15.7201 6.12013 14.9468 6.12013 14.0134C6.12013 13.0668 6.88013 12.3068 7.8268 12.3068C8.77347 12.3068 9.53347 13.0668 9.53347 14.0134C9.53347 14.9468 8.77347 15.7068 7.8268 15.7201ZM18.4137 14.0135C18.4137 14.9468 19.1737 15.7201 20.1204 15.7201C21.0671 15.7201 21.8271 14.9468 21.8271 14.0135C21.8271 13.0668 21.0671 12.3068 20.1204 12.3068C19.1737 12.3068 18.4137 13.0668 18.4137 14.0135Z" fill="white"/>
</svg>

