<svg width="57" height="54" viewBox="0 0 57 54" fill="none" xmlns="http://www.w3.org/2000/svg">
<rect opacity="0.24" width="57" height="54" rx="20" fill="#F93C65"/>
<path d="M27.6667 42.4533V37.6533C20.9867 37.3067 15.6667 31.76 15.6667 25C15.6667 18.0133 21.3467 12.3333 28.3334 12.3333C35.32 12.3333 41 18.0133 41 25C41 31.6 36.4134 38.24 29.5734 41.5333L27.6667 42.4533ZM28.3334 15C22.8134 15 18.3334 19.48 18.3334 25C18.3334 30.52 22.8134 35 28.3334 35H30.3334V38.0667C35.1867 35 38.3334 29.96 38.3334 25C38.3334 19.48 33.8534 15 28.3334 15ZM27 30.3333H29.6667V33H27V30.3333ZM29.6667 28.3333H27C27 24 31 24.3333 31 21.6667C31 20.2 29.8 19 28.3334 19C26.8667 19 25.6667 20.2 25.6667 21.6667H23C23 18.72 25.3867 16.3333 28.3334 16.3333C31.28 16.3333 33.6667 18.72 33.6667 21.6667C33.6667 25 29.6667 25.3333 29.6667 28.3333Z" fill="#F93C65"/>
</svg>
