<svg width="126" height="27" viewBox="0 0 126 27" fill="none" xmlns="http://www.w3.org/2000/svg">
<path d="M124.154 0.232849C124.698 0.435874 125.146 0.847139 125.407 1.38121C125.667 1.91528 125.719 2.5311 125.551 3.10073C125.261 3.93608 124.709 4.64538 123.981 5.1155C123.129 5.70617 122.234 6.22672 121.303 6.67239C120.243 7.23994 118.703 8.05864 117.582 8.49695C116.225 9.02766 108.422 11.7279 107.277 12.0193C105.578 12.4523 101.103 13.1839 100.261 13.2878C99.6707 13.3443 99.0809 13.4008 98.433 13.4628C98.973 15.9467 97.6281 17.4878 96.3926 18.5709C95.2818 19.5443 93.8732 19.9029 92.4832 20.4089C90.0137 21.2898 87.4825 21.9778 84.911 22.467C76.9514 24.1055 68.8551 24.3168 60.8001 25.1954C59.0691 25.3891 57.3217 25.4586 55.5814 25.5553C51.503 25.7843 47.429 25.9973 43.3596 26.1943C42.1791 26.2514 32.4934 26.2514 31.4033 26.1693C30.068 26.0688 24.514 25.7057 23.1921 25.5573C21.4842 25.3806 16.3452 24.6888 15.5156 24.5492C14.6861 24.4096 13.7905 24.1924 12.9275 24.0326C12.2155 23.8957 9.17754 23.2498 8.37574 23.0702C7.84509 22.9439 7.31262 22.8457 6.78197 22.7194C5.3526 22.3902 3.91969 22.024 2.49571 21.657C2.33893 21.6208 1.99815 21.4996 1.67613 21.3859C1.41553 21.3004 1.188 21.1306 1.0272 20.9017C0.866411 20.6728 0.780913 20.397 0.783365 20.115C0.814938 18.8908 2.6073 19.0082 2.84319 19.0229C3.57004 19.1372 4.28835 19.3052 4.9926 19.5255C5.4549 19.6444 5.85637 19.8343 6.29815 19.9272C7.97323 20.2795 9.65862 20.5982 11.356 20.9484C12.6309 21.2178 23.2529 22.7549 24.385 22.8516C25.517 22.9483 37.1131 23.4971 38.9672 23.5526C39.137 23.5364 39.3054 23.5529 39.4756 23.5412C44.9476 23.2363 50.4284 23.0704 55.8938 22.6495C64.2495 22.0079 72.6071 21.2759 80.9666 20.4536C88.8316 19.1458 93.4978 17.3007 94.8251 16.4698C95.5116 16.1523 96.6312 14.3765 95.6297 14.1368L94.4814 14.2467C90.3126 14.6459 86.149 15.1938 81.9642 15.3801C79.7191 15.4786 77.4177 14.9905 75.7026 13.0899C74.5672 11.8283 74.4517 10.2453 74.7141 8.7939C75.0061 7.13457 76.2612 6.11481 77.9659 5.88165C82.8315 5.22462 84.8867 5.68502 86.0887 5.94745C87.424 6.19791 88.7378 6.56162 90.0166 7.03487C91.4405 7.61964 92.8222 8.30982 94.1509 9.09999C94.9341 9.55635 95.5875 10.2582 96.3335 10.7973C96.5866 10.9442 96.8788 11.0014 97.1653 10.9601C98.6997 10.7852 100.235 10.6195 101.762 10.3661C102.894 10.1785 104.014 9.91274 105.134 9.65164C106.016 9.44598 107.46 9.08394 108.335 8.851C109.211 8.61805 110.095 8.39349 110.932 8.13625C112.245 7.72153 113.558 7.30681 114.838 6.83C116.274 6.28697 117.709 5.73009 119.082 5.0486C120.263 4.42021 121.412 3.72838 122.522 2.97592C122.599 2.92661 122.665 2.86162 122.716 2.78492C122.945 2.47662 123.047 2.0868 123 1.69968C122.933 1.43702 122.943 1.16049 123.026 0.904077C123.11 0.647663 123.264 0.422524 123.47 0.256319C123.574 0.195244 123.69 0.161184 123.809 0.157093C123.928 0.153004 124.046 0.179008 124.154 0.232849ZM92.9305 11.6126C92.6068 11.3632 92.2701 11.1325 91.9219 10.9215C90.7395 10.2983 86.2429 8.59412 85.2146 8.45023C83.7952 8.23746 82.3599 8.16883 80.9293 8.24533C80.2025 8.25667 79.478 8.32605 78.7622 8.45285C78.274 8.56718 77.85 8.87519 77.5814 9.31061C77.3127 9.74602 77.221 10.2741 77.3258 10.7811C77.465 11.3877 77.8342 11.6646 78.6559 12.052C79.7612 12.53 80.9519 12.7562 82.1464 12.7152C85.4729 12.5132 92.5324 11.6927 92.9283 11.5895L92.9305 11.6126Z" fill="#5784F7"/>
</svg>
